Boogaloo-Light.ufo
<glyph name="numbersign" format="1">
  <advance width="833"/>
  <unicode hex="0023"/>
  <outline>
    <contour>
      <point x="522" y="726" type="line" name="hr00"/>
      <point x="509" y="666"/>
      <point x="499" y="598"/>
      <point x="490" y="532" type="curve"/>
      <point x="453" y="532"/>
      <point x="418" y="531"/>
      <point x="384" y="530" type="curve"/>
      <point x="389" y="587"/>
      <point x="394" y="642"/>
      <point x="401" y="697" type="curve"/>
      <point x="285" y="706" type="line"/>
      <point x="278" y="646"/>
      <point x="272" y="586"/>
      <point x="267" y="526" type="curve"/>
      <point x="224" y="525"/>
      <point x="182" y="524"/>
      <point x="141" y="524" type="curve"/>
      <point x="129" y="414" type="line"/>
      <point x="172" y="414"/>
      <point x="215" y="414"/>
      <point x="257" y="416" type="curve"/>
      <point x="254" y="376"/>
      <point x="250" y="336"/>
      <point x="246" y="297" type="curve"/>
      <point x="202" y="296"/>
      <point x="159" y="295"/>
      <point x="117" y="295" type="curve"/>
      <point x="105" y="185" type="line"/>
      <point x="148" y="185"/>
      <point x="191" y="186"/>
      <point x="234" y="187" type="curve"/>
      <point x="225" y="114"/>
      <point x="216" y="46"/>
      <point x="204" y="-18" type="curve"/>
      <point x="317" y="-29" type="line"/>
      <point x="331" y="39"/>
      <point x="342" y="116"/>
      <point x="352" y="191" type="curve"/>
      <point x="387" y="192"/>
      <point x="422" y="193"/>
      <point x="456" y="193" type="curve"/>
      <point x="451" y="126"/>
      <point x="445" y="63"/>
      <point x="438" y="0" type="curve"/>
      <point x="554" y="0" type="line"/>
      <point x="562" y="63"/>
      <point x="568" y="127"/>
      <point x="574" y="191" type="curve"/>
      <point x="612" y="190"/>
      <point x="648" y="187"/>
      <point x="684" y="182" type="curve"/>
      <point x="711" y="292" type="line"/>
      <point x="671" y="297"/>
      <point x="627" y="300"/>
      <point x="583" y="301" type="curve"/>
      <point x="586" y="340"/>
      <point x="590" y="377"/>
      <point x="594" y="420" type="curve"/>
      <point x="634" y="419"/>
      <point x="671" y="416"/>
      <point x="708" y="411" type="curve"/>
      <point x="735" y="521" type="line"/>
      <point x="695" y="526"/>
      <point x="652" y="529"/>
      <point x="607" y="530" type="curve"/>
      <point x="615" y="591"/>
      <point x="624" y="648"/>
      <point x="635" y="717" type="curve"/>
    </contour>
    <contour>
      <point x="476" y="422" type="curve"/>
      <point x="474" y="381"/>
      <point x="470" y="342"/>
      <point x="465" y="303" type="curve"/>
      <point x="430" y="303"/>
      <point x="397" y="302"/>
      <point x="364" y="301" type="curve"/>
      <point x="368" y="342"/>
      <point x="372" y="382"/>
      <point x="375" y="420" type="curve"/>
      <point x="409" y="421"/>
      <point x="443" y="422"/>
    </contour>
  </outline>
</glyph>
<glyph name="quotesingle" format="1">
  <advance width="181"/>
  <unicode hex="0027"/>
  <outline>
    <contour>
      <point x="37" y="704" type="line" name="hr00"/>
      <point x="35" y="615"/>
      <point x="33" y="534"/>
      <point x="25" y="434" type="curve"/>
      <point x="117" y="426" type="line"/>
      <point x="132" y="525"/>
      <point x="141" y="600"/>
      <point x="145" y="695" type="curve"/>
    </contour>
  </outline>
</glyph>
<glyph name="parenright" format="1">
  <advance width="354"/>
  <unicode hex="0029"/>
  <outline>
    <contour>
      <point x="137" y="-244" type="line" name="hr00"/>
      <point x="204" y="-118"/>
      <point x="260" y="95"/>
      <point x="260" y="303" type="curve" smooth="yes"/>
      <point x="260" y="463"/>
      <point x="229" y="615"/>
      <point x="163" y="736" type="curve"/>
      <point x="33" y="690" type="line"/>
      <point x="85" y="582"/>
      <point x="125" y="439"/>
      <point x="125" y="283" type="curve" smooth="yes"/>
      <point x="125" y="102"/>
      <point x="86" y="-84"/>
      <point x="41" y="-190" type="curve"/>
    </contour>
  </outline>
</glyph>
<glyph name="asterisk" format="1">
  <advance width="475"/>
  <unicode hex="002A"/>
  <outline>
    <contour>
      <point x="278" y="659" type="curve" smooth="yes" name="hr00"/>
      <point x="278" y="673"/>
      <point x="275" y="688"/>
      <point x="268" y="703" type="curve"/>
      <point x="228" y="698"/>
      <point x="187" y="689"/>
      <point x="152" y="668" type="curve"/>
      <point x="174" y="628"/>
      <point x="194" y="585"/>
      <point x="203" y="535" type="curve"/>
      <point x="154" y="558"/>
      <point x="111" y="596"/>
      <point x="62" y="596" type="curve" smooth="yes"/>
      <point x="58" y="596"/>
      <point x="53" y="596"/>
      <point x="49" y="595" type="curve"/>
      <point x="44" y="571"/>
      <point x="41" y="546"/>
      <point x="41" y="522" type="curve" smooth="yes"/>
      <point x="41" y="506"/>
      <point x="42" y="489"/>
      <point x="46" y="473" type="curve"/>
      <point x="77" y="479"/>
      <point x="109" y="484"/>
      <point x="143" y="484" type="curve" smooth="yes"/>
      <point x="158" y="484"/>
      <point x="173" y="483"/>
      <point x="189" y="481" type="curve"/>
      <point x="152" y="441"/>
      <point x="121" y="421"/>
      <point x="102" y="395" type="curve" smooth="yes"/>
      <point x="93" y="382"/>
      <point x="87" y="369"/>
      <point x="84" y="353" type="curve"/>
      <point x="119" y="333"/>
      <point x="158" y="316"/>
      <point x="199" y="312" type="curve"/>
      <point x="204" y="358"/>
      <point x="212" y="405"/>
      <point x="235" y="451" type="curve"/>
      <point x="261" y="403"/>
      <point x="271" y="368"/>
      <point x="290" y="342" type="curve" smooth="yes"/>
      <point x="300" y="329"/>
      <point x="311" y="319"/>
      <point x="325" y="311" type="curve"/>
      <point x="355" y="339"/>
      <point x="383" y="370"/>
      <point x="399" y="408" type="curve"/>
      <point x="357" y="427"/>
      <point x="315" y="450"/>
      <point x="278" y="485" type="curve"/>
      <point x="331" y="495"/>
      <point x="367" y="494"/>
      <point x="399" y="504" type="curve" smooth="yes"/>
      <point x="414" y="509"/>
      <point x="427" y="517"/>
      <point x="439" y="528" type="curve"/>
      <point x="422" y="565"/>
      <point x="401" y="601"/>
      <point x="370" y="628" type="curve"/>
      <point x="338" y="594"/>
      <point x="304" y="561"/>
      <point x="259" y="536" type="curve"/>
      <point x="265" y="591"/>
      <point x="278" y="626"/>
    </contour>
  </outline>
</glyph>
<glyph name="comma" format="1">
  <advance width="260"/>
  <unicode hex="002C"/>
  <outline>
    <contour>
      <point x="75" y="197" type="line" name="hr00"/>
      <point x="68" y="96"/>
      <point x="57" y="3"/>
      <point x="38" y="-113" type="curve"/>
      <point x="130" y="-120" type="line"/>
      <point x="164" y="-29"/>
      <point x="198" y="62"/>
      <point x="208" y="153" type="curve"/>
    </contour>
  </outline>
</glyph>
<glyph name="period" format="1">
  <advance width="260"/>
  <unicode hex="002E"/>
  <outline>
    <contour>
      <point x="58" y="171" type="line" name="hr00"/>
      <point x="59" y="147"/>
      <point x="59" y="121"/>
      <point x="59" y="96" type="curve" smooth="yes"/>
      <point x="59" y="59"/>
      <point x="54" y="24"/>
      <point x="50" y="-10" type="curve"/>
      <point x="185" y="-21" type="line"/>
      <point x="196" y="7"/>
      <point x="199" y="46"/>
      <point x="199" y="85" type="curve" smooth="yes"/>
      <point x="199" y="111"/>
      <point x="195" y="137"/>
      <point x="188" y="159" type="curve"/>
    </contour>
  </outline>
</glyph>
<glyph name="slash" format="1">
  <advance width="410"/>
  <unicode hex="002F"/>
  <outline>
    <contour>
      <point x="76" y="-83" type="line" name="hr00"/>
      <point x="171" y="141"/>
      <point x="293" y="493"/>
      <point x="418" y="684" type="curve"/>
      <point x="330" y="731" type="line"/>
      <point x="190" y="480"/>
      <point x="77" y="173"/>
      <point x="-24" y="-73" type="curve"/>
    </contour>
  </outline>
</glyph>
<glyph name="zero" format="1">
  <advance width="484"/>
  <unicode hex="0030"/>
  <outline>
    <contour>
      <point x="178" y="252" type="curve" smooth="yes" name="hr00"/>
      <point x="178" y="384"/>
      <point x="207" y="533"/>
      <point x="257" y="533" type="curve" smooth="yes"/>
      <point x="309" y="533"/>
      <point x="328" y="435"/>
      <point x="328" y="318" type="curve" smooth="yes"/>
      <point x="328" y="200"/>
      <point x="290" y="92"/>
      <point x="254" y="92" type="curve" smooth="yes"/>
      <point x="206" y="92"/>
      <point x="178" y="158"/>
    </contour>
    <contour>
      <point x="48" y="252" type="curve" smooth="yes"/>
      <point x="48" y="92"/>
      <point x="124" y="-18"/>
      <point x="254" y="-18" type="curve" smooth="yes"/>
      <point x="355" y="-18"/>
      <point x="458" y="143"/>
      <point x="458" y="318" type="curve" smooth="yes"/>
      <point x="458" y="494"/>
      <point x="402" y="643"/>
      <point x="257" y="643" type="curve" smooth="yes"/>
      <point x="123" y="643"/>
      <point x="48" y="435"/>
    </contour>
  </outline>
</glyph>
<glyph name="one" format="1">
  <advance width="484"/>
  <unicode hex="0031"/>
  <outline>
    <contour>
      <point x="171" y="360" type="line" name="hr00"/>
      <point x="227" y="435" type="line"/>
      <point x="221" y="360"/>
      <point x="219" y="280"/>
      <point x="219" y="201" type="curve" smooth="yes"/>
      <point x="219" y="132"/>
      <point x="222" y="62"/>
      <point x="226" y="-5" type="curve"/>
      <point x="360" y="-18" type="line"/>
      <point x="349" y="89"/>
      <point x="346" y="191"/>
      <point x="346" y="284" type="curve" smooth="yes"/>
      <point x="346" y="389"/>
      <point x="351" y="500"/>
      <point x="366" y="623" type="curve"/>
      <point x="228" y="650" type="line"/>
      <point x="186" y="569"/>
      <point x="142" y="492"/>
      <point x="95" y="424" type="curve"/>
    </contour>
  </outline>
</glyph>
<glyph name="two" format="1">
  <advance width="484"/>
  <unicode hex="0032"/>
  <outline>
    <contour>
      <point x="132" y="370" type="line" name="hr00"/>
      <point x="184" y="457"/>
      <point x="237" y="527"/>
      <point x="289" y="527" type="curve" smooth="yes"/>
      <point x="319" y="527"/>
      <point x="333" y="504"/>
      <point x="333" y="471" type="curve" smooth="yes"/>
      <point x="333" y="400"/>
      <point x="186" y="186"/>
      <point x="36" y="61" type="curve"/>
      <point x="79" y="-26" type="line"/>
      <point x="188" y="11"/>
      <point x="265" y="22"/>
      <point x="335" y="22" type="curve" smooth="yes"/>
      <point x="367" y="22"/>
      <point x="402" y="20"/>
      <point x="439" y="17" type="curve"/>
      <point x="451" y="130" type="line"/>
      <point x="414" y="137"/>
      <point x="377" y="137"/>
      <point x="335" y="137" type="curve" smooth="yes"/>
      <point x="313" y="137"/>
      <point x="277" y="137"/>
      <point x="255" y="129" type="curve"/>
      <point x="370" y="260"/>
      <point x="453" y="403"/>
      <point x="453" y="471" type="curve" smooth="yes"/>
      <point x="453" y="566"/>
      <point x="399" y="647"/>
      <point x="289" y="647" type="curve" smooth="yes"/>
      <point x="175" y="647"/>
      <point x="88" y="529"/>
      <point x="32" y="440" type="curve"/>
    </contour>
  </outline>
</glyph>
<glyph name="three" format="1">
  <advance width="484"/>
  <unicode hex="0033"/>
  <outline>
    <contour>
      <point x="126" y="466" type="line"/>
      <point x="186" y="508"/>
      <point x="228" y="528"/>
      <point x="267" y="528" type="curve" smooth="yes"/>
      <point x="288" y="528"/>
      <point x="306" y="517"/>
      <point x="306" y="492" type="curve" smooth="yes"/>
      <point x="306" y="451"/>
      <point x="234" y="395"/>
      <point x="88" y="346" type="curve"/>
      <point x="122" y="243" type="line"/>
      <point x="154" y="253"/>
      <point x="180" y="257"/>
      <point x="200" y="257" type="curve" smooth="yes"/>
      <point x="263" y="257"/>
      <point x="295" y="222"/>
      <point x="295" y="188" type="curve" smooth="yes"/>
      <point x="295" y="141"/>
      <point x="223" y="110"/>
      <point x="175" y="110" type="curve" smooth="yes"/>
      <point x="148" y="110"/>
      <point x="113" y="110"/>
      <point x="78" y="121" type="curve"/>
      <point x="96" y="11" type="line"/>
      <point x="138" y="-5"/>
      <point x="184" y="-10"/>
      <point x="215" y="-10" type="curve" smooth="yes"/>
      <point x="295" y="-10"/>
      <point x="415" y="67"/>
      <point x="415" y="188" type="curve" smooth="yes"/>
      <point x="415" y="245"/>
      <point x="381" y="299"/>
      <point x="315" y="333" type="curve"/>
      <point x="392" y="387"/>
      <point x="431" y="444"/>
      <point x="431" y="492" type="curve" smooth="yes" name="hr01"/>
      <point x="431" y="586"/>
      <point x="361" y="643"/>
      <point x="272" y="643" type="curve" smooth="yes"/>
      <point x="199" y="643"/>
      <point x="140" y="617"/>
      <point x="62" y="561" type="curve"/>
    </contour>
  </outline>
</glyph>
<glyph name="five" format="1">
  <advance width="484"/>
  <unicode hex="0035"/>
  <outline>
    <contour>
      <point x="144" y="261" type="line" name="hr00"/>
      <point x="187" y="270"/>
      <point x="211" y="274"/>
      <point x="219" y="274" type="curve" smooth="yes"/>
      <point x="274" y="274"/>
      <point x="320" y="248"/>
      <point x="320" y="210" type="curve" smooth="yes"/>
      <point x="320" y="159"/>
      <point x="253" y="115"/>
      <point x="93" y="80" type="curve"/>
      <point x="121" y="-28" type="line"/>
      <point x="352" y="21"/>
      <point x="450" y="109"/>
      <point x="450" y="220" type="curve" smooth="yes"/>
      <point x="450" y="325"/>
      <point x="362" y="383"/>
      <point x="228" y="383" type="curve"/>
      <point x="236" y="435"/>
      <point x="244" y="483"/>
      <point x="249" y="521" type="curve"/>
      <point x="306" y="530"/>
      <point x="373" y="536"/>
      <point x="424" y="536" type="curve"/>
      <point x="424" y="646" type="line"/>
      <point x="352" y="646"/>
      <point x="244" y="632"/>
      <point x="142" y="610" type="curve"/>
      <point x="142" y="610"/>
      <point x="108" y="422"/>
      <point x="86" y="307" type="curve"/>
    </contour>
  </outline>
</glyph>
<glyph name="six" format="1">
  <advance width="484"/>
  <unicode hex="0036"/>
  <outline>
    <contour>
      <point x="233" y="649" type="line" name="hr00"/>
      <point x="137" y="509"/>
      <point x="61" y="395"/>
      <point x="61" y="220" type="curve" smooth="yes"/>
      <point x="61" y="73"/>
      <point x="131" y="-31"/>
      <point x="257" y="-31" type="curve" smooth="yes"/>
      <point x="361" y="-31"/>
      <point x="455" y="76"/>
      <point x="455" y="215" type="curve" smooth="yes"/>
      <point x="455" y="334"/>
      <point x="374" y="388"/>
      <point x="299" y="388" type="curve" smooth="yes"/>
      <point x="273" y="388"/>
      <point x="237" y="381"/>
      <point x="207" y="369" type="curve"/>
      <point x="241" y="463"/>
      <point x="307" y="552"/>
      <point x="387" y="636" type="curve"/>
    </contour>
    <contour>
      <point x="269" y="278" type="curve" smooth="yes"/>
      <point x="304" y="278"/>
      <point x="330" y="252"/>
      <point x="330" y="195" type="curve" smooth="yes"/>
      <point x="330" y="130"/>
      <point x="294" y="79"/>
      <point x="257" y="79" type="curve" smooth="yes"/>
      <point x="212" y="79"/>
      <point x="186" y="137"/>
      <point x="186" y="220" type="curve" smooth="yes"/>
      <point x="186" y="229"/>
      <point x="187" y="239"/>
      <point x="187" y="248" type="curve"/>
      <point x="221" y="267"/>
      <point x="250" y="278"/>
    </contour>
  </outline>
</glyph>
<glyph name="seven" format="1">
  <advance width="484"/>
  <unicode hex="0037"/>
  <outline>
    <contour>
      <point x="401" y="649" type="line" name="hr00"/>
      <point x="266" y="642"/>
      <point x="161" y="633"/>
      <point x="78" y="622" type="curve"/>
      <point x="100" y="514" type="line"/>
      <point x="169" y="523"/>
      <point x="243" y="530"/>
      <point x="317" y="536" type="curve"/>
      <point x="224" y="367"/>
      <point x="155" y="190"/>
      <point x="118" y="-4" type="curve"/>
      <point x="236" y="-15" type="line"/>
      <point x="267" y="159"/>
      <point x="338" y="344"/>
      <point x="433" y="536" type="curve"/>
    </contour>
  </outline>
</glyph>
<glyph name="colon" format="1">
  <advance width="260"/>
  <unicode hex="003A"/>
  <outline>
    <contour>
      <point x="58" y="171" type="line" name="hr00"/>
      <point x="59" y="147"/>
      <point x="59" y="121"/>
      <point x="59" y="96" type="curve" smooth="yes"/>
      <point x="59" y="59"/>
      <point x="54" y="24"/>
      <point x="50" y="-10" type="curve"/>
      <point x="185" y="-21" type="line"/>
      <point x="196" y="7"/>
      <point x="199" y="46"/>
      <point x="199" y="85" type="curve" smooth="yes"/>
      <point x="199" y="111"/>
      <point x="195" y="137"/>
      <point x="188" y="159" type="curve"/>
    </contour>
    <contour>
      <point x="64" y="477" type="line"/>
      <point x="65" y="453"/>
      <point x="65" y="427"/>
      <point x="65" y="402" type="curve" smooth="yes"/>
      <point x="65" y="365"/>
      <point x="60" y="330"/>
      <point x="56" y="296" type="curve"/>
      <point x="191" y="285" type="line"/>
      <point x="202" y="313"/>
      <point x="205" y="352"/>
      <point x="205" y="391" type="curve" smooth="yes"/>
      <point x="205" y="417"/>
      <point x="201" y="443"/>
      <point x="194" y="465" type="curve"/>
    </contour>
  </outline>
</glyph>
<glyph name="less" format="1">
  <advance width="833"/>
  <unicode hex="003C"/>
  <outline>
    <contour>
      <point x="128" y="250" type="line" name="hr00"/>
      <point x="293" y="155"/>
      <point x="468" y="72"/>
      <point x="679" y="14" type="curve"/>
      <point x="705" y="125" type="line"/>
      <point x="541" y="174"/>
      <point x="410" y="234"/>
      <point x="286" y="298" type="curve"/>
      <point x="452" y="355"/>
      <point x="579" y="410"/>
      <point x="700" y="470" type="curve"/>
      <point x="675" y="595" type="line"/>
      <point x="541" y="522"/>
      <point x="357" y="436"/>
      <point x="139" y="359" type="curve"/>
    </contour>
  </outline>
</glyph>
<glyph name="greater" format="1">
  <advance width="833"/>
  <unicode hex="003E"/>
  <outline>
    <contour>
      <point x="705" y="359" type="line" name="hr00"/>
      <point x="540" y="454"/>
      <point x="365" y="537"/>
      <point x="154" y="595" type="curve"/>
      <point x="128" y="484" type="line"/>
      <point x="292" y="435"/>
      <point x="423" y="375"/>
      <point x="547" y="311" type="curve"/>
      <point x="381" y="254"/>
      <point x="254" y="199"/>
      <point x="133" y="139" type="curve"/>
      <point x="158" y="14" type="line"/>
      <point x="292" y="87"/>
      <point x="476" y="173"/>
      <point x="694" y="250" type="curve"/>
    </contour>
  </outline>
</glyph>
<glyph name="question" format="1">
  <advance width="419"/>
  <unicode hex="003F"/>
  <outline>
    <contour>
      <point x="86" y="481" type="line"/>
      <point x="145" y="539"/>
      <point x="198" y="580"/>
      <point x="234" y="580" type="curve" smooth="yes"/>
      <point x="264" y="580"/>
      <point x="279" y="558"/>
      <point x="279" y="536" type="curve" smooth="yes"/>
      <point x="279" y="495"/>
      <point x="227" y="447"/>
      <point x="178" y="391" type="curve" smooth="yes"/>
      <point x="128" y="334"/>
      <point x="95" y="292"/>
      <point x="95" y="250" type="curve" smooth="yes"/>
      <point x="95" y="224"/>
      <point x="108" y="209"/>
      <point x="127" y="196" type="curve"/>
      <point x="212" y="186" type="line"/>
      <point x="209" y="196"/>
      <point x="207" y="206"/>
      <point x="207" y="217" type="curve" smooth="yes"/>
      <point x="207" y="238"/>
      <point x="216" y="265"/>
      <point x="252" y="303" type="curve" smooth="yes"/>
      <point x="327" y="383"/>
      <point x="399" y="448"/>
      <point x="399" y="526" type="curve" smooth="yes"/>
      <point x="399" y="621"/>
      <point x="341" y="700"/>
      <point x="234" y="700" type="curve" smooth="yes"/>
      <point x="152" y="700"/>
      <point x="71" y="643"/>
      <point x="-6" y="561" type="curve"/>
    </contour>
    <contour>
      <point x="103" y="146" type="line"/>
      <point x="104" y="132"/>
      <point x="105" y="118"/>
      <point x="105" y="106" type="curve" smooth="yes"/>
      <point x="105" y="67"/>
      <point x="105" y="37"/>
      <point x="95" y="0" type="curve"/>
      <point x="214" y="-23" type="line"/>
      <point x="224" y="0"/>
      <point x="230" y="37"/>
      <point x="230" y="70" type="curve" smooth="yes" name="hr01"/>
      <point x="230" y="94"/>
      <point x="230" y="114"/>
      <point x="219" y="134" type="curve"/>
    </contour>
  </outline>
</glyph>
<glyph name="C" format="1">
  <advance width="482"/>
  <unicode hex="0043"/>
  <outline>
    <contour>
      <point x="451" y="384" type="line" name="hr00"/>
      <point x="448" y="524"/>
      <point x="439" y="703"/>
      <point x="278" y="703" type="curve" smooth="yes"/>
      <point x="96" y="703"/>
      <point x="26" y="432"/>
      <point x="26" y="259" type="curve" smooth="yes"/>
      <point x="26" y="99"/>
      <point x="101" y="-30"/>
      <point x="251" y="-30" type="curve" smooth="yes"/>
      <point x="380" y="-30"/>
      <point x="440" y="71"/>
      <point x="472" y="223" type="curve"/>
      <point x="345" y="233" type="line"/>
      <point x="327" y="168"/>
      <point x="306" y="98"/>
      <point x="251" y="98" type="curve" smooth="yes"/>
      <point x="187" y="98"/>
      <point x="159" y="167"/>
      <point x="159" y="269" type="curve" smooth="yes"/>
      <point x="159" y="368"/>
      <point x="204" y="575"/>
      <point x="269" y="575" type="curve" smooth="yes"/>
      <point x="320" y="575"/>
      <point x="322" y="468"/>
      <point x="322" y="396" type="curve"/>
    </contour>
  </outline>
</glyph>
<glyph name="D" format="1">
  <advance width="502"/>
  <unicode hex="0044"/>
  <outline>
    <contour>
      <point x="60" y="667" type="curve"/>
      <point x="65" y="572"/>
      <point x="69" y="482"/>
      <point x="69" y="376" type="curve" smooth="yes"/>
      <point x="69" y="260"/>
      <point x="63" y="122"/>
      <point x="55" y="-1" type="curve" name="hr01"/>
      <point x="97" y="-6"/>
      <point x="182" y="-15"/>
      <point x="191" y="-15" type="curve" smooth="yes"/>
      <point x="381" y="-15"/>
      <point x="482" y="191"/>
      <point x="482" y="386" type="curve" smooth="yes"/>
      <point x="482" y="548"/>
      <point x="403" y="701"/>
      <point x="238" y="701" type="curve" smooth="yes"/>
      <point x="182" y="701"/>
      <point x="117" y="687"/>
    </contour>
    <contour>
      <point x="353" y="365" type="curve" smooth="yes"/>
      <point x="353" y="234"/>
      <point x="275" y="107"/>
      <point x="216" y="107" type="curve" smooth="yes"/>
      <point x="208" y="107"/>
      <point x="201" y="109"/>
      <point x="196" y="115" type="curve"/>
      <point x="200" y="188"/>
      <point x="202" y="268"/>
      <point x="202" y="348" type="curve" smooth="yes"/>
      <point x="202" y="423"/>
      <point x="200" y="499"/>
      <point x="198" y="573" type="curve"/>
      <point x="214" y="579"/>
      <point x="228" y="581"/>
      <point x="243" y="581" type="curve" smooth="yes"/>
      <point x="301" y="581"/>
      <point x="353" y="493"/>
    </contour>
  </outline>
</glyph>
<glyph name="G" format="1">
  <advance width="498"/>
  <unicode hex="0047"/>
  <outline>
    <contour>
      <point x="450" y="387" type="line" name="hr00"/>
      <point x="456" y="419"/>
      <point x="459" y="449"/>
      <point x="459" y="476" type="curve" smooth="yes"/>
      <point x="459" y="649"/>
      <point x="344" y="703"/>
      <point x="268" y="703" type="curve" smooth="yes"/>
      <point x="127" y="703"/>
      <point x="40" y="497"/>
      <point x="40" y="282" type="curve" smooth="yes"/>
      <point x="40" y="80"/>
      <point x="133" y="-28"/>
      <point x="269" y="-28" type="curve" smooth="yes"/>
      <point x="397" y="-28"/>
      <point x="481" y="148"/>
      <point x="481" y="253" type="curve" smooth="yes"/>
      <point x="481" y="256"/>
      <point x="478" y="310"/>
      <point x="475" y="336" type="curve"/>
      <point x="399" y="327"/>
      <point x="326" y="319"/>
      <point x="247" y="314" type="curve"/>
      <point x="268" y="215" type="line"/>
      <point x="297" y="220"/>
      <point x="317" y="222"/>
      <point x="345" y="222" type="curve"/>
      <point x="333" y="138"/>
      <point x="312" y="80"/>
      <point x="254" y="80" type="curve" smooth="yes"/>
      <point x="204" y="80"/>
      <point x="177" y="162"/>
      <point x="177" y="306" type="curve" smooth="yes"/>
      <point x="177" y="438"/>
      <point x="232" y="585"/>
      <point x="278" y="585" type="curve" smooth="yes"/>
      <point x="320" y="585"/>
      <point x="337" y="518"/>
      <point x="337" y="454" type="curve" smooth="yes"/>
      <point x="337" y="433"/>
      <point x="336" y="412"/>
      <point x="333" y="397" type="curve"/>
    </contour>
  </outline>
</glyph>
<glyph name="H" format="1">
  <advance width="539"/>
  <unicode hex="0048"/>
  <outline>
    <contour>
      <point x="357" y="726" type="line"/>
      <point x="354" y="621"/>
      <point x="352" y="507"/>
      <point x="352" y="395" type="curve"/>
      <point x="202" y="386" type="line"/>
      <point x="202" y="423"/>
      <point x="201" y="464"/>
      <point x="201" y="501" type="curve" smooth="yes"/>
      <point x="201" y="561"/>
      <point x="203" y="621"/>
      <point x="207" y="680" type="curve"/>
      <point x="75" y="692" type="line"/>
      <point x="69" y="595"/>
      <point x="67" y="496"/>
      <point x="67" y="397" type="curve" smooth="yes"/>
      <point x="67" y="265"/>
      <point x="71" y="132"/>
      <point x="78" y="-2" type="curve"/>
      <point x="214" y="-14" type="line" name="hr01"/>
      <point x="210" y="83"/>
      <point x="207" y="178"/>
      <point x="205" y="275" type="curve"/>
      <point x="352" y="284" type="line"/>
      <point x="353" y="174"/>
      <point x="356" y="73"/>
      <point x="363" y="8" type="curve"/>
      <point x="491" y="-3" type="line"/>
      <point x="485" y="99"/>
      <point x="480" y="239"/>
      <point x="480" y="384" type="curve" smooth="yes"/>
      <point x="480" y="494"/>
      <point x="483" y="608"/>
      <point x="489" y="714" type="curve"/>
    </contour>
  </outline>
</glyph>
<glyph name="J" format="1">
  <advance width="410"/>
  <unicode hex="004A"/>
  <outline>
    <contour>
      <point x="10" y="241" type="line"/>
      <point x="5" y="218"/>
      <point x="2" y="196"/>
      <point x="2" y="174" type="curve" smooth="yes"/>
      <point x="2" y="62"/>
      <point x="73" y="-30"/>
      <point x="188" y="-30" type="curve" smooth="yes"/>
      <point x="321" y="-30"/>
      <point x="367" y="138"/>
      <point x="367" y="240" type="curve" smooth="yes"/>
      <point x="367" y="349"/>
      <point x="367" y="509"/>
      <point x="353" y="689" type="curve" name="hr01"/>
      <point x="212" y="701" type="line"/>
      <point x="226" y="521"/>
      <point x="230" y="349"/>
      <point x="230" y="240" type="curve" smooth="yes" name="hr02"/>
      <point x="230" y="184"/>
      <point x="218" y="92"/>
      <point x="173" y="92" type="curve" smooth="yes"/>
      <point x="144" y="92"/>
      <point x="124" y="133"/>
      <point x="124" y="186" type="curve" smooth="yes"/>
      <point x="124" y="199"/>
      <point x="125" y="214"/>
      <point x="128" y="229" type="curve"/>
    </contour>
  </outline>
</glyph>
<glyph name="L" format="1">
  <advance width="388"/>
  <unicode hex="004C"/>
  <outline>
    <contour>
      <point x="191" y="-3" type="line"/>
      <point x="280" y="11"/>
      <point x="341" y="20"/>
      <point x="403" y="27" type="curve"/>
      <point x="383" y="143" type="line"/>
      <point x="326" y="137"/>
      <point x="262" y="131"/>
      <point x="206" y="123" type="curve"/>
      <point x="201" y="197"/>
      <point x="201" y="272"/>
      <point x="201" y="345" type="curve" smooth="yes"/>
      <point x="201" y="455"/>
      <point x="206" y="568"/>
      <point x="216" y="683" type="curve"/>
      <point x="83" y="695" type="line"/>
      <point x="75" y="593"/>
      <point x="72" y="489"/>
      <point x="72" y="385" type="curve" smooth="yes"/>
      <point x="72" y="261"/>
      <point x="77" y="133"/>
      <point x="85" y="6" type="curve" name="hr01"/>
    </contour>
  </outline>
</glyph>
<glyph name="N" format="1">
  <advance width="544"/>
  <unicode hex="004E"/>
  <outline>
    <contour>
      <point x="171" y="-30" type="line"/>
      <point x="171" y="138"/>
      <point x="171" y="294"/>
      <point x="170" y="442" type="curve"/>
      <point x="246" y="306"/>
      <point x="316" y="144"/>
      <point x="381" y="3" type="curve"/>
      <point x="493" y="-8" type="line"/>
      <point x="497" y="58"/>
      <point x="501" y="164"/>
      <point x="501" y="239" type="curve" smooth="yes"/>
      <point x="501" y="401"/>
      <point x="500" y="560"/>
      <point x="500" y="704" type="curve"/>
      <point x="375" y="715" type="line"/>
      <point x="382" y="570"/>
      <point x="386" y="401"/>
      <point x="389" y="239" type="curve" name="hr01"/>
      <point x="320" y="363"/>
      <point x="265" y="505"/>
      <point x="211" y="654" type="curve"/>
      <point x="78" y="667" type="line"/>
      <point x="64" y="500"/>
      <point x="51" y="296"/>
      <point x="51" y="103" type="curve" smooth="yes"/>
      <point x="51" y="63"/>
      <point x="52" y="24"/>
      <point x="54" y="-17" type="curve"/>
    </contour>
  </outline>
</glyph>
<glyph name="P" format="1">
  <advance width="465"/>
  <unicode hex="0050"/>
  <outline>
    <contour>
      <point x="205" y="-30" type="line" name="hr00"/>
      <point x="203" y="49"/>
      <point x="202" y="128"/>
      <point x="202" y="200" type="curve"/>
      <point x="358" y="244"/>
      <point x="475" y="343"/>
      <point x="475" y="473" type="curve" smooth="yes"/>
      <point x="475" y="621"/>
      <point x="357" y="709"/>
      <point x="249" y="709" type="curve" smooth="yes"/>
      <point x="191" y="709"/>
      <point x="132" y="699"/>
      <point x="75" y="678" type="curve"/>
      <point x="69" y="519"/>
      <point x="65" y="376"/>
      <point x="65" y="224" type="curve" smooth="yes"/>
      <point x="65" y="149"/>
      <point x="66" y="68"/>
      <point x="69" y="-17" type="curve"/>
    </contour>
    <contour>
      <point x="208" y="587" type="curve"/>
      <point x="221" y="589"/>
      <point x="233" y="592"/>
      <point x="249" y="592" type="curve" smooth="yes"/>
      <point x="292" y="592"/>
      <point x="338" y="547"/>
      <point x="338" y="473" type="curve" smooth="yes"/>
      <point x="338" y="403"/>
      <point x="286" y="341"/>
      <point x="202" y="314" type="curve"/>
      <point x="203" y="405"/>
      <point x="205" y="494"/>
    </contour>
  </outline>
</glyph>
<glyph name="R" format="1">
  <advance width="525"/>
  <unicode hex="0052"/>
  <outline>
    <contour>
      <point x="198" y="-24" type="line"/>
      <point x="202" y="71"/>
      <point x="205" y="172"/>
      <point x="207" y="265" type="curve"/>
      <point x="294" y="150"/>
      <point x="373" y="45"/>
      <point x="433" y="-45" type="curve"/>
      <point x="529" y="26" type="line"/>
      <point x="470" y="111"/>
      <point x="406" y="198"/>
      <point x="343" y="277" type="curve"/>
      <point x="432" y="335"/>
      <point x="510" y="414"/>
      <point x="510" y="504" type="curve" smooth="yes"/>
      <point x="510" y="646"/>
      <point x="413" y="718"/>
      <point x="303" y="718" type="curve" smooth="yes"/>
      <point x="230" y="718"/>
      <point x="146" y="700"/>
      <point x="74" y="666" type="curve"/>
      <point x="75" y="607"/>
      <point x="75" y="548"/>
      <point x="75" y="489" type="curve" smooth="yes" name="hr01"/>
      <point x="75" y="323"/>
      <point x="71" y="157"/>
      <point x="62" y="-9" type="curve" name="hr02"/>
    </contour>
    <contour>
      <point x="211" y="584" type="curve" name="hr03"/>
      <point x="245" y="596"/>
      <point x="275" y="601"/>
      <point x="303" y="601" type="curve" smooth="yes"/>
      <point x="347" y="601"/>
      <point x="388" y="574"/>
      <point x="388" y="509" type="curve" smooth="yes"/>
      <point x="388" y="459"/>
      <point x="310" y="380"/>
      <point x="210" y="333" type="curve"/>
      <point x="211" y="415"/>
      <point x="211" y="501"/>
    </contour>
  </outline>
</glyph>
<glyph name="S" format="1">
  <advance width="475"/>
  <unicode hex="0053"/>
  <outline>
    <contour>
      <point x="426" y="396" type="line" name="hr00"/>
      <point x="446" y="434"/>
      <point x="452" y="484"/>
      <point x="452" y="509" type="curve" smooth="yes"/>
      <point x="452" y="599"/>
      <point x="373" y="712"/>
      <point x="251" y="712" type="curve" smooth="yes"/>
      <point x="146" y="712"/>
      <point x="47" y="627"/>
      <point x="47" y="501" type="curve" smooth="yes"/>
      <point x="47" y="387"/>
      <point x="129" y="327"/>
      <point x="214" y="268" type="curve" smooth="yes"/>
      <point x="261" y="236"/>
      <point x="308" y="199"/>
      <point x="308" y="148" type="curve" smooth="yes"/>
      <point x="308" y="102"/>
      <point x="271" y="85"/>
      <point x="243" y="85" type="curve" smooth="yes"/>
      <point x="187" y="85"/>
      <point x="139" y="156"/>
      <point x="112" y="228" type="curve"/>
      <point x="15" y="181" type="line"/>
      <point x="53" y="95"/>
      <point x="120" y="-32"/>
      <point x="247" y="-32" type="curve" smooth="yes"/>
      <point x="340" y="-32"/>
      <point x="444" y="37"/>
      <point x="444" y="165" type="curve" smooth="yes"/>
      <point x="444" y="270"/>
      <point x="374" y="314"/>
      <point x="264" y="383" type="curve" smooth="yes"/>
      <point x="216" y="413"/>
      <point x="184" y="454"/>
      <point x="184" y="503" type="curve" smooth="yes"/>
      <point x="184" y="548"/>
      <point x="210" y="595"/>
      <point x="253" y="595" type="curve" smooth="yes"/>
      <point x="286" y="595"/>
      <point x="315" y="567"/>
      <point x="315" y="515" type="curve" smooth="yes"/>
      <point x="315" y="494"/>
      <point x="310" y="467"/>
      <point x="302" y="437" type="curve"/>
    </contour>
  </outline>
</glyph>
<glyph name="W" format="1">
  <advance width="663"/>
  <unicode hex="0057"/>
  <outline>
    <contour>
      <point x="299" y="626" type="line" name="hr00"/>
      <point x="282" y="489"/>
      <point x="253" y="354"/>
      <point x="224" y="220" type="curve"/>
      <point x="219" y="219" type="line"/>
      <point x="198" y="398"/>
      <point x="180" y="562"/>
      <point x="169" y="681" type="curve"/>
      <point x="40" y="692" type="line"/>
      <point x="67" y="456"/>
      <point x="110" y="229"/>
      <point x="155" y="4" type="curve"/>
      <point x="251" y="-4" type="line"/>
      <point x="283" y="98"/>
      <point x="309" y="211"/>
      <point x="333" y="325" type="curve"/>
      <point x="355" y="224"/>
      <point x="379" y="119"/>
      <point x="409" y="16" type="curve"/>
      <point x="505" y="8" type="line"/>
      <point x="570" y="219"/>
      <point x="633" y="477"/>
      <point x="669" y="688" type="curve"/>
      <point x="538" y="699" type="line"/>
      <point x="519" y="542"/>
      <point x="482" y="375"/>
      <point x="446" y="220" type="curve"/>
      <point x="441" y="219" type="line"/>
      <point x="425" y="372"/>
      <point x="407" y="515"/>
      <point x="399" y="617" type="curve"/>
    </contour>
  </outline>
</glyph>
<glyph name="Z" format="1">
  <advance width="458"/>
  <unicode hex="005A"/>
  <outline>
    <contour>
      <point x="55" y="-15" type="line" name="hr00"/>
      <point x="145" y="0"/>
      <point x="200" y="7"/>
      <point x="232" y="7" type="curve" smooth="yes"/>
      <point x="294" y="7"/>
      <point x="363" y="0"/>
      <point x="423" y="-8" type="curve"/>
      <point x="440" y="111" type="line"/>
      <point x="387" y="119"/>
      <point x="327" y="125"/>
      <point x="266" y="125" type="curve" smooth="yes"/>
      <point x="242" y="125"/>
      <point x="217" y="124"/>
      <point x="193" y="122" type="curve"/>
      <point x="293" y="279"/>
      <point x="375" y="427"/>
      <point x="465" y="598" type="curve"/>
      <point x="448" y="685" type="line"/>
      <point x="279" y="683"/>
      <point x="131" y="672"/>
      <point x="55" y="656" type="curve"/>
      <point x="74" y="539" type="line"/>
      <point x="141" y="549"/>
      <point x="224" y="557"/>
      <point x="315" y="562" type="curve"/>
      <point x="228" y="392"/>
      <point x="148" y="264"/>
      <point x="39" y="90" type="curve"/>
    </contour>
  </outline>
</glyph>
<glyph name="bracketleft" format="1">
  <advance width="373"/>
  <unicode hex="005B"/>
  <outline>
    <contour>
      <point x="180" y="-238" type="line"/>
      <point x="249" y="-235"/>
      <point x="323" y="-224"/>
      <point x="372" y="-210" type="curve"/>
      <point x="366" y="-112" type="line"/>
      <point x="319" y="-112"/>
      <point x="255" y="-121"/>
      <point x="209" y="-121" type="curve"/>
      <point x="203" y="-45"/>
      <point x="197" y="52"/>
      <point x="197" y="136" type="curve" smooth="yes"/>
      <point x="197" y="273"/>
      <point x="202" y="434"/>
      <point x="213" y="616" type="curve" name="hr01"/>
      <point x="230" y="617"/>
      <point x="245" y="619"/>
      <point x="261" y="619" type="curve" smooth="yes"/>
      <point x="312" y="619"/>
      <point x="353" y="617"/>
      <point x="379" y="615" type="curve"/>
      <point x="349" y="715" type="line"/>
      <point x="310" y="724"/>
      <point x="276" y="724"/>
      <point x="237" y="724" type="curve" smooth="yes"/>
      <point x="188" y="724"/>
      <point x="134" y="720"/>
      <point x="65" y="710" type="curve" name="hr02"/>
      <point x="73" y="585"/>
      <point x="77" y="374"/>
      <point x="77" y="276" type="curve" smooth="yes" name="hr03"/>
      <point x="77" y="172"/>
      <point x="70" y="-93"/>
      <point x="65" y="-227" type="curve" name="hr04"/>
    </contour>
  </outline>
</glyph>
<glyph name="bracketright" format="1">
  <advance width="373"/>
  <unicode hex="005D"/>
  <outline>
    <contour>
      <point x="214" y="724" type="line"/>
      <point x="145" y="721"/>
      <point x="71" y="710"/>
      <point x="22" y="696" type="curve"/>
      <point x="28" y="598" type="line"/>
      <point x="75" y="598"/>
      <point x="139" y="607"/>
      <point x="185" y="607" type="curve"/>
      <point x="191" y="531"/>
      <point x="197" y="434"/>
      <point x="197" y="350" type="curve" smooth="yes"/>
      <point x="197" y="213"/>
      <point x="192" y="52"/>
      <point x="181" y="-130" type="curve" name="hr01"/>
      <point x="164" y="-131"/>
      <point x="149" y="-133"/>
      <point x="133" y="-133" type="curve" smooth="yes"/>
      <point x="82" y="-133"/>
      <point x="41" y="-131"/>
      <point x="15" y="-129" type="curve"/>
      <point x="45" y="-229" type="line"/>
      <point x="84" y="-238"/>
      <point x="118" y="-238"/>
      <point x="157" y="-238" type="curve" smooth="yes"/>
      <point x="206" y="-238"/>
      <point x="260" y="-234"/>
      <point x="329" y="-224" type="curve" name="hr02"/>
      <point x="321" y="-99"/>
      <point x="317" y="112"/>
      <point x="317" y="210" type="curve" smooth="yes" name="hr03"/>
      <point x="317" y="314"/>
      <point x="324" y="579"/>
      <point x="329" y="713" type="curve" name="hr04"/>
    </contour>
  </outline>
</glyph>
<glyph name="a" format="1">
  <advance width="390"/>
  <unicode hex="0061"/>
  <outline>
    <contour>
      <point x="138" y="276" type="line"/>
      <point x="144.86521972" y="311.470301885"/>
      <point x="168.0" y="353.0"/>
      <point x="195" y="353" type="curve" smooth="yes"/>
      <point x="237.947368421" y="353.0"/>
      <point x="253" y="313"/>
      <point x="253" y="284" type="curve" smooth="yes"/>
      <point x="253" y="257" type="line"/>
      <point x="147" y="255"/>
      <point x="33.0" y="197.076433121"/>
      <point x="33" y="110" type="curve" smooth="yes"/>
      <point x="33" y="38"/>
      <point x="78" y="-10"/>
      <point x="153" y="-10" type="curve" smooth="yes"/>
      <point x="188.595505618" y="-10.0"/>
      <point x="234" y="1"/>
      <point x="262" y="17" type="curve"/>
      <point x="270" y="-15" type="line"/>
      <point x="334" y="-22" type="line" name="hr01"/>
      <point x="340.769216551" y="81.472310133"/>
      <point x="346.0" y="182.013245033"/>
      <point x="346" y="270" type="curve" smooth="yes" name="hr02"/>
      <point x="346.0" y="370.21978022"/>
      <point x="313.0" y="462.0"/>
      <point x="207" y="462" type="curve" smooth="yes"/>
      <point x="118.0" y="462.0"/>
      <point x="62.9246932341" y="372.796846152"/>
      <point x="46" y="285" type="curve"/>
    </contour>
    <contour>
      <point x="248" y="90" type="line"/>
      <point x="223" y="80"/>
      <point x="190.727272727" y="78.0"/>
      <point x="173" y="78" type="curve" smooth="yes"/>
      <point x="150" y="78"/>
      <point x="135" y="90"/>
      <point x="135" y="110" type="curve" smooth="yes"/>
      <point x="135.0" y="134.0"/>
      <point x="174" y="167"/>
      <point x="250" y="174" type="curve"/>
    </contour>
  </outline>
</glyph>
<glyph name="b" format="1">
  <advance width="431"/>
  <unicode hex="0062"/>
  <outline>
    <contour>
      <point x="74" y="733" type="line"/>
      <point x="67" y="603"/>
      <point x="63" y="499"/>
      <point x="63" y="365" type="curve" smooth="yes"/>
      <point x="63" y="231"/>
      <point x="63" y="124"/>
      <point x="69" y="4" type="curve"/>
      <point x="157" y="-5" type="line"/>
      <point x="156" y="8"/>
      <point x="155" y="21"/>
      <point x="155" y="35" type="curve"/>
      <point x="183" y="-3"/>
      <point x="221" y="-21"/>
      <point x="259" y="-21" type="curve" smooth="yes"/>
      <point x="350" y="-21"/>
      <point x="400" y="149"/>
      <point x="400" y="296" type="curve" smooth="yes"/>
      <point x="400" y="375"/>
      <point x="375" y="471"/>
      <point x="305" y="471" type="curve" smooth="yes"/>
      <point x="262" y="471"/>
      <point x="215" y="427"/>
      <point x="176" y="365" type="curve"/>
      <point x="176" y="497"/>
      <point x="180" y="592"/>
      <point x="188" y="723" type="curve" name="hr01"/>
    </contour>
    <contour>
      <point x="176" y="194" type="curve" name="hr02"/>
      <point x="210" y="304"/>
      <point x="235" y="341"/>
      <point x="259" y="341" type="curve" smooth="yes"/>
      <point x="285" y="341"/>
      <point x="288" y="304"/>
      <point x="288" y="252" type="curve" smooth="yes"/>
      <point x="288" y="185"/>
      <point x="261" y="86"/>
      <point x="225" y="86" type="curve" smooth="yes"/>
      <point x="200" y="86"/>
      <point x="192" y="95"/>
      <point x="177" y="116" type="curve"/>
      <point x="177" y="141"/>
      <point x="176" y="170"/>
    </contour>
  </outline>
</glyph>
<glyph name="c" format="1">
  <advance width="354"/>
  <unicode hex="0063"/>
  <outline>
    <contour>
      <point x="310" y="248" type="line" name="hr00"/>
      <point x="314" y="259"/>
      <point x="318.0" y="278.38"/>
      <point x="318" y="297" type="curve" smooth="yes"/>
      <point x="318.0" y="386.0"/>
      <point x="278.623853211" y="457.0"/>
      <point x="202" y="457" type="curve" smooth="yes"/>
      <point x="84" y="457"/>
      <point x="57" y="250"/>
      <point x="57" y="151" type="curve" smooth="yes"/>
      <point x="57" y="26"/>
      <point x="124.012987013" y="-21.0"/>
      <point x="186" y="-21" type="curve" smooth="yes"/>
      <point x="248.06918239" y="-21.0"/>
      <point x="297" y="39"/>
      <point x="325" y="136" type="curve"/>
      <point x="288" y="158" type="line"/>
      <point x="255" y="62"/>
      <point x="215.184466019" y="32.0"/>
      <point x="188" y="32" type="curve" smooth="yes"/>
      <point x="150" y="32"/>
      <point x="111.0" y="64.8666666667"/>
      <point x="111" y="151" type="curve" smooth="yes"/>
      <point x="111.0" y="232.877729258"/>
      <point x="129" y="401"/>
      <point x="203" y="401" type="curve" smooth="yes"/>
      <point x="241.409090909" y="401.0"/>
      <point x="268" y="340"/>
      <point x="268" y="298" type="curve" smooth="yes"/>
      <point x="268" y="277"/>
      <point x="266" y="261"/>
      <point x="265" y="253" type="curve"/>
    </contour>
  </outline>
</glyph>
<glyph name="d" format="1">
  <advance width="410"/>
  <unicode hex="0064"/>
  <outline>
    <contour>
      <point x="283" y="734" type="line"/>
      <point x="285" y="675"/>
      <point x="286" y="625"/>
      <point x="286" y="577" type="curve" smooth="yes"/>
      <point x="286" y="534"/>
      <point x="285" y="494"/>
      <point x="285" y="453" type="curve"/>
      <point x="247" y="471"/>
      <point x="203.884210526" y="477.0"/>
      <point x="155" y="477" type="curve" smooth="yes"/>
      <point x="84" y="477"/>
      <point x="26" y="303"/>
      <point x="26" y="185" type="curve" smooth="yes"/>
      <point x="26" y="81"/>
      <point x="53" y="2"/>
      <point x="163" y="2" type="curve" smooth="yes"/>
      <point x="212.161290323" y="2.0"/>
      <point x="262" y="30"/>
      <point x="291" y="88" type="curve"/>
      <point x="294" y="34"/>
      <point x="297" y="-6"/>
      <point x="297" y="-6" type="curve"/>
      <point x="326" y="-14" type="line" name="hr01"/>
      <point x="336" y="170"/>
      <point x="342" y="338"/>
      <point x="342" y="520" type="curve" smooth="yes" name="hr02"/>
      <point x="342" y="586"/>
      <point x="342" y="653"/>
      <point x="340" y="724" type="curve"/>
    </contour>
    <contour>
      <point x="287" y="264" type="line"/>
      <point x="261" y="168"/>
      <point x="201.706666667" y="110.0"/>
      <point x="177" y="110" type="curve" smooth="yes"/>
      <point x="150" y="110"/>
      <point x="143" y="142"/>
      <point x="143" y="185" type="curve" smooth="yes"/>
      <point x="143" y="263"/>
      <point x="168" y="379"/>
      <point x="204" y="379" type="curve" smooth="yes"/>
      <point x="231.102040816" y="379.0"/>
      <point x="264" y="378"/>
      <point x="288" y="360" type="curve"/>
    </contour>
  </outline>
</glyph>
<glyph name="e" format="1">
  <advance width="367"/>
  <unicode hex="0065"/>
  <outline>
    <contour>
      <point x="351" y="200" type="curve" name="hr00"/>
      <point x="350.036094717" y="273.256801514"/>
      <point x="352" y="457"/>
      <point x="206" y="457" type="curve" smooth="yes"/>
      <point x="67" y="457"/>
      <point x="25.0" y="293.0"/>
      <point x="25" y="177" type="curve" smooth="yes"/>
      <point x="25" y="51"/>
      <point x="94" y="-21"/>
      <point x="174" y="-21" type="curve" smooth="yes"/>
      <point x="266" y="-21"/>
      <point x="312" y="48"/>
      <point x="341" y="100" type="curve"/>
      <point x="265" y="145" type="line"/>
      <point x="246" y="113"/>
      <point x="218" y="72"/>
      <point x="184" y="72" type="curve" smooth="yes"/>
      <point x="165" y="72"/>
      <point x="148" y="105"/>
      <point x="144" y="160" type="curve"/>
      <point x="209" y="169"/>
      <point x="301" y="186"/>
    </contour>
    <contour>
      <point x="206" y="359" type="curve" smooth="yes"/>
      <point x="229" y="359"/>
      <point x="238.0" y="311.96"/>
      <point x="238" y="254" type="curve"/>
      <point x="208" y="246"/>
      <point x="176" y="239"/>
      <point x="146" y="233" type="curve"/>
      <point x="149.726854822" y="301.94681421"/>
      <point x="175" y="359"/>
    </contour>
  </outline>
</glyph>
<glyph name="f" format="1">
  <advance width="287"/>
  <unicode hex="0066"/>
  <outline>
    <contour>
      <point x="36" y="300" type="line"/>
      <point x="46" y="303"/>
      <point x="59" y="305"/>
      <point x="72" y="307" type="curve"/>
      <point x="73" y="231"/>
      <point x="75" y="171"/>
      <point x="77" y="102" type="curve" smooth="yes"/>
      <point x="78" y="70"/>
      <point x="81" y="36"/>
      <point x="83" y="-5" type="curve"/>
      <point x="200" y="-17" type="line"/>
      <point x="198" y="28"/>
      <point x="195" y="71"/>
      <point x="194" y="106" type="curve" smooth="yes"/>
      <point x="191" y="180"/>
      <point x="189" y="241"/>
      <point x="189" y="323" type="curve"/>
      <point x="228" y="328"/>
      <point x="266" y="328"/>
      <point x="297" y="328" type="curve" name="hr01"/>
      <point x="297" y="421" type="line"/>
      <point x="265" y="421"/>
      <point x="228" y="419"/>
      <point x="188" y="416" type="curve" name="hr02"/>
      <point x="188" y="445" type="line" smooth="yes"/>
      <point x="188" y="553"/>
      <point x="200" y="615"/>
      <point x="218" y="615" type="curve" smooth="yes"/>
      <point x="240" y="615"/>
      <point x="253" y="571"/>
      <point x="253" y="503" type="curve"/>
      <point x="346" y="493" type="line"/>
      <point x="346" y="641"/>
      <point x="301" y="735"/>
      <point x="218" y="735" type="curve" smooth="yes" name="hr03"/>
      <point x="131" y="735"/>
      <point x="71" y="628"/>
      <point x="71" y="445" type="curve" smooth="yes"/>
      <point x="71" y="401" type="line"/>
      <point x="49" y="397"/>
      <point x="30" y="394"/>
      <point x="15" y="390" type="curve"/>
    </contour>
  </outline>
</glyph>
<glyph name="g" format="1">
  <advance width="404"/>
  <unicode hex="0067"/>
  <outline>
    <contour>
      <point x="193" y="-134" type="curve" smooth="yes" name="hr00"/>
      <point x="150" y="-134"/>
      <point x="121" y="-95"/>
      <point x="102" y="-58" type="curve"/>
      <point x="18" y="-94" type="line"/>
      <point x="52" y="-162"/>
      <point x="118" y="-242"/>
      <point x="208" y="-242" type="curve" smooth="yes"/>
      <point x="336" y="-242"/>
      <point x="369" y="-20"/>
      <point x="369" y="148" type="curve" smooth="yes"/>
      <point x="369" y="289"/>
      <point x="375" y="378"/>
      <point x="382" y="413" type="curve"/>
      <point x="312" y="423" type="line"/>
      <point x="284" y="450"/>
      <point x="244" y="474"/>
      <point x="196" y="474" type="curve" smooth="yes"/>
      <point x="123" y="474"/>
      <point x="27" y="312"/>
      <point x="27" y="147" type="curve" smooth="yes"/>
      <point x="27" y="37"/>
      <point x="83" y="-8"/>
      <point x="150" y="-8" type="curve" smooth="yes"/>
      <point x="195" y="-8"/>
      <point x="231" y="31"/>
      <point x="262" y="87" type="curve"/>
      <point x="262" y="-35"/>
      <point x="235" y="-134"/>
    </contour>
    <contour>
      <point x="265" y="265" type="line"/>
      <point x="246" y="150"/>
      <point x="190" y="84"/>
      <point x="174" y="84" type="curve" smooth="yes"/>
      <point x="159" y="84"/>
      <point x="145" y="103"/>
      <point x="145" y="147" type="curve" smooth="yes"/>
      <point x="145" y="259"/>
      <point x="189" y="372"/>
      <point x="221" y="372" type="curve" smooth="yes"/>
      <point x="238" y="372"/>
      <point x="252" y="357"/>
      <point x="267" y="341" type="curve"/>
    </contour>
  </outline>
</glyph>
<glyph name="h" format="1">
  <advance width="425"/>
  <unicode hex="0068"/>
  <outline>
    <contour>
      <point x="56" y="721" type="line"/>
      <point x="61" y="629"/>
      <point x="63" y="526"/>
      <point x="63" y="417" type="curve" smooth="yes"/>
      <point x="63" y="267"/>
      <point x="59" y="115"/>
      <point x="50" y="-4" type="curve" name="hr01"/>
      <point x="167" y="-15" type="line"/>
      <point x="171" y="52"/>
      <point x="175" y="129"/>
      <point x="177" y="212" type="curve"/>
      <point x="197" y="288"/>
      <point x="223" y="352"/>
      <point x="246" y="352" type="curve" smooth="yes"/>
      <point x="273" y="352"/>
      <point x="273" y="318"/>
      <point x="273" y="299" type="curve" smooth="yes"/>
      <point x="273" y="227"/>
      <point x="271" y="115"/>
      <point x="266" y="10" type="curve"/>
      <point x="382" y="-1" type="line"/>
      <point x="390" y="114"/>
      <point x="393" y="226"/>
      <point x="393" y="302" type="curve" smooth="yes"/>
      <point x="393" y="357"/>
      <point x="363" y="464"/>
      <point x="275" y="464" type="curve" smooth="yes"/>
      <point x="241" y="464"/>
      <point x="209" y="442"/>
      <point x="181" y="407" type="curve"/>
      <point x="181" y="512"/>
      <point x="178" y="622"/>
      <point x="173" y="710" type="curve"/>
    </contour>
  </outline>
</glyph>
<glyph name="i" format="1">
  <advance width="236"/>
  <unicode hex="0069"/>
  <outline>
    <contour>
      <point x="99" y="476" type="line" name="hr00"/>
      <point x="99" y="-4" type="line"/>
      <point x="153" y="-14" type="line"/>
      <point x="153" y="466" type="line"/>
    </contour>
    <contour>
      <point x="107" y="653" type="line"/>
      <point x="102" y="565" type="line"/>
      <point x="154" y="551" type="line"/>
      <point x="159" y="640" type="line"/>
    </contour>
  </outline>
</glyph>
<glyph name="j" format="1">
  <advance width="252"/>
  <unicode hex="006A"/>
  <outline>
    <contour>
      <point x="116" y="443" type="line" name="hr00"/>
      <point x="120.791063449" y="307.892010726"/>
      <point x="121.0" y="68.4451345756"/>
      <point x="121" y="-15" type="curve" smooth="yes"/>
      <point x="121.0" y="-125.300884956"/>
      <point x="84" y="-179"/>
      <point x="47" y="-179" type="curve" smooth="yes"/>
      <point x="26" y="-179"/>
      <point x="9" y="-170"/>
      <point x="-11" y="-149" type="curve"/>
      <point x="-37" y="-184" type="line"/>
      <point x="-5" y="-224"/>
      <point x="26" y="-245"/>
      <point x="70" y="-245" type="curve" smooth="yes"/>
      <point x="122" y="-245"/>
      <point x="173.0" y="-167.0"/>
      <point x="173" y="-5" type="curve" smooth="yes"/>
      <point x="173.0" y="73.4502164502"/>
      <point x="171.654937373" y="308.779799005"/>
      <point x="164" y="437" type="curve"/>
    </contour>
    <contour>
      <point x="122" y="648" type="line"/>
      <point x="112" y="537" type="line"/>
      <point x="164" y="528" type="line"/>
      <point x="174" y="640" type="line"/>
    </contour>
  </outline>
</glyph>
<glyph name="k" format="1">
  <advance width="410"/>
  <unicode hex="006B"/>
  <outline>
    <contour>
      <point x="332" y="497" type="line"/>
      <point x="297" y="417"/>
      <point x="246" y="336"/>
      <point x="176" y="250" type="curve"/>
      <point x="176" y="415"/>
      <point x="182" y="575"/>
      <point x="191" y="722" type="curve" name="hr01"/>
      <point x="74" y="731" type="line"/>
      <point x="64" y="580"/>
      <point x="59" y="405"/>
      <point x="59" y="235" type="curve" smooth="yes" name="hr02"/>
      <point x="59" y="154"/>
      <point x="60" y="70"/>
      <point x="63" y="-8" type="curve"/>
      <point x="180" y="-19" type="line"/>
      <point x="177" y="44"/>
      <point x="176" y="110"/>
      <point x="176" y="176" type="curve"/>
      <point x="242" y="107"/>
      <point x="295" y="47"/>
      <point x="340" y="-23" type="curve"/>
      <point x="416" y="49" type="line"/>
      <point x="380" y="111"/>
      <point x="341" y="162"/>
      <point x="292" y="219" type="curve"/>
      <point x="340" y="285"/>
      <point x="381" y="355"/>
      <point x="412" y="427" type="curve"/>
    </contour>
  </outline>
</glyph>
<glyph name="l" format="1">
  <advance width="236"/>
  <unicode hex="006C"/>
  <outline>
    <contour>
      <point x="79" y="731" type="line"/>
      <point x="70" y="580"/>
      <point x="64" y="405"/>
      <point x="64" y="235" type="curve" smooth="yes" name="hr01"/>
      <point x="64" y="154"/>
      <point x="65" y="70"/>
      <point x="68" y="-8" type="curve"/>
      <point x="186" y="-19" type="line"/>
      <point x="181" y="63"/>
      <point x="181" y="150"/>
      <point x="181" y="235" type="curve" smooth="yes"/>
      <point x="181" y="405"/>
      <point x="187" y="570"/>
      <point x="196" y="722" type="curve" name="hr02"/>
    </contour>
  </outline>
</glyph>
<glyph name="m" format="1">
  <advance width="647"/>
  <unicode hex="006D"/>
  <outline>
    <contour>
      <point x="66" y="467" type="line"/>
      <point x="62" y="400"/>
      <point x="60" y="331"/>
      <point x="60" y="264" type="curve" smooth="yes"/>
      <point x="60" y="174"/>
      <point x="64" y="83"/>
      <point x="71" y="-7" type="curve"/>
      <point x="188" y="-18" type="line"/>
      <point x="183" y="47"/>
      <point x="180" y="110"/>
      <point x="179" y="172" type="curve"/>
      <point x="194" y="255"/>
      <point x="236" y="344"/>
      <point x="257" y="344" type="curve" smooth="yes"/>
      <point x="277" y="344"/>
      <point x="282" y="293"/>
      <point x="282" y="251" type="curve" smooth="yes"/>
      <point x="282" y="180"/>
      <point x="279" y="109"/>
      <point x="274" y="21" type="curve"/>
      <point x="391" y="10" type="line"/>
      <point x="396" y="90"/>
      <point x="398" y="166"/>
      <point x="399" y="233" type="curve"/>
      <point x="407" y="311"/>
      <point x="440" y="378"/>
      <point x="457" y="378" type="curve" smooth="yes" name="hr01"/>
      <point x="483" y="378"/>
      <point x="489" y="328"/>
      <point x="489" y="286" type="curve" smooth="yes"/>
      <point x="489" y="196"/>
      <point x="481" y="103"/>
      <point x="470" y="-5" type="curve"/>
      <point x="586" y="-15" type="line"/>
      <point x="599" y="94"/>
      <point x="606" y="187"/>
      <point x="606" y="271" type="curve" smooth="yes"/>
      <point x="606" y="368"/>
      <point x="585" y="480"/>
      <point x="467" y="480" type="curve" smooth="yes"/>
      <point x="428" y="480"/>
      <point x="393" y="446"/>
      <point x="364" y="404" type="curve"/>
      <point x="344" y="430"/>
      <point x="314" y="446"/>
      <point x="271" y="446" type="curve" smooth="yes" name="hr02"/>
      <point x="232" y="446"/>
      <point x="198" y="413"/>
      <point x="166" y="363" type="curve"/>
      <point x="161" y="395"/>
      <point x="156" y="429"/>
      <point x="149" y="461" type="curve"/>
    </contour>
  </outline>
</glyph>
<glyph name="n" format="1">
  <advance width="424"/>
  <unicode hex="006E"/>
  <outline>
    <contour>
      <point x="81" y="433" type="line" name="hr00"/>
      <point x="77" y="376"/>
      <point x="75" y="321"/>
      <point x="75" y="264" type="curve" smooth="yes"/>
      <point x="75" y="174"/>
      <point x="79" y="83"/>
      <point x="86" y="-7" type="curve"/>
      <point x="143" y="-18" type="line"/>
      <point x="140" y="33"/>
      <point x="137" y="82"/>
      <point x="135" y="130" type="curve"/>
      <point x="144.0286459" y="249.62955818"/>
      <point x="209" y="408"/>
      <point x="237" y="408" type="curve" smooth="yes"/>
      <point x="287" y="408"/>
      <point x="300.0" y="313.198473282"/>
      <point x="300" y="237" type="curve" smooth="yes"/>
      <point x="300" y="170"/>
      <point x="297" y="104"/>
      <point x="289" y="21" type="curve"/>
      <point x="346" y="10" type="line"/>
      <point x="355" y="100"/>
      <point x="359" y="184"/>
      <point x="359" y="256" type="curve" smooth="yes"/>
      <point x="359.0" y="358.0"/>
      <point x="343.545454545" y="476.0"/>
      <point x="257" y="476" type="curve" smooth="yes"/>
      <point x="201.717948718" y="476.0"/>
      <point x="144.857019871" y="429.714039743"/>
      <point x="110" y="360" type="curve"/>
      <point x="105.120674156" y="380.493168547"/>
      <point x="108.94270071" y="403.315146095"/>
      <point x="105" y="425" type="curve"/>
    </contour>
  </outline>
</glyph>
<glyph name="o" format="1">
  <advance width="368"/>
  <unicode hex="006F"/>
  <outline>
    <contour>
      <point x="101" y="170" type="curve" smooth="yes" name="hr00"/>
      <point x="101" y="245"/>
      <point x="134.0" y="400.0"/>
      <point x="201" y="400" type="curve" smooth="yes"/>
      <point x="266.0" y="400.0"/>
      <point x="283" y="311"/>
      <point x="283" y="252" type="curve" smooth="yes"/>
      <point x="283" y="152"/>
      <point x="245.975609756" y="27.0"/>
      <point x="191" y="27" type="curve" smooth="yes"/>
      <point x="146.0" y="27.0"/>
      <point x="101" y="47"/>
    </contour>
    <contour>
      <point x="44" y="179" type="curve" smooth="yes"/>
      <point x="44" y="7"/>
      <point x="115.299401198" y="-26.0"/>
      <point x="191" y="-26" type="curve" smooth="yes"/>
      <point x="292.390532544" y="-26.0"/>
      <point x="340" y="112"/>
      <point x="340" y="242" type="curve" smooth="yes"/>
      <point x="340" y="328"/>
      <point x="309.0" y="453.0"/>
      <point x="201" y="453" type="curve" smooth="yes"/>
      <point x="85.0" y="453.0"/>
      <point x="44" y="279"/>
    </contour>
  </outline>
</glyph>
<glyph name="p" format="1">
  <advance width="410"/>
  <unicode hex="0070"/>
  <outline>
    <contour>
      <point x="71" y="499" type="line" name="hr00"/>
      <point x="61" y="394"/>
      <point x="57" y="253"/>
      <point x="57" y="105" type="curve" smooth="yes"/>
      <point x="57" y="-7"/>
      <point x="59" y="-125"/>
      <point x="62" y="-233" type="curve"/>
      <point x="179" y="-245" type="line"/>
      <point x="175" y="-168"/>
      <point x="173" y="-87"/>
      <point x="172" y="-4" type="curve"/>
      <point x="192" y="-11"/>
      <point x="215" y="-14"/>
      <point x="241" y="-14" type="curve" smooth="yes"/>
      <point x="314" y="-14"/>
      <point x="396" y="134"/>
      <point x="396" y="292" type="curve" smooth="yes"/>
      <point x="396" y="395"/>
      <point x="348" y="466"/>
      <point x="275" y="466" type="curve" smooth="yes"/>
      <point x="235" y="466"/>
      <point x="196" y="442"/>
      <point x="172" y="405" type="curve"/>
      <point x="175" y="488" type="line"/>
    </contour>
    <contour>
      <point x="173" y="267" type="curve"/>
      <point x="193" y="322"/>
      <point x="214" y="368"/>
      <point x="246" y="368" type="curve" smooth="yes"/>
      <point x="263" y="368"/>
      <point x="279" y="320"/>
      <point x="279" y="267" type="curve" smooth="yes"/>
      <point x="279" y="171"/>
      <point x="239" y="86"/>
      <point x="202" y="86" type="curve" smooth="yes"/>
      <point x="190" y="86"/>
      <point x="180" y="96"/>
      <point x="172" y="107" type="curve"/>
      <point x="172" y="159"/>
      <point x="172" y="215"/>
    </contour>
  </outline>
</glyph>
<glyph name="q" format="1">
  <advance width="402"/>
  <unicode hex="0071"/>
  <outline>
    <contour>
      <point x="305" y="449" type="line" name="hr00"/>
      <point x="302" y="429"/>
      <point x="298" y="414"/>
      <point x="294" y="400" type="curve"/>
      <point x="261" y="446"/>
      <point x="223" y="475"/>
      <point x="179" y="475" type="curve" smooth="yes"/>
      <point x="85" y="475"/>
      <point x="28" y="328"/>
      <point x="28" y="173" type="curve" smooth="yes"/>
      <point x="28" y="61"/>
      <point x="90" y="-14"/>
      <point x="165" y="-14" type="curve" smooth="yes"/>
      <point x="192" y="-14"/>
      <point x="216" y="-2"/>
      <point x="238" y="15" type="curve"/>
      <point x="238" y="-73"/>
      <point x="240" y="-162"/>
      <point x="244" y="-228" type="curve"/>
      <point x="361" y="-239" type="line"/>
      <point x="357" y="-168"/>
      <point x="355" y="-79"/>
      <point x="355" y="14" type="curve" smooth="yes"/>
      <point x="355" y="179"/>
      <point x="361" y="355"/>
      <point x="373" y="442" type="curve"/>
    </contour>
    <contour>
      <point x="180" y="79" type="curve" smooth="yes"/>
      <point x="160" y="79"/>
      <point x="145" y="126"/>
      <point x="145" y="197" type="curve" smooth="yes"/>
      <point x="145" y="260"/>
      <point x="169" y="373"/>
      <point x="204" y="373" type="curve" smooth="yes"/>
      <point x="222" y="373"/>
      <point x="241" y="353"/>
      <point x="248" y="323" type="curve"/>
      <point x="245" y="276"/>
      <point x="242" y="222"/>
      <point x="240" y="162" type="curve"/>
      <point x="229" y="129"/>
      <point x="205" y="79"/>
    </contour>
  </outline>
</glyph>
<glyph name="r" format="1">
  <advance width="301"/>
  <unicode hex="0072"/>
  <outline>
    <contour>
      <point x="305" y="442" type="line" name="hr00"/>
      <point x="288" y="462"/>
      <point x="262" y="478"/>
      <point x="233" y="478" type="curve" smooth="yes"/>
      <point x="200" y="478"/>
      <point x="164" y="437"/>
      <point x="134" y="373" type="curve"/>
      <point x="128" y="388"/>
      <point x="123" y="404"/>
      <point x="118" y="424" type="curve"/>
      <point x="43" y="432" type="line"/>
      <point x="57" y="356"/>
      <point x="61" y="255"/>
      <point x="61" y="149" type="curve" smooth="yes"/>
      <point x="61" y="84"/>
      <point x="59" y="36"/>
      <point x="58" y="-13" type="curve"/>
      <point x="174" y="-23" type="line"/>
      <point x="177" y="37"/>
      <point x="178" y="93"/>
      <point x="178" y="149" type="curve" smooth="yes"/>
      <point x="178" y="185"/>
      <point x="177" y="220"/>
      <point x="176" y="255" type="curve"/>
      <point x="188" y="317"/>
      <point x="208" y="361"/>
      <point x="239" y="361" type="curve" smooth="yes"/>
      <point x="255" y="361"/>
      <point x="269" y="357"/>
      <point x="279" y="350" type="curve"/>
    </contour>
  </outline>
</glyph>
<glyph name="s" format="1">
  <advance width="347"/>
  <unicode hex="0073"/>
  <outline>
    <contour>
      <point x="234" y="277" type="curve"/>
      <point x="325" y="269" type="line"/>
      <point x="329" y="290"/>
      <point x="331" y="309"/>
      <point x="331" y="327" type="curve" smooth="yes"/>
      <point x="331" y="417"/>
      <point x="283" y="473"/>
      <point x="207" y="473" type="curve" smooth="yes"/>
      <point x="133" y="473"/>
      <point x="49" y="400"/>
      <point x="49" y="311" type="curve" smooth="yes"/>
      <point x="49" y="228"/>
      <point x="101" y="191"/>
      <point x="154" y="162" type="curve" smooth="yes"/>
      <point x="180" y="147"/>
      <point x="200" y="125"/>
      <point x="200" y="103" type="curve" smooth="yes"/>
      <point x="200" y="82"/>
      <point x="181" y="71"/>
      <point x="163" y="71" type="curve" smooth="yes"/>
      <point x="131" y="71"/>
      <point x="100" y="104"/>
      <point x="79" y="140" type="curve"/>
      <point x="25" y="79" type="line"/>
      <point x="57" y="26"/>
      <point x="115" y="-21"/>
      <point x="187" y="-21" type="curve" smooth="yes"/>
      <point x="254" y="-21"/>
      <point x="327" y="23"/>
      <point x="327" y="110" type="curve" smooth="yes"/>
      <point x="327" y="182"/>
      <point x="257" y="223"/>
      <point x="216" y="246" type="curve"/>
      <point x="176" y="272"/>
      <point x="167" y="287"/>
      <point x="167" y="326" type="curve" smooth="yes"/>
      <point x="167" y="354"/>
      <point x="187" y="375"/>
      <point x="207" y="375" type="curve" smooth="yes"/>
      <point x="221" y="375"/>
      <point x="237" y="360"/>
      <point x="237" y="315" type="curve" smooth="yes" name="hr01"/>
      <point x="237" y="305"/>
      <point x="236" y="292"/>
    </contour>
  </outline>
</glyph>
<glyph name="t" format="1">
  <advance width="287"/>
  <unicode hex="0074"/>
  <outline>
    <contour>
      <point x="66" y="329" type="line"/>
      <point x="83" y="331"/>
      <point x="103" y="334"/>
      <point x="123" y="334" type="curve"/>
      <point x="120.875828715" y="232.039778341"/>
      <point x="120.0" y="120.384858044"/>
      <point x="120" y="-8" type="curve"/>
      <point x="178" y="-14" type="line"/>
      <point x="178.0" y="122.678571429"/>
      <point x="177.821584635" y="236.052821155"/>
      <point x="181" y="342" type="curve"/>
      <point x="207" y="343"/>
      <point x="232" y="343"/>
      <point x="255" y="343" type="curve" name="hr01"/>
      <point x="255" y="398" type="line"/>
      <point x="233" y="398"/>
      <point x="209" y="398"/>
      <point x="184" y="397" type="curve"/>
      <point x="186.104086259" y="464.330760283"/>
      <point x="189" y="520"/>
      <point x="193" y="589" type="curve" name="hr02"/>
      <point x="134" y="595" type="line"/>
      <point x="131" y="522"/>
      <point x="128.094727672" y="459.410196202"/>
      <point x="126" y="384" type="curve"/>
      <point x="99" y="380"/>
      <point x="73" y="376"/>
      <point x="51" y="371" type="curve"/>
    </contour>
  </outline>
</glyph>
<glyph name="u" format="1">
  <advance width="420"/>
  <unicode hex="0075"/>
  <outline>
    <contour>
      <point x="272" y="479" type="line"/>
      <point x="271" y="428"/>
      <point x="269" y="368"/>
      <point x="269" y="311" type="curve" smooth="yes"/>
      <point x="269" y="289"/>
      <point x="269" y="266"/>
      <point x="270" y="244" type="curve"/>
      <point x="252" y="164"/>
      <point x="209" y="104"/>
      <point x="189" y="104" type="curve" smooth="yes"/>
      <point x="146.375" y="104.0"/>
      <point x="127.0" y="124.0"/>
      <point x="127" y="155" type="curve" smooth="yes"/>
      <point x="127" y="267"/>
      <point x="135" y="344"/>
      <point x="145" y="439" type="curve"/>
      <point x="89" y="450" type="line"/>
      <point x="78" y="346"/>
      <point x="70" y="259"/>
      <point x="70" y="140" type="curve" smooth="yes"/>
      <point x="70.0" y="50.0"/>
      <point x="105.72" y="-3.0"/>
      <point x="165" y="-3" type="curve" smooth="yes"/>
      <point x="201" y="-3"/>
      <point x="248" y="28"/>
      <point x="282" y="78" type="curve"/>
      <point x="289" y="47"/>
      <point x="293" y="18"/>
      <point x="295" y="-7" type="curve"/>
      <point x="384" y="-17" type="line" name="hr01"/>
      <point x="378" y="62"/>
      <point x="376" y="190"/>
      <point x="376" y="311" type="curve" smooth="yes"/>
      <point x="376" y="368"/>
      <point x="378" y="418"/>
      <point x="378" y="469" type="curve"/>
    </contour>
  </outline>
</glyph>
<glyph name="v" format="1">
  <advance width="366"/>
  <unicode hex="0076"/>
  <outline>
    <contour>
      <point x="238" y="-16" type="line" name="hr00"/>
      <point x="312" y="207"/>
      <point x="345" y="348"/>
      <point x="376" y="491" type="curve"/>
      <point x="268" y="500" type="line"/>
      <point x="240" y="363"/>
      <point x="214" y="245"/>
      <point x="181" y="123" type="curve"/>
      <point x="159" y="229"/>
      <point x="145" y="332"/>
      <point x="134" y="453" type="curve"/>
      <point x="20" y="463" type="line"/>
      <point x="32" y="338"/>
      <point x="63" y="186"/>
      <point x="110" y="-4" type="curve"/>
    </contour>
  </outline>
</glyph>
<glyph name="w" format="1">
  <advance width="516"/>
  <unicode hex="0077"/>
  <outline>
    <contour>
      <point x="399" y="-12" type="line" name="hr00"/>
      <point x="455" y="171"/>
      <point x="502" y="346"/>
      <point x="532" y="489" type="curve"/>
      <point x="424" y="499" type="line"/>
      <point x="399" y="370"/>
      <point x="376" y="258"/>
      <point x="347" y="143" type="curve"/>
      <point x="329" y="239"/>
      <point x="318" y="330"/>
      <point x="310" y="437" type="curve"/>
      <point x="233" y="444" type="line"/>
      <point x="210" y="327"/>
      <point x="188" y="225"/>
      <point x="161" y="118" type="curve"/>
      <point x="146" y="226"/>
      <point x="138" y="329"/>
      <point x="129" y="452" type="curve"/>
      <point x="15" y="463" type="line"/>
      <point x="25" y="338"/>
      <point x="51" y="185"/>
      <point x="90" y="-4" type="curve"/>
      <point x="194" y="-15" type="line"/>
      <point x="221" y="68"/>
      <point x="242" y="136"/>
      <point x="260" y="200" type="curve"/>
      <point x="273" y="137"/>
      <point x="288" y="69"/>
      <point x="305" y="-4" type="curve"/>
    </contour>
  </outline>
</glyph>
<glyph name="x" format="1">
  <advance width="368"/>
  <unicode hex="0078"/>
  <outline>
    <contour>
      <point x="113" y="-29" type="line" name="hr00"/>
      <point x="134" y="37"/>
      <point x="157" y="88"/>
      <point x="179" y="140" type="curve"/>
      <point x="208" y="79"/>
      <point x="241" y="26"/>
      <point x="278" y="-22" type="curve"/>
      <point x="353" y="49" type="line"/>
      <point x="298" y="114"/>
      <point x="268" y="169"/>
      <point x="241" y="232" type="curve"/>
      <point x="292.518029388" y="299.070642033"/>
      <point x="343" y="370"/>
      <point x="364" y="435" type="curve"/>
      <point x="278" y="477" type="line"/>
      <point x="261" y="425"/>
      <point x="225.558267032" y="374.717256134"/>
      <point x="191" y="320" type="curve"/>
      <point x="175.034077292" y="363.201908505"/>
      <point x="158" y="401"/>
      <point x="150" y="444" type="curve"/>
      <point x="39" y="455" type="line"/>
      <point x="52" y="379"/>
      <point x="84.2473311623" y="299.69243735"/>
      <point x="123" y="228" type="curve"/>
      <point x="79" y="154"/>
      <point x="43" y="87"/>
      <point x="7" y="2" type="curve"/>
    </contour>
  </outline>
</glyph>
<glyph name="y" format="1">
  <advance width="376"/>
  <unicode hex="0079"/>
  <outline>
    <contour>
      <point x="309" y="466" type="line" name="hr00"/>
      <point x="273.540516449" y="344.751443342"/>
      <point x="236" y="223"/>
      <point x="204" y="76" type="curve"/>
      <point x="162" y="172"/>
      <point x="127.730632993" y="302.256891995"/>
      <point x="117" y="432" type="curve"/>
      <point x="61" y="435" type="line"/>
      <point x="74" y="287"/>
      <point x="112.610623042" y="136.733608761"/>
      <point x="182" y="6" type="curve"/>
      <point x="164" y="-73"/>
      <point x="146.992329416" y="-144.045475606"/>
      <point x="133" y="-227" type="curve"/>
      <point x="190" y="-235" type="line"/>
      <point x="242" y="15"/>
      <point x="301" y="263"/>
      <point x="361" y="448" type="curve"/>
    </contour>
  </outline>
</glyph>
<glyph name="z" format="1">
  <advance width="344"/>
  <unicode hex="007A"/>
  <outline>
    <contour>
      <point x="62" y="-4" type="line"/>
      <point x="129" y="7"/>
      <point x="173" y="11"/>
      <point x="200" y="11" type="curve" smooth="yes" name="hr01"/>
      <point x="244" y="11"/>
      <point x="284" y="8"/>
      <point x="315" y="5" type="curve"/>
      <point x="328" y="97" type="line"/>
      <point x="292" y="101"/>
      <point x="246" y="104"/>
      <point x="200" y="104" type="curve" smooth="yes"/>
      <point x="152" y="104" type="line"/>
      <point x="199" y="189"/>
      <point x="260" y="290"/>
      <point x="326" y="382" type="curve"/>
      <point x="310" y="474" type="line"/>
      <point x="283" y="476"/>
      <point x="254" y="477"/>
      <point x="226" y="477" type="curve" smooth="yes"/>
      <point x="168" y="477"/>
      <point x="110" y="472"/>
      <point x="55" y="461" type="curve"/>
      <point x="74" y="362" type="line"/>
      <point x="116" y="372"/>
      <point x="161" y="377"/>
      <point x="211" y="381" type="curve" name="hr02"/>
      <point x="163" y="316"/>
      <point x="110" y="221"/>
      <point x="44" y="99" type="curve"/>
    </contour>
  </outline>
</glyph>
<glyph name="bar" format="1">
  <advance width="500"/>
  <unicode hex="007C"/>
  <outline>
    <contour>
      <point x="281" y="-245" type="line" name="hr00"/>
      <point x="290" y="-103"/>
      <point x="292" y="60"/>
      <point x="292" y="210" type="curve" smooth="yes"/>
      <point x="292" y="416"/>
      <point x="284" y="586"/>
      <point x="284" y="760" type="curve"/>
      <point x="204" y="760" type="line"/>
      <point x="204" y="567"/>
      <point x="212" y="386"/>
      <point x="212" y="200" type="curve" smooth="yes"/>
      <point x="212" y="41"/>
      <point x="210" y="-102"/>
      <point x="201" y="-238" type="curve"/>
    </contour>
  </outline>
</glyph>
<glyph name="braceright" format="1">
  <advance width="500"/>
  <unicode hex="007D"/>
  <outline>
    <contour>
      <point x="230" y="244" type="curve"/>
      <point x="169" y="211"/>
      <point x="144" y="168"/>
      <point x="144" y="121" type="curve" smooth="yes"/>
      <point x="144" y="78"/>
      <point x="161" y="30"/>
      <point x="161" y="-9" type="curve" smooth="yes" name="hr01"/>
      <point x="161" y="-87"/>
      <point x="123" y="-130"/>
      <point x="32" y="-145" type="curve"/>
      <point x="32" y="-245" type="line"/>
      <point x="190" y="-238"/>
      <point x="291" y="-147"/>
      <point x="291" y="-29" type="curve" smooth="yes"/>
      <point x="291" y="21"/>
      <point x="274" y="76"/>
      <point x="274" y="121" type="curve" smooth="yes" name="hr02"/>
      <point x="274" y="166"/>
      <point x="291" y="198"/>
      <point x="365" y="200" type="curve"/>
      <point x="350" y="309" type="line"/>
      <point x="288" y="311"/>
      <point x="274" y="339"/>
      <point x="274" y="378" type="curve" smooth="yes"/>
      <point x="274" y="426"/>
      <point x="296" y="484"/>
      <point x="296" y="538" type="curve" smooth="yes"/>
      <point x="296" y="645"/>
      <point x="211" y="727"/>
      <point x="77" y="734" type="curve"/>
      <point x="57" y="619" type="line"/>
      <point x="125" y="610"/>
      <point x="166" y="577"/>
      <point x="166" y="523" type="curve" smooth="yes"/>
      <point x="166" y="477"/>
      <point x="144" y="419"/>
      <point x="144" y="368" type="curve" smooth="yes"/>
      <point x="144" y="321"/>
      <point x="169" y="277"/>
    </contour>
  </outline>
</glyph>
<glyph name="exclamdown" format="1">
  <advance width="278"/>
  <unicode hex="00A1"/>
  <outline>
    <contour>
      <point x="105" y="522" type="line"/>
      <point x="95" y="334"/>
      <point x="78" y="161"/>
      <point x="38" y="5" type="curve"/>
      <point x="184" y="-23" type="line"/>
      <point x="196" y="66"/>
      <point x="203" y="156"/>
      <point x="203" y="248" type="curve" smooth="yes" name="hr01"/>
      <point x="203" y="333"/>
      <point x="196" y="421"/>
      <point x="185" y="512" type="curve"/>
    </contour>
    <contour>
      <point x="206" y="562" type="line"/>
      <point x="205" y="576"/>
      <point x="204" y="590"/>
      <point x="204" y="602" type="curve" smooth="yes"/>
      <point x="204" y="641"/>
      <point x="204" y="671"/>
      <point x="214" y="708" type="curve"/>
      <point x="95" y="731" type="line"/>
      <point x="85" y="708"/>
      <point x="79" y="671"/>
      <point x="79" y="638" type="curve" smooth="yes" name="hr02"/>
      <point x="79" y="614"/>
      <point x="79" y="594"/>
      <point x="90" y="574" type="curve"/>
    </contour>
  </outline>
</glyph>
<glyph name="currency" format="1">
  <advance width="606"/>
  <unicode hex="00A4"/>
  <outline>
    <contour>
      <point x="91" y="406" type="curve" smooth="yes" name="hr00"/>
      <point x="91" y="373"/>
      <point x="95" y="346"/>
      <point x="104" y="322" type="curve"/>
      <point x="74" y="291"/>
      <point x="47" y="260"/>
      <point x="20" y="232" type="curve"/>
      <point x="95" y="147" type="line"/>
      <point x="180" y="230" type="line"/>
      <point x="213" y="212"/>
      <point x="252" y="204"/>
      <point x="291" y="204" type="curve" smooth="yes"/>
      <point x="342" y="204"/>
      <point x="382" y="218"/>
      <point x="414" y="240" type="curve"/>
      <point x="446" y="208"/>
      <point x="477" y="175"/>
      <point x="506" y="144" type="curve"/>
      <point x="591" y="229" type="line"/>
      <point x="486" y="334" type="line"/>
      <point x="500" y="369"/>
      <point x="507" y="406"/>
      <point x="507" y="443" type="curve" smooth="yes"/>
      <point x="507" y="473"/>
      <point x="502" y="507"/>
      <point x="490" y="539" type="curve"/>
      <point x="524" y="569"/>
      <point x="559" y="598"/>
      <point x="596" y="625" type="curve"/>
      <point x="524" y="722" type="line"/>
      <point x="489" y="695"/>
      <point x="453" y="665"/>
      <point x="418" y="634" type="curve"/>
      <point x="390" y="652"/>
      <point x="355" y="663"/>
      <point x="311" y="663" type="curve" smooth="yes"/>
      <point x="260" y="663"/>
      <point x="220" y="649"/>
      <point x="188" y="626" type="curve"/>
      <point x="159" y="657"/>
      <point x="131" y="688"/>
      <point x="103" y="720" type="curve"/>
      <point x="7" y="658" type="line"/>
      <point x="40" y="617"/>
      <point x="78" y="576"/>
      <point x="117" y="535" type="curve"/>
      <point x="99" y="494"/>
      <point x="91" y="448"/>
    </contour>
    <contour>
      <point x="208" y="404" type="curve" smooth="yes"/>
      <point x="208" y="467"/>
      <point x="237" y="570"/>
      <point x="311" y="570" type="curve" smooth="yes"/>
      <point x="371" y="570"/>
      <point x="390" y="503"/>
      <point x="390" y="453" type="curve" smooth="yes"/>
      <point x="390" y="392"/>
      <point x="361" y="297"/>
      <point x="291" y="297" type="curve" smooth="yes"/>
      <point x="255" y="297"/>
      <point x="208" y="323"/>
    </contour>
  </outline>
</glyph>
<glyph name="section" format="1">
  <advance width="520"/>
  <unicode hex="00A7"/>
  <outline>
    <contour>
      <point x="37" y="300" type="curve" smooth="yes"/>
      <point x="37" y="203"/>
      <point x="123" y="138"/>
      <point x="214" y="88" type="curve" smooth="yes"/>
      <point x="279" y="52"/>
      <point x="308" y="22"/>
      <point x="308" y="-14" type="curve" smooth="yes"/>
      <point x="308" y="-56"/>
      <point x="274" y="-75"/>
      <point x="240" y="-75" type="curve" smooth="yes"/>
      <point x="191" y="-75"/>
      <point x="139" y="2"/>
      <point x="112" y="48" type="curve"/>
      <point x="15" y="1" type="line"/>
      <point x="49" y="-71"/>
      <point x="123" y="-192"/>
      <point x="240" y="-192" type="curve" smooth="yes"/>
      <point x="343" y="-192"/>
      <point x="444" y="-127"/>
      <point x="444" y="11" type="curve" smooth="yes"/>
      <point x="444" y="46"/>
      <point x="430" y="78"/>
      <point x="404" y="106" type="curve"/>
      <point x="434" y="140"/>
      <point x="454" y="188"/>
      <point x="454" y="249" type="curve" smooth="yes"/>
      <point x="454" y="342"/>
      <point x="385" y="405"/>
      <point x="264" y="461" type="curve" smooth="yes"/>
      <point x="219" y="482"/>
      <point x="184" y="509"/>
      <point x="184" y="538" type="curve" smooth="yes"/>
      <point x="184" y="592"/>
      <point x="220" y="623"/>
      <point x="254" y="623" type="curve" smooth="yes"/>
      <point x="289" y="623"/>
      <point x="315" y="587"/>
      <point x="315" y="550" type="curve" smooth="yes"/>
      <point x="315" y="527"/>
      <point x="310" y="508"/>
      <point x="302" y="485" type="curve"/>
      <point x="426" y="444" type="line"/>
      <point x="445" y="476"/>
      <point x="452" y="508"/>
      <point x="452" y="550" type="curve" smooth="yes"/>
      <point x="452" y="618"/>
      <point x="374" y="740"/>
      <point x="254" y="740" type="curve" smooth="yes"/>
      <point x="154" y="740"/>
      <point x="47" y="669"/>
      <point x="47" y="538" type="curve" smooth="yes"/>
      <point x="47" y="500"/>
      <point x="62" y="465"/>
      <point x="88" y="435" type="curve"/>
      <point x="57" y="402"/>
      <point x="37" y="356"/>
    </contour>
    <contour>
      <point x="264" y="203" type="curve" smooth="yes"/>
      <point x="208" y="227"/>
      <point x="164" y="263"/>
      <point x="164" y="300" type="curve" smooth="yes" name="hr01"/>
      <point x="164" y="324"/>
      <point x="169" y="345"/>
      <point x="176" y="363" type="curve"/>
      <point x="188" y="356"/>
      <point x="201" y="351"/>
      <point x="214" y="346" type="curve" smooth="yes"/>
      <point x="295" y="315"/>
      <point x="328" y="280"/>
      <point x="328" y="244" type="curve" smooth="yes"/>
      <point x="328" y="217"/>
      <point x="320" y="197"/>
      <point x="307" y="182" type="curve"/>
      <point x="294" y="189"/>
      <point x="279" y="196"/>
    </contour>
  </outline>
</glyph>
<glyph name="dieresis" format="1">
  <advance width="500"/>
  <unicode hex="00A8"/>
  <outline>
    <contour>
      <point x="123" y="657" type="line" name="hr00"/>
      <point x="124" y="639"/>
      <point x="124" y="623"/>
      <point x="124" y="603" type="curve" smooth="yes"/>
      <point x="124" y="580"/>
      <point x="119" y="559"/>
      <point x="115" y="537" type="curve"/>
      <point x="210" y="527" type="line"/>
      <point x="221" y="544"/>
      <point x="224" y="569"/>
      <point x="224" y="592" type="curve" smooth="yes"/>
      <point x="224" y="611"/>
      <point x="224" y="633"/>
      <point x="213" y="649" type="curve"/>
    </contour>
    <contour>
      <point x="278" y="659" type="line"/>
      <point x="279" y="641"/>
      <point x="279" y="625"/>
      <point x="279" y="605" type="curve" smooth="yes"/>
      <point x="279" y="582"/>
      <point x="274" y="561"/>
      <point x="270" y="539" type="curve"/>
      <point x="365" y="529" type="line"/>
      <point x="376" y="546"/>
      <point x="379" y="571"/>
      <point x="379" y="594" type="curve" smooth="yes"/>
      <point x="379" y="613"/>
      <point x="379" y="635"/>
      <point x="368" y="651" type="curve"/>
    </contour>
  </outline>
</glyph>
<glyph name="copyright" format="1">
  <advance width="746"/>
  <unicode hex="00A9"/>
  <outline>
    <contour>
      <point x="696" y="382" type="curve" smooth="yes" name="hr00"/>
      <point x="696" y="626"/>
      <point x="546" y="726"/>
      <point x="381" y="726" type="curve" smooth="yes"/>
      <point x="207" y="726"/>
      <point x="50" y="573"/>
      <point x="50" y="330" type="curve" smooth="yes"/>
      <point x="50" y="84"/>
      <point x="202" y="-14"/>
      <point x="369" y="-14" type="curve" smooth="yes"/>
      <point x="570" y="-14"/>
      <point x="696" y="180"/>
    </contour>
    <contour>
      <point x="369" y="72" type="curve" smooth="yes"/>
      <point x="258" y="72"/>
      <point x="158" y="147"/>
      <point x="158" y="327" type="curve" smooth="yes"/>
      <point x="158" y="519"/>
      <point x="264" y="639"/>
      <point x="382" y="639" type="curve" smooth="yes"/>
      <point x="490" y="639"/>
      <point x="588" y="567"/>
      <point x="588" y="385" type="curve" smooth="yes"/>
      <point x="588" y="219"/>
      <point x="512" y="72"/>
    </contour>
    <contour>
      <point x="507" y="388" type="line"/>
      <point x="505" y="471"/>
      <point x="498" y="577"/>
      <point x="385" y="577" type="curve" smooth="yes"/>
      <point x="263" y="577"/>
      <point x="215" y="417"/>
      <point x="215" y="314" type="curve" smooth="yes"/>
      <point x="215" y="220"/>
      <point x="266" y="143"/>
      <point x="369" y="143" type="curve" smooth="yes"/>
      <point x="457" y="143"/>
      <point x="498" y="201"/>
      <point x="519" y="291" type="curve"/>
      <point x="414" y="299" type="line"/>
      <point x="406" y="265"/>
      <point x="395" y="229"/>
      <point x="369" y="229" type="curve" smooth="yes"/>
      <point x="338" y="229"/>
      <point x="324" y="266"/>
      <point x="324" y="320" type="curve" smooth="yes"/>
      <point x="324" y="376"/>
      <point x="347" y="491"/>
      <point x="379" y="491" type="curve" smooth="yes"/>
      <point x="400" y="491"/>
      <point x="401" y="437"/>
      <point x="401" y="398" type="curve"/>
    </contour>
  </outline>
</glyph>
<glyph name="guillemotleft" format="1">
  <advance width="478"/>
  <unicode hex="00AB"/>
  <outline>
    <contour>
      <point x="145" y="425" type="line" name="hr00"/>
      <point x="118" y="361"/>
      <point x="73" y="285"/>
      <point x="28" y="222" type="curve"/>
      <point x="68" y="134"/>
      <point x="112" y="58"/>
      <point x="159" y="4" type="curve"/>
      <point x="255" y="45" type="line"/>
      <point x="219" y="91"/>
      <point x="184" y="154"/>
      <point x="156" y="218" type="curve"/>
      <point x="194" y="278"/>
      <point x="225" y="337"/>
      <point x="250" y="400" type="curve"/>
    </contour>
    <contour>
      <point x="345" y="425" type="line"/>
      <point x="318" y="361"/>
      <point x="273" y="285"/>
      <point x="228" y="222" type="curve"/>
      <point x="268" y="134"/>
      <point x="312" y="58"/>
      <point x="359" y="4" type="curve"/>
      <point x="455" y="45" type="line"/>
      <point x="419" y="91"/>
      <point x="384" y="154"/>
      <point x="356" y="218" type="curve"/>
      <point x="394" y="278"/>
      <point x="425" y="337"/>
      <point x="450" y="400" type="curve"/>
    </contour>
  </outline>
</glyph>
<glyph name="sfthyphen" format="1">
  <advance width="324"/>
  <unicode hex="00AD"/>
  <outline>
    <contour>
      <point x="283" y="280" type="line"/>
      <point x="266" y="282"/>
      <point x="248" y="283"/>
      <point x="228" y="283" type="curve" smooth="yes"/>
      <point x="166" y="283"/>
      <point x="99" y="274"/>
      <point x="34" y="274" type="curve"/>
      <point x="46" y="166" type="line" name="hr01"/>
      <point x="107" y="166"/>
      <point x="171" y="175"/>
      <point x="228" y="175" type="curve" smooth="yes" name="hr02"/>
      <point x="247" y="175"/>
      <point x="267" y="174"/>
      <point x="287" y="172" type="curve"/>
    </contour>
  </outline>
</glyph>
<glyph name="registered" format="1">
  <advance width="746"/>
  <unicode hex="00AE"/>
  <outline>
    <contour>
      <point x="696" y="382" type="curve" smooth="yes" name="hr00"/>
      <point x="696" y="626"/>
      <point x="546" y="726"/>
      <point x="381" y="726" type="curve" smooth="yes"/>
      <point x="207" y="726"/>
      <point x="50" y="573"/>
      <point x="50" y="330" type="curve" smooth="yes"/>
      <point x="50" y="84"/>
      <point x="202" y="-14"/>
      <point x="369" y="-14" type="curve" smooth="yes"/>
      <point x="570" y="-14"/>
      <point x="696" y="180"/>
    </contour>
    <contour>
      <point x="369" y="72" type="curve" smooth="yes"/>
      <point x="258" y="72"/>
      <point x="158" y="147"/>
      <point x="158" y="327" type="curve" smooth="yes"/>
      <point x="158" y="519"/>
      <point x="264" y="639"/>
      <point x="382" y="639" type="curve" smooth="yes"/>
      <point x="490" y="639"/>
      <point x="588" y="567"/>
      <point x="588" y="385" type="curve" smooth="yes"/>
      <point x="588" y="219"/>
      <point x="512" y="72"/>
    </contour>
    <contour>
      <point x="342" y="155" type="line"/>
      <point x="344" y="203"/>
      <point x="346" y="253"/>
      <point x="347" y="300" type="curve"/>
      <point x="388" y="242"/>
      <point x="427" y="189"/>
      <point x="456" y="143" type="curve"/>
      <point x="530" y="194" type="line"/>
      <point x="500" y="239"/>
      <point x="467" y="285"/>
      <point x="434" y="327" type="curve"/>
      <point x="485" y="360"/>
      <point x="529" y="404"/>
      <point x="529" y="456" type="curve" smooth="yes"/>
      <point x="529" y="536"/>
      <point x="464" y="577"/>
      <point x="392" y="577" type="curve" smooth="yes"/>
      <point x="344" y="577"/>
      <point x="288" y="567"/>
      <point x="241" y="548" type="curve"/>
      <point x="242" y="514"/>
      <point x="242" y="481"/>
      <point x="242" y="447" type="curve" smooth="yes"/>
      <point x="242" y="353"/>
      <point x="238" y="258"/>
      <point x="234" y="164" type="curve"/>
    </contour>
    <contour>
      <point x="348" y="481" type="curve"/>
      <point x="364" y="488"/>
      <point x="379" y="491"/>
      <point x="392" y="491" type="curve" smooth="yes"/>
      <point x="412" y="491"/>
      <point x="430" y="481"/>
      <point x="430" y="459" type="curve" smooth="yes"/>
      <point x="430" y="430"/>
      <point x="394" y="385"/>
      <point x="349" y="358" type="curve"/>
      <point x="349" y="399"/>
      <point x="348" y="440"/>
    </contour>
  </outline>
</glyph>
<glyph name="plusminus" format="1">
  <advance width="833"/>
  <unicode hex="00B1"/>
  <outline>
    <contour>
      <point x="718" y="460" type="line"/>
      <point x="676" y="464"/>
      <point x="630" y="465"/>
      <point x="582" y="465" type="curve" smooth="yes"/>
      <point x="549" y="465"/>
      <point x="515" y="464"/>
      <point x="480" y="463" type="curve"/>
      <point x="482" y="515"/>
      <point x="487" y="565"/>
      <point x="494" y="611" type="curve"/>
      <point x="354" y="623" type="line"/>
      <point x="347" y="572"/>
      <point x="342" y="515"/>
      <point x="339" y="456" type="curve"/>
      <point x="266" y="449"/>
      <point x="193" y="445"/>
      <point x="121" y="443" type="curve" name="hr01"/>
      <point x="127" y="323" type="line"/>
      <point x="200" y="326"/>
      <point x="270" y="331"/>
      <point x="338" y="335" type="curve" name="hr02"/>
      <point x="338" y="284"/>
      <point x="340" y="239"/>
      <point x="343" y="188" type="curve"/>
      <point x="483" y="179" type="line"/>
      <point x="480" y="233"/>
      <point x="478" y="286"/>
      <point x="478" y="343" type="curve"/>
      <point x="513" y="344"/>
      <point x="547" y="345"/>
      <point x="582" y="345" type="curve" smooth="yes"/>
      <point x="622" y="345"/>
      <point x="662" y="344"/>
      <point x="704" y="340" type="curve"/>
    </contour>
    <contour>
      <point x="720" y="102" type="line"/>
      <point x="645" y="111"/>
      <point x="558" y="113"/>
      <point x="479" y="113" type="curve" smooth="yes"/>
      <point x="347" y="113"/>
      <point x="235" y="105"/>
      <point x="123" y="105" type="curve"/>
      <point x="123" y="-15" type="line"/>
      <point x="248" y="-14"/>
      <point x="369" y="-7"/>
      <point x="489" y="-7" type="curve" smooth="yes"/>
      <point x="567" y="-7"/>
      <point x="636" y="-9"/>
      <point x="702" y="-18" type="curve" name="hr03"/>
    </contour>
  </outline>
</glyph>
<glyph name="threesuperior" format="1">
  <advance width="324"/>
  <unicode hex="00B3"/>
  <outline>
    <contour>
      <point x="89" y="523" type="line"/>
      <point x="123" y="548"/>
      <point x="150" y="559"/>
      <point x="171" y="559" type="curve" smooth="yes"/>
      <point x="182" y="559"/>
      <point x="185" y="552"/>
      <point x="185" y="542" type="curve" smooth="yes"/>
      <point x="185" y="524"/>
      <point x="142" y="486"/>
      <point x="54" y="460" type="curve"/>
      <point x="81" y="396" type="line"/>
      <point x="94" y="403"/>
      <point x="113" y="405"/>
      <point x="127" y="405" type="curve" smooth="yes" name="hr01"/>
      <point x="157" y="405"/>
      <point x="173" y="387"/>
      <point x="173" y="369" type="curve" smooth="yes"/>
      <point x="173" y="341"/>
      <point x="123" y="329"/>
      <point x="88" y="329" type="curve" smooth="yes"/>
      <point x="72" y="329"/>
      <point x="58" y="330"/>
      <point x="46" y="331" type="curve"/>
      <point x="55" y="249" type="line"/>
      <point x="70" y="245"/>
      <point x="93" y="243"/>
      <point x="112" y="243" type="curve" smooth="yes"/>
      <point x="188" y="243"/>
      <point x="272" y="281"/>
      <point x="272" y="369" type="curve" smooth="yes"/>
      <point x="272" y="408"/>
      <point x="248" y="438"/>
      <point x="205" y="446" type="curve"/>
      <point x="247" y="468"/>
      <point x="279" y="501"/>
      <point x="279" y="542" type="curve" smooth="yes"/>
      <point x="279" y="595"/>
      <point x="225" y="637"/>
      <point x="171" y="637" type="curve" smooth="yes"/>
      <point x="127" y="637"/>
      <point x="91" y="623"/>
      <point x="45" y="589" type="curve"/>
    </contour>
  </outline>
</glyph>
<glyph name="paragraph" format="1">
  <advance width="500"/>
  <unicode hex="00B6"/>
  <outline>
    <contour>
      <point x="496" y="724" type="line" name="hr00"/>
      <point x="434" y="730"/>
      <point x="364" y="734"/>
      <point x="295" y="734" type="curve" smooth="yes"/>
      <point x="143" y="734"/>
      <point x="13" y="688"/>
      <point x="13" y="521" type="curve" smooth="yes"/>
      <point x="13" y="450"/>
      <point x="62" y="387"/>
      <point x="136" y="387" type="curve" smooth="yes"/>
      <point x="158" y="387"/>
      <point x="178" y="388"/>
      <point x="195" y="393" type="curve"/>
      <point x="196" y="362"/>
      <point x="196" y="331"/>
      <point x="196" y="295" type="curve" smooth="yes"/>
      <point x="196" y="191"/>
      <point x="194" y="91"/>
      <point x="185" y="-3" type="curve"/>
      <point x="265" y="-10" type="line"/>
      <point x="274" y="90"/>
      <point x="276" y="197"/>
      <point x="276" y="305" type="curve" smooth="yes"/>
      <point x="276" y="440"/>
      <point x="270" y="538"/>
      <point x="268" y="650" type="curve"/>
      <point x="293" y="652"/>
      <point x="318" y="652"/>
      <point x="344" y="653" type="curve"/>
      <point x="346" y="537"/>
      <point x="352" y="443"/>
      <point x="352" y="320" type="curve" smooth="yes"/>
      <point x="352" y="209"/>
      <point x="350" y="102"/>
      <point x="341" y="2" type="curve"/>
      <point x="421" y="-5" type="line"/>
      <point x="430" y="101"/>
      <point x="432" y="216"/>
      <point x="432" y="330" type="curve" smooth="yes"/>
      <point x="432" y="455"/>
      <point x="427" y="550"/>
      <point x="425" y="652" type="curve"/>
      <point x="443" y="651"/>
      <point x="465" y="651"/>
      <point x="482" y="648" type="curve"/>
    </contour>
  </outline>
</glyph>
<glyph name="cedilla" format="1">
  <advance width="500"/>
  <unicode hex="00B8"/>
  <outline>
    <contour>
      <point x="232" y="-6" type="line"/>
      <point x="215" y="-45"/>
      <point x="207" y="-80"/>
      <point x="206" y="-129" type="curve"/>
      <point x="234" y="-132" type="line"/>
      <point x="244" y="-127"/>
      <point x="253" y="-125"/>
      <point x="262" y="-125" type="curve" smooth="yes"/>
      <point x="282" y="-125"/>
      <point x="297" y="-137"/>
      <point x="297" y="-153" type="curve" smooth="yes" name="hr01"/>
      <point x="297" y="-172"/>
      <point x="276" y="-181"/>
      <point x="255" y="-181" type="curve" smooth="yes"/>
      <point x="220" y="-181"/>
      <point x="170" y="-160"/>
      <point x="140" y="-144" type="curve"/>
      <point x="122" y="-189" type="line"/>
      <point x="159" y="-217"/>
      <point x="208" y="-232"/>
      <point x="257" y="-232" type="curve" smooth="yes"/>
      <point x="336" y="-232"/>
      <point x="383" y="-201"/>
      <point x="383" y="-139" type="curve" smooth="yes"/>
      <point x="383" y="-90"/>
      <point x="340" y="-62"/>
      <point x="298" y="-62" type="curve" smooth="yes"/>
      <point x="290" y="-62"/>
      <point x="283" y="-63"/>
      <point x="275" y="-65" type="curve"/>
      <point x="267" y="-41"/>
      <point x="267" y="-27"/>
      <point x="267" y="-6" type="curve"/>
    </contour>
  </outline>
</glyph>
<glyph name="guillemotright" format="1">
  <advance width="478"/>
  <unicode hex="00BB"/>
  <outline>
    <contour>
      <point x="128" y="4" type="line" name="hr00"/>
      <point x="155" y="68"/>
      <point x="200" y="144"/>
      <point x="245" y="207" type="curve"/>
      <point x="205" y="295"/>
      <point x="161" y="371"/>
      <point x="114" y="425" type="curve"/>
      <point x="18" y="384" type="line"/>
      <point x="54" y="338"/>
      <point x="89" y="275"/>
      <point x="117" y="211" type="curve"/>
      <point x="79" y="151"/>
      <point x="48" y="92"/>
      <point x="23" y="29" type="curve"/>
    </contour>
    <contour>
      <point x="325" y="4" type="line"/>
      <point x="352" y="68"/>
      <point x="397" y="144"/>
      <point x="442" y="207" type="curve"/>
      <point x="402" y="295"/>
      <point x="358" y="371"/>
      <point x="311" y="425" type="curve"/>
      <point x="215" y="384" type="line"/>
      <point x="251" y="338"/>
      <point x="286" y="275"/>
      <point x="314" y="211" type="curve"/>
      <point x="276" y="151"/>
      <point x="245" y="92"/>
      <point x="220" y="29" type="curve"/>
    </contour>
  </outline>
</glyph>
<glyph name="onequarter" format="1">
  <advance width="771"/>
  <unicode hex="00BC"/>
  <outline>
    <contour>
      <point x="680" y="-25" type="line" name="hr00"/>
      <point x="678" y="11"/>
      <point x="678" y="53"/>
      <point x="678" y="88" type="curve"/>
      <point x="718" y="88" type="line"/>
      <point x="726" y="162" type="line"/>
      <point x="679" y="166" type="line"/>
      <point x="681" y="261"/>
      <point x="696" y="363"/>
      <point x="696" y="363" type="curve"/>
      <point x="570" y="374" type="line"/>
      <point x="525" y="324"/>
      <point x="429" y="145"/>
      <point x="429" y="129" type="curve"/>
      <point x="518" y="82" type="line"/>
      <point x="544" y="85"/>
      <point x="567" y="89"/>
      <point x="588" y="89" type="curve"/>
      <point x="588" y="55"/>
      <point x="588" y="16"/>
      <point x="591" y="-17" type="curve"/>
    </contour>
    <contour>
      <point x="536" y="162" type="curve"/>
      <point x="547" y="186"/>
      <point x="575" y="239"/>
      <point x="602" y="282" type="curve"/>
      <point x="594" y="250"/>
      <point x="591" y="211"/>
      <point x="588" y="166" type="curve"/>
      <point x="571" y="166"/>
      <point x="552" y="164"/>
    </contour>
    <contour>
      <point x="198" y="-23" type="line"/>
      <point x="340" y="228"/>
      <point x="472" y="440"/>
      <point x="639" y="626" type="curve"/>
      <point x="575" y="666" type="line"/>
      <point x="412" y="487"/>
      <point x="265" y="257"/>
      <point x="121" y="6" type="curve"/>
    </contour>
    <contour>
      <point x="101" y="472" type="line"/>
      <point x="125" y="505" type="line"/>
      <point x="122" y="464"/>
      <point x="121" y="421"/>
      <point x="121" y="377" type="curve" smooth="yes"/>
      <point x="121" y="336"/>
      <point x="122" y="294"/>
      <point x="125" y="253" type="curve"/>
      <point x="225" y="245" type="line"/>
      <point x="220" y="309"/>
      <point x="217" y="373"/>
      <point x="217" y="429" type="curve" smooth="yes"/>
      <point x="217" y="492"/>
      <point x="217" y="561"/>
      <point x="229" y="635" type="curve"/>
      <point x="135" y="643" type="line"/>
      <point x="107" y="595"/>
      <point x="79" y="552"/>
      <point x="45" y="511" type="curve"/>
    </contour>
  </outline>
</glyph>
<glyph name="onehalf" format="1">
  <advance width="793"/>
  <unicode hex="00BD"/>
  <outline>
    <contour>
      <point x="198" y="-23" type="line"/>
      <point x="340" y="228"/>
      <point x="472" y="440"/>
      <point x="639" y="626" type="curve"/>
      <point x="575" y="666" type="line"/>
      <point x="412" y="487"/>
      <point x="265" y="257"/>
      <point x="121" y="6" type="curve"/>
    </contour>
    <contour>
      <point x="101" y="472" type="line"/>
      <point x="125" y="505" type="line"/>
      <point x="122" y="464"/>
      <point x="121" y="421"/>
      <point x="121" y="377" type="curve" smooth="yes"/>
      <point x="121" y="336"/>
      <point x="122" y="294"/>
      <point x="125" y="253" type="curve"/>
      <point x="225" y="245" type="line"/>
      <point x="220" y="309"/>
      <point x="217" y="373"/>
      <point x="217" y="429" type="curve" smooth="yes"/>
      <point x="217" y="492"/>
      <point x="217" y="561"/>
      <point x="229" y="635" type="curve"/>
      <point x="135" y="643" type="line"/>
      <point x="107" y="595"/>
      <point x="79" y="552"/>
      <point x="45" y="511" type="curve"/>
    </contour>
    <contour>
      <point x="547" y="204" type="line"/>
      <point x="578" y="239"/>
      <point x="620" y="285"/>
      <point x="638" y="285" type="curve" smooth="yes"/>
      <point x="649" y="285"/>
      <point x="654" y="275"/>
      <point x="654" y="263" type="curve" smooth="yes"/>
      <point x="654" y="226"/>
      <point x="564" y="111"/>
      <point x="474" y="44" type="curve"/>
      <point x="512" y="-30" type="line"/>
      <point x="578" y="-16"/>
      <point x="624" y="-12"/>
      <point x="666" y="-12" type="curve" smooth="yes" name="hr01"/>
      <point x="685" y="-12"/>
      <point x="706" y="-13"/>
      <point x="728" y="-15" type="curve"/>
      <point x="735" y="73" type="line"/>
      <point x="694" y="73"/>
      <point x="660" y="73"/>
      <point x="626" y="71" type="curve"/>
      <point x="697" y="146"/>
      <point x="748" y="216"/>
      <point x="748" y="268" type="curve" smooth="yes"/>
      <point x="748" y="323"/>
      <point x="712" y="373"/>
      <point x="638" y="373" type="curve" smooth="yes"/>
      <point x="572" y="373"/>
      <point x="521" y="310"/>
      <point x="481" y="262" type="curve"/>
    </contour>
  </outline>
</glyph>
<glyph name="threequarters" format="1">
  <advance width="782"/>
  <unicode hex="00BE"/>
  <outline>
    <contour>
      <point x="691" y="-25" type="line"/>
      <point x="689" y="11"/>
      <point x="689" y="53"/>
      <point x="689" y="88" type="curve"/>
      <point x="729" y="88" type="line"/>
      <point x="737" y="162" type="line"/>
      <point x="690" y="166" type="line"/>
      <point x="692" y="261"/>
      <point x="707" y="363"/>
      <point x="707" y="363" type="curve"/>
      <point x="581" y="374" type="line"/>
      <point x="536" y="324"/>
      <point x="440" y="145"/>
      <point x="440" y="129" type="curve"/>
      <point x="529" y="82" type="line"/>
      <point x="555" y="85"/>
      <point x="578" y="89"/>
      <point x="599" y="89" type="curve"/>
      <point x="599" y="55"/>
      <point x="599" y="16"/>
      <point x="602" y="-17" type="curve"/>
    </contour>
    <contour>
      <point x="547" y="162" type="curve"/>
      <point x="558" y="186"/>
      <point x="586" y="239"/>
      <point x="613" y="282" type="curve"/>
      <point x="605" y="250"/>
      <point x="602" y="211"/>
      <point x="599" y="166" type="curve"/>
      <point x="582" y="166"/>
      <point x="563" y="164"/>
    </contour>
    <contour>
      <point x="209" y="-23" type="line"/>
      <point x="351" y="228"/>
      <point x="483" y="440"/>
      <point x="650" y="626" type="curve"/>
      <point x="586" y="666" type="line"/>
      <point x="423" y="487"/>
      <point x="276" y="257"/>
      <point x="132" y="6" type="curve"/>
    </contour>
    <contour>
      <point x="89" y="523" type="line"/>
      <point x="123" y="548"/>
      <point x="150" y="559"/>
      <point x="171" y="559" type="curve" smooth="yes"/>
      <point x="182" y="559"/>
      <point x="185" y="552"/>
      <point x="185" y="542" type="curve" smooth="yes"/>
      <point x="185" y="524"/>
      <point x="142" y="486"/>
      <point x="54" y="460" type="curve"/>
      <point x="81" y="396" type="line"/>
      <point x="94" y="403"/>
      <point x="113" y="405"/>
      <point x="127" y="405" type="curve" smooth="yes"/>
      <point x="157" y="405"/>
      <point x="173" y="387"/>
      <point x="173" y="369" type="curve" smooth="yes" name="hr01"/>
      <point x="173" y="341"/>
      <point x="123" y="329"/>
      <point x="88" y="329" type="curve" smooth="yes"/>
      <point x="72" y="329"/>
      <point x="58" y="330"/>
      <point x="46" y="331" type="curve"/>
      <point x="55" y="249" type="line"/>
      <point x="70" y="245"/>
      <point x="93" y="243"/>
      <point x="112" y="243" type="curve" smooth="yes"/>
      <point x="188" y="243"/>
      <point x="272" y="281"/>
      <point x="272" y="369" type="curve" smooth="yes"/>
      <point x="272" y="408"/>
      <point x="248" y="438"/>
      <point x="205" y="446" type="curve"/>
      <point x="247" y="468"/>
      <point x="279" y="501"/>
      <point x="279" y="542" type="curve" smooth="yes"/>
      <point x="279" y="595"/>
      <point x="225" y="637"/>
      <point x="171" y="637" type="curve" smooth="yes"/>
      <point x="127" y="637"/>
      <point x="91" y="623"/>
      <point x="45" y="589" type="curve"/>
    </contour>
  </outline>
</glyph>
<glyph name="questiondown" format="1">
  <advance width="419"/>
  <unicode hex="00BF"/>
  <outline>
    <contour>
      <point x="337" y="196" type="line"/>
      <point x="278" y="138"/>
      <point x="225" y="97"/>
      <point x="189" y="97" type="curve" smooth="yes"/>
      <point x="159" y="97"/>
      <point x="144" y="119"/>
      <point x="144" y="141" type="curve" smooth="yes"/>
      <point x="144" y="182"/>
      <point x="196" y="230"/>
      <point x="245" y="286" type="curve" smooth="yes"/>
      <point x="295" y="343"/>
      <point x="328" y="385"/>
      <point x="328" y="427" type="curve" smooth="yes"/>
      <point x="328" y="453"/>
      <point x="315" y="468"/>
      <point x="296" y="481" type="curve"/>
      <point x="211" y="491" type="line"/>
      <point x="214" y="481"/>
      <point x="216" y="471"/>
      <point x="216" y="460" type="curve" smooth="yes"/>
      <point x="216" y="439"/>
      <point x="207" y="412"/>
      <point x="171" y="374" type="curve" smooth="yes"/>
      <point x="96" y="294"/>
      <point x="24" y="229"/>
      <point x="24" y="151" type="curve" smooth="yes"/>
      <point x="24" y="56"/>
      <point x="82" y="-23"/>
      <point x="189" y="-23" type="curve" smooth="yes"/>
      <point x="271" y="-23"/>
      <point x="352" y="34"/>
      <point x="429" y="116" type="curve"/>
    </contour>
    <contour>
      <point x="320" y="531" type="line"/>
      <point x="319" y="545"/>
      <point x="318" y="559"/>
      <point x="318" y="571" type="curve" smooth="yes"/>
      <point x="318" y="610"/>
      <point x="318" y="640"/>
      <point x="328" y="677" type="curve"/>
      <point x="209" y="700" type="line"/>
      <point x="199" y="677"/>
      <point x="193" y="640"/>
      <point x="193" y="607" type="curve" smooth="yes" name="hr01"/>
      <point x="193" y="583"/>
      <point x="193" y="563"/>
      <point x="204" y="543" type="curve"/>
    </contour>
  </outline>
</glyph>
<glyph name="Atilde" format="1">
  <advance width="516"/>
  <unicode hex="00C3"/>
  <outline>
    <contour>
      <point x="353" y="10" type="line"/>
      <point x="498" y="-2" type="line"/>
      <point x="367" y="676" type="line"/>
      <point x="182" y="692" type="line"/>
      <point x="3" y="-33" type="line"/>
      <point x="143" y="-45" type="line"/>
      <point x="181" y="143" type="line"/>
      <point x="330" y="149" type="line"/>
    </contour>
    <contour>
      <point x="265" y="561" type="line"/>
      <point x="314" y="254" type="line"/>
      <point x="202" y="250" type="line"/>
    </contour>
    <contour>
      <point x="359" y="902" type="line"/>
      <point x="347" y="886"/>
      <point x="330" y="870"/>
      <point x="307" y="870" type="curve" smooth="yes"/>
      <point x="276" y="870"/>
      <point x="251" y="898"/>
      <point x="212" y="898" type="curve" smooth="yes" name="hr01"/>
      <point x="166" y="898"/>
      <point x="137" y="851"/>
      <point x="119" y="813" type="curve"/>
      <point x="179" y="781" type="line"/>
      <point x="191" y="793"/>
      <point x="207" y="804"/>
      <point x="229" y="804" type="curve" smooth="yes"/>
      <point x="260" y="804"/>
      <point x="278" y="786"/>
      <point x="324" y="786" type="curve" smooth="yes" name="hr02"/>
      <point x="371" y="786"/>
      <point x="415" y="845"/>
      <point x="419" y="897" type="curve"/>
    </contour>
  </outline>
</glyph>
<glyph name="Adieresis" format="1">
  <advance width="516"/>
  <unicode hex="00C4"/>
  <outline>
    <contour>
      <point x="353" y="10" type="line" name="hr00"/>
      <point x="498" y="-2" type="line"/>
      <point x="367" y="676" type="line"/>
      <point x="182" y="692" type="line"/>
      <point x="3" y="-33" type="line"/>
      <point x="143" y="-45" type="line"/>
      <point x="181" y="143" type="line"/>
      <point x="330" y="149" type="line"/>
    </contour>
    <contour>
      <point x="265" y="561" type="line"/>
      <point x="314" y="254" type="line"/>
      <point x="202" y="250" type="line"/>
    </contour>
    <contour>
      <point x="137" y="908" type="line"/>
      <point x="138" y="890"/>
      <point x="138" y="874"/>
      <point x="138" y="854" type="curve" smooth="yes"/>
      <point x="138" y="831"/>
      <point x="133" y="810"/>
      <point x="129" y="788" type="curve"/>
      <point x="224" y="778" type="line"/>
      <point x="235" y="795"/>
      <point x="238" y="820"/>
      <point x="238" y="843" type="curve" smooth="yes"/>
      <point x="238" y="862"/>
      <point x="238" y="884"/>
      <point x="227" y="900" type="curve"/>
    </contour>
    <contour>
      <point x="292" y="910" type="line"/>
      <point x="293" y="892"/>
      <point x="293" y="876"/>
      <point x="293" y="856" type="curve" smooth="yes"/>
      <point x="293" y="833"/>
      <point x="288" y="812"/>
      <point x="284" y="790" type="curve"/>
      <point x="379" y="780" type="line"/>
      <point x="390" y="797"/>
      <point x="393" y="822"/>
      <point x="393" y="845" type="curve" smooth="yes"/>
      <point x="393" y="864"/>
      <point x="393" y="886"/>
      <point x="382" y="902" type="curve"/>
    </contour>
  </outline>
</glyph>
<glyph name="AE" format="1">
  <advance width="667"/>
  <unicode hex="00C6"/>
  <outline>
    <contour>
      <point x="661" y="131" type="line"/>
      <point x="604" y="120"/>
      <point x="531" y="107"/>
      <point x="453" y="101" type="curve"/>
      <point x="452" y="154"/>
      <point x="452" y="204"/>
      <point x="452" y="274" type="curve"/>
      <point x="510" y="280"/>
      <point x="595" y="288"/>
      <point x="653" y="289" type="curve"/>
      <point x="634" y="399" type="line"/>
      <point x="569" y="398"/>
      <point x="514" y="395"/>
      <point x="454" y="386" type="curve"/>
      <point x="455" y="442"/>
      <point x="457" y="501"/>
      <point x="459" y="558" type="curve"/>
      <point x="528" y="563"/>
      <point x="603" y="565"/>
      <point x="669" y="565" type="curve"/>
      <point x="669" y="688" type="line"/>
      <point x="604" y="688"/>
      <point x="523" y="685"/>
      <point x="427" y="674" type="curve"/>
      <point x="232" y="691" type="line" name="hr01"/>
      <point x="3" y="-33" type="line"/>
      <point x="143" y="-45" type="line"/>
      <point x="202" y="143" type="line"/>
      <point x="319" y="148" type="line"/>
      <point x="320" y="95"/>
      <point x="321" y="45"/>
      <point x="323" y="-4" type="curve"/>
      <point x="477" y="-18" type="line"/>
      <point x="570" y="-18"/>
      <point x="632" y="0"/>
      <point x="678" y="21" type="curve"/>
    </contour>
    <contour>
      <point x="325" y="561" type="line"/>
      <point x="327" y="539" type="line"/>
      <point x="322" y="443"/>
      <point x="319" y="335"/>
      <point x="319" y="254" type="curve"/>
      <point x="230" y="250" type="line"/>
    </contour>
  </outline>
</glyph>
<glyph name="Edieresis" format="1">
  <advance width="447"/>
  <unicode hex="00CB"/>
  <outline>
    <contour>
      <point x="413" y="131" type="line"/>
      <point x="356" y="120"/>
      <point x="283" y="107"/>
      <point x="205" y="101" type="curve"/>
      <point x="204" y="154"/>
      <point x="204" y="204"/>
      <point x="204" y="274" type="curve"/>
      <point x="262" y="280"/>
      <point x="347" y="288"/>
      <point x="405" y="289" type="curve"/>
      <point x="386" y="399" type="line"/>
      <point x="321" y="398"/>
      <point x="266" y="395"/>
      <point x="206" y="386" type="curve"/>
      <point x="207" y="442"/>
      <point x="209" y="501"/>
      <point x="211" y="558" type="curve"/>
      <point x="280" y="563"/>
      <point x="355" y="565"/>
      <point x="421" y="565" type="curve"/>
      <point x="421" y="688" type="line"/>
      <point x="337" y="688"/>
      <point x="225" y="683"/>
      <point x="87" y="662" type="curve"/>
      <point x="79" y="549"/>
      <point x="71" y="367"/>
      <point x="71" y="249" type="curve" smooth="yes" name="hr01"/>
      <point x="71" y="154"/>
      <point x="73" y="75"/>
      <point x="75" y="-4" type="curve"/>
      <point x="229" y="-18" type="line"/>
      <point x="322" y="-18"/>
      <point x="384" y="0"/>
      <point x="430" y="21" type="curve"/>
    </contour>
    <contour>
      <point x="139" y="908" type="line"/>
      <point x="140" y="890"/>
      <point x="140" y="874"/>
      <point x="140" y="854" type="curve" smooth="yes"/>
      <point x="140" y="831"/>
      <point x="135" y="810"/>
      <point x="131" y="788" type="curve"/>
      <point x="226" y="778" type="line"/>
      <point x="237" y="795"/>
      <point x="240" y="820"/>
      <point x="240" y="843" type="curve" smooth="yes"/>
      <point x="240" y="862"/>
      <point x="240" y="884"/>
      <point x="229" y="900" type="curve"/>
    </contour>
    <contour>
      <point x="294" y="910" type="line"/>
      <point x="295" y="892"/>
      <point x="295" y="876"/>
      <point x="295" y="856" type="curve" smooth="yes"/>
      <point x="295" y="833"/>
      <point x="290" y="812"/>
      <point x="286" y="790" type="curve"/>
      <point x="381" y="780" type="line"/>
      <point x="392" y="797"/>
      <point x="395" y="822"/>
      <point x="395" y="845" type="curve" smooth="yes"/>
      <point x="395" y="864"/>
      <point x="395" y="886"/>
      <point x="384" y="902" type="curve"/>
    </contour>
  </outline>
</glyph>
<glyph name="Icircumflex" format="1">
  <advance width="289"/>
  <unicode hex="00CE"/>
  <outline>
    <contour>
      <point x="98" y="704" type="line"/>
      <point x="92" y="581"/>
      <point x="89" y="476"/>
      <point x="89" y="368" type="curve" smooth="yes"/>
      <point x="89" y="249"/>
      <point x="93" y="128"/>
      <point x="102" y="-13" type="curve" name="hr01"/>
      <point x="237" y="-25" type="line"/>
      <point x="228" y="88"/>
      <point x="224" y="219"/>
      <point x="224" y="351" type="curve" smooth="yes"/>
      <point x="224" y="469"/>
      <point x="227" y="587"/>
      <point x="233" y="692" type="curve" name="hr02"/>
    </contour>
    <contour>
      <point x="146" y="923" type="line"/>
      <point x="98" y="881"/>
      <point x="58" y="838"/>
      <point x="18" y="793" type="curve"/>
      <point x="76" y="750" type="line"/>
      <point x="110" y="780"/>
      <point x="143" y="806"/>
      <point x="176" y="829" type="curve"/>
      <point x="202" y="808"/>
      <point x="228" y="785"/>
      <point x="257" y="759" type="curve"/>
      <point x="315" y="803" type="line"/>
      <point x="282" y="843"/>
      <point x="252" y="881"/>
      <point x="214" y="918" type="curve"/>
    </contour>
  </outline>
</glyph>
<glyph name="Eth" format="1">
  <advance width="512"/>
  <unicode hex="00D0"/>
  <outline>
    <contour>
      <point x="60" y="667" type="curve"/>
      <point x="65" y="578"/>
      <point x="68" y="494"/>
      <point x="69" y="397" type="curve"/>
      <point x="50" y="396"/>
      <point x="31" y="396"/>
      <point x="12" y="396" type="curve"/>
      <point x="24" y="288" type="line"/>
      <point x="38" y="288"/>
      <point x="53" y="288"/>
      <point x="68" y="289" type="curve"/>
      <point x="66" y="194"/>
      <point x="61" y="92"/>
      <point x="55" y="-1" type="curve" name="hr01"/>
      <point x="97" y="-6"/>
      <point x="182" y="-15"/>
      <point x="191" y="-15" type="curve" smooth="yes"/>
      <point x="381" y="-15"/>
      <point x="482" y="191"/>
      <point x="482" y="386" type="curve" smooth="yes"/>
      <point x="482" y="548"/>
      <point x="403" y="701"/>
      <point x="238" y="701" type="curve" smooth="yes"/>
      <point x="182" y="701"/>
      <point x="117" y="687"/>
    </contour>
    <contour>
      <point x="281" y="402" type="line"/>
      <point x="258" y="404"/>
      <point x="234" y="405"/>
      <point x="202" y="405" type="curve"/>
      <point x="196" y="573" type="line"/>
      <point x="212" y="579"/>
      <point x="228" y="581"/>
      <point x="243" y="581" type="curve" smooth="yes"/>
      <point x="301" y="581"/>
      <point x="353" y="493"/>
      <point x="353" y="365" type="curve" smooth="yes"/>
      <point x="353" y="234"/>
      <point x="275" y="107"/>
      <point x="216" y="107" type="curve" smooth="yes"/>
      <point x="208" y="107"/>
      <point x="201" y="109"/>
      <point x="196" y="115" type="curve"/>
      <point x="199" y="172"/>
      <point x="201" y="234"/>
      <point x="202" y="297" type="curve"/>
      <point x="231" y="297"/>
      <point x="259" y="296"/>
      <point x="285" y="294" type="curve"/>
    </contour>
  </outline>
</glyph>
<glyph name="Ocircumflex" format="1">
  <advance width="521"/>
  <unicode hex="00D4"/>
  <outline>
    <contour>
      <point x="34" y="310" type="curve" smooth="yes" name="hr00"/>
      <point x="34" y="65"/>
      <point x="144" y="-34"/>
      <point x="263" y="-34" type="curve" smooth="yes"/>
      <point x="380" y="-34"/>
      <point x="500" y="120"/>
      <point x="500" y="362" type="curve" smooth="yes"/>
      <point x="500" y="606"/>
      <point x="392" y="706"/>
      <point x="275" y="706" type="curve" smooth="yes"/>
      <point x="149" y="706"/>
      <point x="34" y="552"/>
    </contour>
    <contour>
      <point x="167" y="310" type="curve" smooth="yes"/>
      <point x="167" y="479"/>
      <point x="219" y="587"/>
      <point x="275" y="587" type="curve" smooth="yes"/>
      <point x="323" y="587"/>
      <point x="367" y="522"/>
      <point x="367" y="362" type="curve" smooth="yes"/>
      <point x="367" y="192"/>
      <point x="314" y="84"/>
      <point x="263" y="84" type="curve" smooth="yes"/>
      <point x="213" y="84"/>
      <point x="167" y="150"/>
    </contour>
    <contour>
      <point x="251" y="923" type="line"/>
      <point x="203" y="881"/>
      <point x="163" y="838"/>
      <point x="123" y="793" type="curve"/>
      <point x="181" y="750" type="line"/>
      <point x="215" y="780"/>
      <point x="248" y="806"/>
      <point x="281" y="829" type="curve"/>
      <point x="307" y="808"/>
      <point x="333" y="785"/>
      <point x="362" y="759" type="curve"/>
      <point x="420" y="803" type="line"/>
      <point x="387" y="843"/>
      <point x="357" y="881"/>
      <point x="319" y="918" type="curve"/>
    </contour>
  </outline>
</glyph>
<glyph name="multiply" format="1">
  <advance width="833"/>
  <unicode hex="00D7"/>
  <outline>
    <contour>
      <point x="129" y="522" type="line" name="hr00"/>
      <point x="190" y="449"/>
      <point x="262" y="375"/>
      <point x="336" y="301" type="curve"/>
      <point x="267" y="230"/>
      <point x="201" y="158"/>
      <point x="142" y="96" type="curve"/>
      <point x="217" y="11" type="line"/>
      <point x="287" y="76"/>
      <point x="354" y="147"/>
      <point x="422" y="217" type="curve"/>
      <point x="495" y="146"/>
      <point x="567" y="75"/>
      <point x="628" y="8" type="curve"/>
      <point x="713" y="93" type="line"/>
      <point x="646" y="162"/>
      <point x="575" y="230"/>
      <point x="503" y="299" type="curve"/>
      <point x="572" y="368"/>
      <point x="643" y="433"/>
      <point x="718" y="489" type="curve"/>
      <point x="646" y="586" type="line"/>
      <point x="569" y="527"/>
      <point x="492" y="456"/>
      <point x="417" y="382" type="curve"/>
      <point x="350" y="448"/>
      <point x="285" y="515"/>
      <point x="225" y="584" type="curve"/>
    </contour>
  </outline>
</glyph>
<glyph name="Uacute" format="1">
  <advance width="539"/>
  <unicode hex="00DA"/>
  <outline>
    <contour>
      <point x="77" y="685" type="line"/>
      <point x="62" y="529"/>
      <point x="54" y="395"/>
      <point x="54" y="235" type="curve" smooth="yes"/>
      <point x="54" y="114"/>
      <point x="141" y="-17"/>
      <point x="272" y="-17" type="curve" smooth="yes"/>
      <point x="471" y="-17"/>
      <point x="497" y="245"/>
      <point x="497" y="364" type="curve" smooth="yes"/>
      <point x="497" y="466"/>
      <point x="490" y="586"/>
      <point x="483" y="689" type="curve" name="hr01"/>
      <point x="347" y="703" type="line"/>
      <point x="354" y="592"/>
      <point x="360" y="474"/>
      <point x="360" y="364" type="curve" smooth="yes" name="hr02"/>
      <point x="360" y="282"/>
      <point x="351" y="101"/>
      <point x="272" y="101" type="curve" smooth="yes"/>
      <point x="223" y="101"/>
      <point x="191" y="169"/>
      <point x="191" y="235" type="curve" smooth="yes"/>
      <point x="191" y="392"/>
      <point x="198" y="523"/>
      <point x="213" y="672" type="curve"/>
    </contour>
    <contour>
      <point x="256" y="766" type="line"/>
      <point x="324" y="801"/>
      <point x="386" y="824"/>
      <point x="449" y="839" type="curve"/>
      <point x="395" y="928" type="line"/>
      <point x="326" y="898"/>
      <point x="269" y="861"/>
      <point x="211" y="823" type="curve"/>
    </contour>
  </outline>
</glyph>
<glyph name="Ucircumflex" format="1">
  <advance width="539"/>
  <unicode hex="00DB"/>
  <outline>
    <contour>
      <point x="77" y="685" type="line"/>
      <point x="62" y="529"/>
      <point x="54" y="395"/>
      <point x="54" y="235" type="curve" smooth="yes"/>
      <point x="54" y="114"/>
      <point x="141" y="-17"/>
      <point x="272" y="-17" type="curve" smooth="yes"/>
      <point x="471" y="-17"/>
      <point x="497" y="245"/>
      <point x="497" y="364" type="curve" smooth="yes"/>
      <point x="497" y="466"/>
      <point x="490" y="586"/>
      <point x="483" y="689" type="curve" name="hr01"/>
      <point x="347" y="703" type="line"/>
      <point x="354" y="592"/>
      <point x="360" y="474"/>
      <point x="360" y="364" type="curve" smooth="yes" name="hr02"/>
      <point x="360" y="282"/>
      <point x="351" y="101"/>
      <point x="272" y="101" type="curve" smooth="yes"/>
      <point x="223" y="101"/>
      <point x="191" y="169"/>
      <point x="191" y="235" type="curve" smooth="yes"/>
      <point x="191" y="392"/>
      <point x="198" y="523"/>
      <point x="213" y="672" type="curve"/>
    </contour>
    <contour>
      <point x="249" y="923" type="line"/>
      <point x="201" y="881"/>
      <point x="161" y="838"/>
      <point x="121" y="793" type="curve"/>
      <point x="179" y="750" type="line"/>
      <point x="213" y="780"/>
      <point x="246" y="806"/>
      <point x="279" y="829" type="curve"/>
      <point x="305" y="808"/>
      <point x="331" y="785"/>
      <point x="360" y="759" type="curve"/>
      <point x="418" y="803" type="line"/>
      <point x="385" y="843"/>
      <point x="355" y="881"/>
      <point x="317" y="918" type="curve"/>
    </contour>
  </outline>
</glyph>
<glyph name="Thorn" format="1">
  <advance width="465"/>
  <unicode hex="00DE"/>
  <outline>
    <contour>
      <point x="78" y="704" type="line"/>
      <point x="72" y="581"/>
      <point x="69" y="476"/>
      <point x="69" y="368" type="curve" smooth="yes"/>
      <point x="69" y="249"/>
      <point x="73" y="128"/>
      <point x="82" y="-13" type="curve" name="hr01"/>
      <point x="217" y="-25" type="line"/>
      <point x="215" y="3"/>
      <point x="212" y="32"/>
      <point x="211" y="62" type="curve"/>
      <point x="212" y="70"/>
      <point x="212" y="77"/>
      <point x="212" y="85" type="curve"/>
      <point x="362" y="129"/>
      <point x="475" y="228"/>
      <point x="475" y="358" type="curve" smooth="yes"/>
      <point x="475" y="506"/>
      <point x="357" y="594"/>
      <point x="249" y="594" type="curve" smooth="yes"/>
      <point x="235" y="594"/>
      <point x="221" y="593"/>
      <point x="207" y="591" type="curve"/>
      <point x="208" y="625"/>
      <point x="210" y="659"/>
      <point x="213" y="692" type="curve"/>
    </contour>
    <contour>
      <point x="249" y="477" type="curve" smooth="yes"/>
      <point x="292" y="477"/>
      <point x="338" y="432"/>
      <point x="338" y="358" type="curve" smooth="yes"/>
      <point x="338" y="289"/>
      <point x="287" y="227"/>
      <point x="205" y="200" type="curve"/>
      <point x="204" y="249"/>
      <point x="203" y="300"/>
      <point x="203" y="351" type="curve" smooth="yes"/>
      <point x="203" y="389"/>
      <point x="203" y="427"/>
      <point x="204" y="465" type="curve"/>
      <point x="218" y="472"/>
      <point x="231" y="477"/>
    </contour>
  </outline>
</glyph>
<glyph name="agrave" format="1">
  <advance width="390"/>
  <unicode hex="00E0"/>
  <outline>
    <contour>
      <point x="138" y="286" type="line"/>
      <point x="146" y="326"/>
      <point x="168" y="373"/>
      <point x="195" y="373" type="curve" smooth="yes"/>
      <point x="229" y="373"/>
      <point x="233" y="328"/>
      <point x="233" y="294" type="curve" smooth="yes"/>
      <point x="233" y="267" type="line"/>
      <point x="132" y="265"/>
      <point x="33" y="203"/>
      <point x="33" y="110" type="curve" smooth="yes"/>
      <point x="33" y="38"/>
      <point x="78" y="-10"/>
      <point x="153" y="-10" type="curve" smooth="yes"/>
      <point x="185" y="-10"/>
      <point x="216" y="2"/>
      <point x="242" y="17" type="curve"/>
      <point x="250" y="-15" type="line"/>
      <point x="334" y="-22" type="line" name="hr01"/>
      <point x="341" y="85"/>
      <point x="346" y="189"/>
      <point x="346" y="280" type="curve" smooth="yes" name="hr02"/>
      <point x="346" y="385"/>
      <point x="313" y="482"/>
      <point x="207" y="482" type="curve" smooth="yes"/>
      <point x="118" y="482"/>
      <point x="64" y="388"/>
      <point x="46" y="295" type="curve"/>
    </contour>
    <contour>
      <point x="228" y="90" type="line"/>
      <point x="206" y="81"/>
      <point x="188" y="78"/>
      <point x="173" y="78" type="curve" smooth="yes"/>
      <point x="150" y="78"/>
      <point x="135" y="90"/>
      <point x="135" y="110" type="curve" smooth="yes"/>
      <point x="135" y="134"/>
      <point x="161" y="168"/>
      <point x="230" y="174" type="curve"/>
    </contour>
    <contour>
      <point x="287" y="572" type="line"/>
      <point x="229" y="610"/>
      <point x="172" y="647"/>
      <point x="103" y="677" type="curve"/>
      <point x="49" y="588" type="line"/>
      <point x="112" y="573"/>
      <point x="174" y="550"/>
      <point x="242" y="515" type="curve"/>
    </contour>
  </outline>
</glyph>
<glyph name="ccedilla" format="1">
  <advance width="354"/>
  <unicode hex="00E7"/>
  <outline>
    <contour>
      <point x="327" y="247" type="line"/>
      <point x="333" y="261"/>
      <point x="336" y="278"/>
      <point x="336" y="297" type="curve" smooth="yes"/>
      <point x="336" y="379"/>
      <point x="289" y="477"/>
      <point x="202" y="477" type="curve" smooth="yes"/>
      <point x="64" y="477"/>
      <point x="32" y="264"/>
      <point x="32" y="161" type="curve" smooth="yes"/>
      <point x="32" y="48"/>
      <point x="90" y="-5"/>
      <point x="154" y="-18" type="curve"/>
      <point x="140" y="-52"/>
      <point x="134" y="-85"/>
      <point x="133" y="-129" type="curve"/>
      <point x="161" y="-132" type="line"/>
      <point x="171" y="-127"/>
      <point x="180" y="-125"/>
      <point x="189" y="-125" type="curve" smooth="yes"/>
      <point x="209" y="-125"/>
      <point x="224" y="-137"/>
      <point x="224" y="-153" type="curve" smooth="yes"/>
      <point x="224" y="-172"/>
      <point x="203" y="-181"/>
      <point x="182" y="-181" type="curve" smooth="yes"/>
      <point x="147" y="-181"/>
      <point x="97" y="-160"/>
      <point x="67" y="-144" type="curve"/>
      <point x="49" y="-189" type="line"/>
      <point x="86" y="-217"/>
      <point x="135" y="-232"/>
      <point x="184" y="-232" type="curve" smooth="yes"/>
      <point x="263" y="-232"/>
      <point x="310" y="-201"/>
      <point x="310" y="-139" type="curve" smooth="yes" name="hr01"/>
      <point x="310" y="-90"/>
      <point x="267" y="-62"/>
      <point x="225" y="-62" type="curve" smooth="yes"/>
      <point x="217" y="-62"/>
      <point x="210" y="-63"/>
      <point x="202" y="-65" type="curve"/>
      <point x="196" y="-47"/>
      <point x="194" y="-35"/>
      <point x="194" y="-21" type="curve"/>
      <point x="261" y="-16"/>
      <point x="312" y="48"/>
      <point x="345" y="138" type="curve"/>
      <point x="271" y="191" type="line"/>
      <point x="239" y="130"/>
      <point x="209" y="86"/>
      <point x="186" y="86" type="curve" smooth="yes"/>
      <point x="168" y="86"/>
      <point x="149" y="107"/>
      <point x="149" y="161" type="curve" smooth="yes"/>
      <point x="149" y="227"/>
      <point x="159" y="360"/>
      <point x="202" y="360" type="curve" smooth="yes"/>
      <point x="221" y="360"/>
      <point x="234" y="321"/>
      <point x="234" y="288" type="curve" smooth="yes"/>
      <point x="234" y="277"/>
      <point x="233" y="263"/>
      <point x="232" y="256" type="curve"/>
    </contour>
  </outline>
</glyph>
<glyph name="eacute" format="1">
  <advance width="367"/>
  <unicode hex="00E9"/>
  <outline>
    <contour>
      <point x="351" y="200" type="curve" name="hr00"/>
      <point x="350" y="276"/>
      <point x="352" y="477"/>
      <point x="206" y="477" type="curve" smooth="yes"/>
      <point x="67" y="477"/>
      <point x="25" y="297"/>
      <point x="25" y="177" type="curve" smooth="yes"/>
      <point x="25" y="51"/>
      <point x="94" y="-21"/>
      <point x="174" y="-21" type="curve" smooth="yes"/>
      <point x="266" y="-21"/>
      <point x="312" y="48"/>
      <point x="341" y="100" type="curve"/>
      <point x="265" y="145" type="line"/>
      <point x="246" y="113"/>
      <point x="218" y="72"/>
      <point x="184" y="72" type="curve" smooth="yes"/>
      <point x="165" y="72"/>
      <point x="148" y="105"/>
      <point x="144" y="160" type="curve"/>
      <point x="209" y="169"/>
      <point x="301" y="186"/>
    </contour>
    <contour>
      <point x="206" y="379" type="curve" smooth="yes"/>
      <point x="229" y="379"/>
      <point x="238" y="317"/>
      <point x="238" y="254" type="curve"/>
      <point x="208" y="246"/>
      <point x="176" y="239"/>
      <point x="146" y="233" type="curve"/>
      <point x="150" y="307"/>
      <point x="175" y="379"/>
    </contour>
    <contour>
      <point x="185" y="515" type="line"/>
      <point x="253" y="550"/>
      <point x="315" y="573"/>
      <point x="378" y="588" type="curve"/>
      <point x="324" y="677" type="line"/>
      <point x="255" y="647"/>
      <point x="198" y="610"/>
      <point x="140" y="572" type="curve"/>
    </contour>
  </outline>
</glyph>
<glyph name="edieresis" format="1">
  <advance width="367"/>
  <unicode hex="00EB"/>
  <outline>
    <contour>
      <point x="351" y="200" type="curve" name="hr00"/>
      <point x="350" y="276"/>
      <point x="352" y="477"/>
      <point x="206" y="477" type="curve" smooth="yes"/>
      <point x="67" y="477"/>
      <point x="25" y="297"/>
      <point x="25" y="177" type="curve" smooth="yes"/>
      <point x="25" y="51"/>
      <point x="94" y="-21"/>
      <point x="174" y="-21" type="curve" smooth="yes"/>
      <point x="266" y="-21"/>
      <point x="312" y="48"/>
      <point x="341" y="100" type="curve"/>
      <point x="265" y="145" type="line"/>
      <point x="246" y="113"/>
      <point x="218" y="72"/>
      <point x="184" y="72" type="curve" smooth="yes"/>
      <point x="165" y="72"/>
      <point x="148" y="105"/>
      <point x="144" y="160" type="curve"/>
      <point x="209" y="169"/>
      <point x="301" y="186"/>
    </contour>
    <contour>
      <point x="206" y="379" type="curve" smooth="yes"/>
      <point x="229" y="379"/>
      <point x="238" y="317"/>
      <point x="238" y="254" type="curve"/>
      <point x="208" y="246"/>
      <point x="176" y="239"/>
      <point x="146" y="233" type="curve"/>
      <point x="150" y="307"/>
      <point x="175" y="379"/>
    </contour>
    <contour>
      <point x="78" y="657" type="line"/>
      <point x="79" y="639"/>
      <point x="79" y="623"/>
      <point x="79" y="603" type="curve" smooth="yes"/>
      <point x="79" y="580"/>
      <point x="74" y="559"/>
      <point x="70" y="537" type="curve"/>
      <point x="165" y="527" type="line"/>
      <point x="176" y="544"/>
      <point x="179" y="569"/>
      <point x="179" y="592" type="curve" smooth="yes"/>
      <point x="179" y="611"/>
      <point x="179" y="633"/>
      <point x="168" y="649" type="curve"/>
    </contour>
    <contour>
      <point x="233" y="659" type="line"/>
      <point x="234" y="641"/>
      <point x="234" y="625"/>
      <point x="234" y="605" type="curve" smooth="yes"/>
      <point x="234" y="582"/>
      <point x="229" y="561"/>
      <point x="225" y="539" type="curve"/>
      <point x="320" y="529" type="line"/>
      <point x="331" y="546"/>
      <point x="334" y="571"/>
      <point x="334" y="594" type="curve" smooth="yes"/>
      <point x="334" y="613"/>
      <point x="334" y="635"/>
      <point x="323" y="651" type="curve"/>
    </contour>
  </outline>
</glyph>
<glyph name="idieresis" format="1">
  <advance width="236"/>
  <unicode hex="00EF"/>
  <outline>
    <contour>
      <point x="69" y="477" type="line" name="hr00"/>
      <point x="69" y="-3" type="line"/>
      <point x="183" y="-14" type="line"/>
      <point x="183" y="466" type="line"/>
    </contour>
    <contour>
      <point x="0" y="657" type="line"/>
      <point x="1" y="639"/>
      <point x="1" y="623"/>
      <point x="1" y="603" type="curve" smooth="yes"/>
      <point x="1" y="580"/>
      <point x="-4" y="559"/>
      <point x="-8" y="537" type="curve"/>
      <point x="87" y="527" type="line"/>
      <point x="98" y="544"/>
      <point x="101" y="569"/>
      <point x="101" y="592" type="curve" smooth="yes"/>
      <point x="101" y="611"/>
      <point x="101" y="633"/>
      <point x="90" y="649" type="curve"/>
    </contour>
    <contour>
      <point x="155" y="659" type="line"/>
      <point x="156" y="641"/>
      <point x="156" y="625"/>
      <point x="156" y="605" type="curve" smooth="yes"/>
      <point x="156" y="582"/>
      <point x="151" y="561"/>
      <point x="147" y="539" type="curve"/>
      <point x="242" y="529" type="line"/>
      <point x="253" y="546"/>
      <point x="256" y="571"/>
      <point x="256" y="594" type="curve" smooth="yes"/>
      <point x="256" y="613"/>
      <point x="256" y="635"/>
      <point x="245" y="651" type="curve"/>
    </contour>
  </outline>
</glyph>
<glyph name="eth" format="1">
  <advance width="368"/>
  <unicode hex="00F0"/>
  <outline>
    <contour>
      <point x="319" y="654" type="line" name="hr00"/>
      <point x="287" y="645"/>
      <point x="257" y="635"/>
      <point x="228" y="624" type="curve"/>
      <point x="209" y="649"/>
      <point x="189" y="672"/>
      <point x="172" y="692" type="curve"/>
      <point x="84" y="630" type="line"/>
      <point x="100" y="616"/>
      <point x="116" y="600"/>
      <point x="131" y="583" type="curve"/>
      <point x="93" y="565"/>
      <point x="59" y="547"/>
      <point x="31" y="531" type="curve"/>
      <point x="54" y="474" type="line"/>
      <point x="84" y="492"/>
      <point x="125" y="513"/>
      <point x="171" y="532" type="curve"/>
      <point x="189" y="506"/>
      <point x="205" y="477"/>
      <point x="218" y="447" type="curve"/>
      <point x="200" y="454"/>
      <point x="181" y="459"/>
      <point x="161" y="459" type="curve" smooth="yes"/>
      <point x="70" y="459"/>
      <point x="17" y="275"/>
      <point x="17" y="179" type="curve" smooth="yes"/>
      <point x="17" y="72"/>
      <point x="61" y="-30"/>
      <point x="173" y="-30" type="curve" smooth="yes"/>
      <point x="269" y="-30"/>
      <point x="371" y="94"/>
      <point x="371" y="280" type="curve" smooth="yes"/>
      <point x="371" y="386"/>
      <point x="323" y="486"/>
      <point x="268" y="569" type="curve"/>
      <point x="295" y="578"/>
      <point x="324" y="585"/>
      <point x="351" y="591" type="curve"/>
    </contour>
    <contour>
      <point x="256" y="280" type="curve" smooth="yes"/>
      <point x="256" y="160"/>
      <point x="215" y="80"/>
      <point x="178" y="80" type="curve" smooth="yes"/>
      <point x="142" y="80"/>
      <point x="132" y="128"/>
      <point x="132" y="179" type="curve" smooth="yes"/>
      <point x="132" y="241"/>
      <point x="157" y="364"/>
      <point x="196" y="364" type="curve" smooth="yes"/>
      <point x="209" y="364"/>
      <point x="233" y="354"/>
      <point x="250" y="346" type="curve"/>
      <point x="254" y="324"/>
      <point x="256" y="302"/>
    </contour>
  </outline>
</glyph>
<glyph name="ntilde" format="1">
  <advance width="424"/>
  <unicode hex="00F1"/>
  <outline>
    <contour>
      <point x="51" y="433" type="line"/>
      <point x="47" y="376"/>
      <point x="45" y="321"/>
      <point x="45" y="264" type="curve" smooth="yes"/>
      <point x="45" y="174"/>
      <point x="49" y="83"/>
      <point x="56" y="-7" type="curve"/>
      <point x="173" y="-18" type="line"/>
      <point x="170" y="33"/>
      <point x="167" y="82"/>
      <point x="165" y="130" type="curve"/>
      <point x="173" y="236"/>
      <point x="217" y="368"/>
      <point x="237" y="368" type="curve" smooth="yes"/>
      <point x="263" y="368"/>
      <point x="270" y="299"/>
      <point x="270" y="237" type="curve" smooth="yes"/>
      <point x="270" y="170"/>
      <point x="267" y="104"/>
      <point x="259" y="21" type="curve"/>
      <point x="376" y="10" type="line"/>
      <point x="385" y="100"/>
      <point x="389" y="184"/>
      <point x="389" y="256" type="curve" smooth="yes"/>
      <point x="389" y="358"/>
      <point x="369" y="476"/>
      <point x="257" y="476" type="curve" smooth="yes"/>
      <point x="213" y="476"/>
      <point x="173" y="426"/>
      <point x="140" y="360" type="curve"/>
      <point x="135" y="381"/>
      <point x="129" y="403"/>
      <point x="125" y="425" type="curve"/>
    </contour>
    <contour>
      <point x="311" y="651" type="line"/>
      <point x="299" y="635"/>
      <point x="282" y="619"/>
      <point x="259" y="619" type="curve" smooth="yes"/>
      <point x="228" y="619"/>
      <point x="203" y="647"/>
      <point x="164" y="647" type="curve" smooth="yes" name="hr01"/>
      <point x="118" y="647"/>
      <point x="89" y="600"/>
      <point x="71" y="562" type="curve"/>
      <point x="131" y="530" type="line"/>
      <point x="143" y="542"/>
      <point x="159" y="553"/>
      <point x="181" y="553" type="curve" smooth="yes"/>
      <point x="212" y="553"/>
      <point x="230" y="535"/>
      <point x="276" y="535" type="curve" smooth="yes" name="hr02"/>
      <point x="323" y="535"/>
      <point x="367" y="594"/>
      <point x="371" y="646" type="curve"/>
    </contour>
  </outline>
</glyph>
<glyph name="oacute" format="1">
  <advance width="368"/>
  <unicode hex="00F3"/>
  <outline>
    <contour>
      <point x="141" y="180" type="curve" smooth="yes" name="hr00"/>
      <point x="141" y="248"/>
      <point x="161" y="380"/>
      <point x="201" y="380" type="curve" smooth="yes"/>
      <point x="234" y="380"/>
      <point x="243" y="313"/>
      <point x="243" y="262" type="curve" smooth="yes"/>
      <point x="243" y="179"/>
      <point x="222" y="67"/>
      <point x="191" y="67" type="curve" smooth="yes"/>
      <point x="166" y="67"/>
      <point x="141" y="89"/>
    </contour>
    <contour>
      <point x="24" y="189" type="curve" smooth="yes"/>
      <point x="24" y="17"/>
      <point x="105" y="-26"/>
      <point x="191" y="-26" type="curve" smooth="yes"/>
      <point x="306" y="-26"/>
      <point x="360" y="122"/>
      <point x="360" y="252" type="curve" smooth="yes"/>
      <point x="360" y="347"/>
      <point x="325" y="473"/>
      <point x="201" y="473" type="curve" smooth="yes"/>
      <point x="70" y="473"/>
      <point x="24" y="297"/>
    </contour>
    <contour>
      <point x="174" y="515" type="line"/>
      <point x="242" y="550"/>
      <point x="304" y="573"/>
      <point x="367" y="588" type="curve"/>
      <point x="313" y="677" type="line"/>
      <point x="244" y="647"/>
      <point x="187" y="610"/>
      <point x="129" y="572" type="curve"/>
    </contour>
  </outline>
</glyph>
<glyph name="ocircumflex" format="1">
  <advance width="368"/>
  <unicode hex="00F4"/>
  <outline>
    <contour>
      <point x="141" y="180" type="curve" smooth="yes" name="hr00"/>
      <point x="141" y="248"/>
      <point x="161" y="380"/>
      <point x="201" y="380" type="curve" smooth="yes"/>
      <point x="234" y="380"/>
      <point x="243" y="313"/>
      <point x="243" y="262" type="curve" smooth="yes"/>
      <point x="243" y="179"/>
      <point x="222" y="67"/>
      <point x="191" y="67" type="curve" smooth="yes"/>
      <point x="166" y="67"/>
      <point x="141" y="89"/>
    </contour>
    <contour>
      <point x="24" y="189" type="curve" smooth="yes"/>
      <point x="24" y="17"/>
      <point x="105" y="-26"/>
      <point x="191" y="-26" type="curve" smooth="yes"/>
      <point x="306" y="-26"/>
      <point x="360" y="122"/>
      <point x="360" y="252" type="curve" smooth="yes"/>
      <point x="360" y="347"/>
      <point x="325" y="473"/>
      <point x="201" y="473" type="curve" smooth="yes"/>
      <point x="70" y="473"/>
      <point x="24" y="297"/>
    </contour>
    <contour>
      <point x="184" y="672" type="line"/>
      <point x="136" y="630"/>
      <point x="96" y="587"/>
      <point x="56" y="542" type="curve"/>
      <point x="114" y="499" type="line"/>
      <point x="148" y="529"/>
      <point x="181" y="555"/>
      <point x="214" y="578" type="curve"/>
      <point x="240" y="557"/>
      <point x="266" y="534"/>
      <point x="295" y="508" type="curve"/>
      <point x="353" y="552" type="line"/>
      <point x="320" y="592"/>
      <point x="290" y="630"/>
      <point x="252" y="667" type="curve"/>
    </contour>
  </outline>
</glyph>
<glyph name="otilde" format="1">
  <advance width="368"/>
  <unicode hex="00F5"/>
  <outline>
    <contour>
      <point x="141" y="180" type="curve" smooth="yes"/>
      <point x="141" y="248"/>
      <point x="161" y="380"/>
      <point x="201" y="380" type="curve" smooth="yes"/>
      <point x="234" y="380"/>
      <point x="243" y="313"/>
      <point x="243" y="262" type="curve" smooth="yes"/>
      <point x="243" y="179"/>
      <point x="222" y="67"/>
      <point x="191" y="67" type="curve" smooth="yes"/>
      <point x="166" y="67"/>
      <point x="141" y="89"/>
    </contour>
    <contour>
      <point x="24" y="189" type="curve" smooth="yes"/>
      <point x="24" y="17"/>
      <point x="105" y="-26"/>
      <point x="191" y="-26" type="curve" smooth="yes"/>
      <point x="306" y="-26"/>
      <point x="360" y="122"/>
      <point x="360" y="252" type="curve" smooth="yes"/>
      <point x="360" y="347"/>
      <point x="325" y="473"/>
      <point x="201" y="473" type="curve" smooth="yes"/>
      <point x="70" y="473"/>
      <point x="24" y="297"/>
    </contour>
    <contour>
      <point x="289" y="651" type="line"/>
      <point x="277" y="635"/>
      <point x="260" y="619"/>
      <point x="237" y="619" type="curve" smooth="yes"/>
      <point x="206" y="619"/>
      <point x="181" y="647"/>
      <point x="142" y="647" type="curve" smooth="yes" name="hr01"/>
      <point x="96" y="647"/>
      <point x="67" y="600"/>
      <point x="49" y="562" type="curve"/>
      <point x="109" y="530" type="line"/>
      <point x="121" y="542"/>
      <point x="137" y="553"/>
      <point x="159" y="553" type="curve" smooth="yes"/>
      <point x="190" y="553"/>
      <point x="208" y="535"/>
      <point x="254" y="535" type="curve" smooth="yes" name="hr02"/>
      <point x="301" y="535"/>
      <point x="345" y="594"/>
      <point x="349" y="646" type="curve"/>
    </contour>
  </outline>
</glyph>
<glyph name="divide" format="1">
  <advance width="833"/>
  <unicode hex="00F7"/>
  <outline>
    <contour>
      <point x="720" y="352" type="line" name="hr00"/>
      <point x="645" y="361"/>
      <point x="558" y="363"/>
      <point x="479" y="363" type="curve" smooth="yes"/>
      <point x="347" y="363"/>
      <point x="235" y="355"/>
      <point x="123" y="355" type="curve"/>
      <point x="123" y="235" type="line"/>
      <point x="248" y="236"/>
      <point x="369" y="243"/>
      <point x="489" y="243" type="curve" smooth="yes"/>
      <point x="567" y="243"/>
      <point x="636" y="241"/>
      <point x="702" y="232" type="curve"/>
    </contour>
    <contour>
      <point x="350" y="179" type="line"/>
      <point x="351" y="154"/>
      <point x="351" y="127"/>
      <point x="351" y="102" type="curve" smooth="yes"/>
      <point x="351" y="77"/>
      <point x="348" y="56"/>
      <point x="343" y="32" type="curve"/>
      <point x="473" y="22" type="line"/>
      <point x="483" y="39"/>
      <point x="486" y="67"/>
      <point x="486" y="92" type="curve" smooth="yes"/>
      <point x="486" y="119"/>
      <point x="482" y="145"/>
      <point x="476" y="168" type="curve"/>
    </contour>
    <contour>
      <point x="350" y="576" type="line"/>
      <point x="351" y="551"/>
      <point x="351" y="524"/>
      <point x="351" y="499" type="curve" smooth="yes"/>
      <point x="351" y="474"/>
      <point x="348" y="453"/>
      <point x="343" y="429" type="curve"/>
      <point x="473" y="419" type="line"/>
      <point x="483" y="436"/>
      <point x="486" y="464"/>
      <point x="486" y="489" type="curve" smooth="yes"/>
      <point x="486" y="516"/>
      <point x="482" y="542"/>
      <point x="476" y="565" type="curve"/>
    </contour>
  </outline>
</glyph>
<glyph name="oslash" format="1">
  <advance width="368"/>
  <unicode hex="00F8"/>
  <outline>
    <contour>
      <point x="24" y="189" type="curve" smooth="yes" name="hr00"/>
      <point x="24" y="135"/>
      <point x="32" y="93"/>
      <point x="46" y="62" type="curve"/>
      <point x="-23" y="-46" type="line"/>
      <point x="23" y="-71" type="line"/>
      <point x="77" y="15" type="line"/>
      <point x="108" y="-15"/>
      <point x="149" y="-26"/>
      <point x="191" y="-26" type="curve" smooth="yes"/>
      <point x="306" y="-26"/>
      <point x="360" y="122"/>
      <point x="360" y="252" type="curve" smooth="yes"/>
      <point x="360" y="295"/>
      <point x="353" y="345"/>
      <point x="333" y="386" type="curve"/>
      <point x="360" y="421"/>
      <point x="388" y="454"/>
      <point x="417" y="487" type="curve"/>
      <point x="377" y="521" type="line"/>
      <point x="352" y="492"/>
      <point x="327" y="462"/>
      <point x="303" y="431" type="curve"/>
      <point x="279" y="457"/>
      <point x="245" y="473"/>
      <point x="201" y="473" type="curve" smooth="yes"/>
      <point x="70" y="473"/>
      <point x="24" y="297"/>
    </contour>
    <contour>
      <point x="247" y="269" type="curve"/>
      <point x="247" y="177"/>
      <point x="224" y="63"/>
      <point x="191" y="63" type="curve" smooth="yes"/>
      <point x="171" y="63"/>
      <point x="152" y="74"/>
      <point x="143" y="115" type="curve"/>
      <point x="178" y="169"/>
      <point x="212" y="219"/>
    </contour>
    <contour>
      <point x="137" y="190" type="curve"/>
      <point x="139" y="261"/>
      <point x="160" y="384"/>
      <point x="201" y="384" type="curve" smooth="yes"/>
      <point x="220" y="384"/>
      <point x="232" y="363"/>
      <point x="239" y="336" type="curve"/>
      <point x="204" y="289"/>
      <point x="171" y="241"/>
    </contour>
  </outline>
</glyph>
<glyph name="ugrave" format="1">
  <advance width="420"/>
  <unicode hex="00F9"/>
  <outline>
    <contour>
      <point x="262" y="479" type="line"/>
      <point x="261" y="428"/>
      <point x="259" y="368"/>
      <point x="259" y="311" type="curve" smooth="yes"/>
      <point x="259" y="289"/>
      <point x="259" y="266"/>
      <point x="260" y="244" type="curve"/>
      <point x="242" y="164"/>
      <point x="209" y="104"/>
      <point x="189" y="104" type="curve" smooth="yes"/>
      <point x="167" y="104"/>
      <point x="157" y="124"/>
      <point x="157" y="155" type="curve" smooth="yes"/>
      <point x="157" y="267"/>
      <point x="165" y="344"/>
      <point x="175" y="439" type="curve"/>
      <point x="59" y="450" type="line"/>
      <point x="48" y="346"/>
      <point x="40" y="259"/>
      <point x="40" y="140" type="curve" smooth="yes"/>
      <point x="40" y="50"/>
      <point x="87" y="-3"/>
      <point x="165" y="-3" type="curve" smooth="yes"/>
      <point x="201" y="-3"/>
      <point x="238" y="28"/>
      <point x="272" y="78" type="curve"/>
      <point x="279" y="47"/>
      <point x="283" y="18"/>
      <point x="285" y="-7" type="curve"/>
      <point x="384" y="-17" type="line" name="hr01"/>
      <point x="378" y="62"/>
      <point x="376" y="190"/>
      <point x="376" y="311" type="curve" smooth="yes"/>
      <point x="376" y="368"/>
      <point x="378" y="418"/>
      <point x="378" y="469" type="curve"/>
    </contour>
    <contour>
      <point x="287" y="572" type="line"/>
      <point x="229" y="610"/>
      <point x="172" y="647"/>
      <point x="103" y="677" type="curve"/>
      <point x="49" y="588" type="line"/>
      <point x="112" y="573"/>
      <point x="174" y="550"/>
      <point x="242" y="515" type="curve"/>
    </contour>
  </outline>
</glyph>
<glyph name="udieresis" format="1">
  <advance width="420"/>
  <unicode hex="00FC"/>
  <outline>
    <contour>
      <point x="262" y="479" type="line"/>
      <point x="261" y="428"/>
      <point x="259" y="368"/>
      <point x="259" y="311" type="curve" smooth="yes"/>
      <point x="259" y="289"/>
      <point x="259" y="266"/>
      <point x="260" y="244" type="curve"/>
      <point x="242" y="164"/>
      <point x="209" y="104"/>
      <point x="189" y="104" type="curve" smooth="yes"/>
      <point x="167" y="104"/>
      <point x="157" y="124"/>
      <point x="157" y="155" type="curve" smooth="yes"/>
      <point x="157" y="267"/>
      <point x="165" y="344"/>
      <point x="175" y="439" type="curve"/>
      <point x="59" y="450" type="line"/>
      <point x="48" y="346"/>
      <point x="40" y="259"/>
      <point x="40" y="140" type="curve" smooth="yes"/>
      <point x="40" y="50"/>
      <point x="87" y="-3"/>
      <point x="165" y="-3" type="curve" smooth="yes"/>
      <point x="201" y="-3"/>
      <point x="238" y="28"/>
      <point x="272" y="78" type="curve"/>
      <point x="279" y="47"/>
      <point x="283" y="18"/>
      <point x="285" y="-7" type="curve"/>
      <point x="384" y="-17" type="line" name="hr01"/>
      <point x="378" y="62"/>
      <point x="376" y="190"/>
      <point x="376" y="311" type="curve" smooth="yes"/>
      <point x="376" y="368"/>
      <point x="378" y="418"/>
      <point x="378" y="469" type="curve"/>
    </contour>
    <contour>
      <point x="87" y="657" type="line"/>
      <point x="88" y="639"/>
      <point x="88" y="623"/>
      <point x="88" y="603" type="curve" smooth="yes"/>
      <point x="88" y="580"/>
      <point x="83" y="559"/>
      <point x="79" y="537" type="curve"/>
      <point x="174" y="527" type="line"/>
      <point x="185" y="544"/>
      <point x="188" y="569"/>
      <point x="188" y="592" type="curve" smooth="yes"/>
      <point x="188" y="611"/>
      <point x="188" y="633"/>
      <point x="177" y="649" type="curve"/>
    </contour>
    <contour>
      <point x="242" y="659" type="line"/>
      <point x="243" y="641"/>
      <point x="243" y="625"/>
      <point x="243" y="605" type="curve" smooth="yes"/>
      <point x="243" y="582"/>
      <point x="238" y="561"/>
      <point x="234" y="539" type="curve"/>
      <point x="329" y="529" type="line"/>
      <point x="340" y="546"/>
      <point x="343" y="571"/>
      <point x="343" y="594" type="curve" smooth="yes"/>
      <point x="343" y="613"/>
      <point x="343" y="635"/>
      <point x="332" y="651" type="curve"/>
    </contour>
  </outline>
</glyph>
<glyph name="thorn" format="1">
  <advance width="410"/>
  <unicode hex="00FE"/>
  <outline>
    <contour>
      <point x="74" y="733" type="line" name="hr00"/>
      <point x="67" y="603"/>
      <point x="63" y="499"/>
      <point x="63" y="365" type="curve" smooth="yes"/>
      <point x="63" y="154"/>
      <point x="67" y="-29"/>
      <point x="72" y="-233" type="curve"/>
      <point x="189" y="-245" type="line"/>
      <point x="185" y="-165"/>
      <point x="183" y="-79"/>
      <point x="182" y="6" type="curve"/>
      <point x="205" y="-12"/>
      <point x="232" y="-21"/>
      <point x="259" y="-21" type="curve" smooth="yes"/>
      <point x="350" y="-21"/>
      <point x="400" y="149"/>
      <point x="400" y="296" type="curve" smooth="yes"/>
      <point x="400" y="375"/>
      <point x="375" y="471"/>
      <point x="305" y="471" type="curve" smooth="yes"/>
      <point x="262" y="471"/>
      <point x="215" y="427"/>
      <point x="176" y="365" type="curve"/>
      <point x="176" y="497"/>
      <point x="180" y="592"/>
      <point x="188" y="723" type="curve"/>
    </contour>
    <contour>
      <point x="176" y="194" type="curve"/>
      <point x="210" y="304"/>
      <point x="235" y="341"/>
      <point x="259" y="341" type="curve" smooth="yes"/>
      <point x="285" y="341"/>
      <point x="288" y="304"/>
      <point x="288" y="252" type="curve" smooth="yes"/>
      <point x="288" y="185"/>
      <point x="261" y="86"/>
      <point x="225" y="86" type="curve" smooth="yes"/>
      <point x="200" y="86"/>
      <point x="192" y="95"/>
      <point x="177" y="116" type="curve"/>
      <point x="177" y="141"/>
      <point x="176" y="170"/>
    </contour>
  </outline>
</glyph>
<glyph name="Cacute" format="1">
  <advance width="482"/>
  <unicode hex="0106"/>
  <outline>
    <contour>
      <point x="451" y="384" type="line" name="hr00"/>
      <point x="448" y="524"/>
      <point x="439" y="703"/>
      <point x="278" y="703" type="curve" smooth="yes"/>
      <point x="96" y="703"/>
      <point x="26" y="432"/>
      <point x="26" y="259" type="curve" smooth="yes"/>
      <point x="26" y="99"/>
      <point x="101" y="-30"/>
      <point x="251" y="-30" type="curve" smooth="yes"/>
      <point x="380" y="-30"/>
      <point x="440" y="71"/>
      <point x="472" y="223" type="curve"/>
      <point x="345" y="233" type="line"/>
      <point x="327" y="168"/>
      <point x="306" y="98"/>
      <point x="251" y="98" type="curve" smooth="yes"/>
      <point x="187" y="98"/>
      <point x="159" y="167"/>
      <point x="159" y="269" type="curve" smooth="yes"/>
      <point x="159" y="368"/>
      <point x="204" y="575"/>
      <point x="269" y="575" type="curve" smooth="yes"/>
      <point x="320" y="575"/>
      <point x="322" y="468"/>
      <point x="322" y="396" type="curve"/>
    </contour>
    <contour>
      <point x="255" y="766" type="line"/>
      <point x="323" y="801"/>
      <point x="385" y="824"/>
      <point x="448" y="839" type="curve"/>
      <point x="394" y="928" type="line"/>
      <point x="325" y="898"/>
      <point x="268" y="861"/>
      <point x="210" y="823" type="curve"/>
    </contour>
  </outline>
</glyph>
<glyph name="Ccaron" format="1">
  <advance width="482"/>
  <unicode hex="010C"/>
  <outline>
    <contour>
      <point x="451" y="384" type="line" name="hr00"/>
      <point x="448" y="524"/>
      <point x="439" y="703"/>
      <point x="278" y="703" type="curve" smooth="yes"/>
      <point x="96" y="703"/>
      <point x="26" y="432"/>
      <point x="26" y="259" type="curve" smooth="yes"/>
      <point x="26" y="99"/>
      <point x="101" y="-30"/>
      <point x="251" y="-30" type="curve" smooth="yes"/>
      <point x="380" y="-30"/>
      <point x="440" y="71"/>
      <point x="472" y="223" type="curve"/>
      <point x="345" y="233" type="line"/>
      <point x="327" y="168"/>
      <point x="306" y="98"/>
      <point x="251" y="98" type="curve" smooth="yes"/>
      <point x="187" y="98"/>
      <point x="159" y="167"/>
      <point x="159" y="269" type="curve" smooth="yes"/>
      <point x="159" y="368"/>
      <point x="204" y="575"/>
      <point x="269" y="575" type="curve" smooth="yes"/>
      <point x="320" y="575"/>
      <point x="322" y="468"/>
      <point x="322" y="396" type="curve"/>
    </contour>
    <contour>
      <point x="301" y="770" type="line"/>
      <point x="349" y="812"/>
      <point x="389" y="855"/>
      <point x="429" y="900" type="curve"/>
      <point x="371" y="943" type="line"/>
      <point x="337" y="913"/>
      <point x="304" y="887"/>
      <point x="271" y="864" type="curve"/>
      <point x="245" y="885"/>
      <point x="219" y="908"/>
      <point x="190" y="934" type="curve"/>
      <point x="132" y="890" type="line"/>
      <point x="165" y="850"/>
      <point x="195" y="812"/>
      <point x="233" y="775" type="curve"/>
    </contour>
  </outline>
</glyph>
<glyph name="dslash" format="1">
  <advance width="431"/>
  <unicode hex="0111"/>
  <outline>
    <contour>
      <point x="248" y="734" type="line"/>
      <point x="248" y="700"/>
      <point x="250" y="666"/>
      <point x="250" y="637" type="curve"/>
      <point x="190" y="635"/>
      <point x="126" y="630"/>
      <point x="67" y="630" type="curve"/>
      <point x="79" y="541" type="line"/>
      <point x="134" y="541"/>
      <point x="195" y="549"/>
      <point x="251" y="553" type="curve" name="hr01"/>
      <point x="251" y="519"/>
      <point x="250" y="486"/>
      <point x="250" y="453" type="curve"/>
      <point x="221" y="467"/>
      <point x="191" y="477"/>
      <point x="155" y="477" type="curve" smooth="yes"/>
      <point x="84" y="477"/>
      <point x="26" y="303"/>
      <point x="26" y="185" type="curve" smooth="yes"/>
      <point x="26" y="81"/>
      <point x="53" y="2"/>
      <point x="163" y="2" type="curve" smooth="yes"/>
      <point x="199" y="2"/>
      <point x="229" y="34"/>
      <point x="256" y="88" type="curve"/>
      <point x="259" y="34"/>
      <point x="262" y="-6"/>
      <point x="262" y="-6" type="curve"/>
      <point x="351" y="-14" type="line" name="hr02"/>
      <point x="361" y="170"/>
      <point x="367" y="338"/>
      <point x="367" y="520" type="curve" smooth="yes" name="hr03"/>
      <point x="367" y="554" type="line"/>
      <point x="397" y="553"/>
      <point x="427" y="550"/>
      <point x="455" y="547" type="curve"/>
      <point x="451" y="635" type="line"/>
      <point x="424" y="636"/>
      <point x="397" y="637"/>
      <point x="367" y="637" type="curve"/>
      <point x="367" y="724" type="line"/>
    </contour>
    <contour>
      <point x="252" y="264" type="line"/>
      <point x="227" y="171"/>
      <point x="194" y="110"/>
      <point x="177" y="110" type="curve" smooth="yes"/>
      <point x="150" y="110"/>
      <point x="143" y="142"/>
      <point x="143" y="185" type="curve" smooth="yes"/>
      <point x="143" y="263"/>
      <point x="168" y="379"/>
      <point x="204" y="379" type="curve" smooth="yes"/>
      <point x="220" y="379"/>
      <point x="237" y="372"/>
      <point x="253" y="360" type="curve"/>
    </contour>
  </outline>
</glyph>
<glyph name="gbreve" format="1">
  <advance width="404"/>
  <unicode hex="011F"/>
  <outline>
    <contour>
      <point x="193" y="-134" type="curve" smooth="yes"/>
      <point x="150" y="-134"/>
      <point x="121" y="-95"/>
      <point x="102" y="-58" type="curve"/>
      <point x="18" y="-94" type="line"/>
      <point x="52" y="-162"/>
      <point x="118" y="-242"/>
      <point x="208" y="-242" type="curve" smooth="yes"/>
      <point x="336" y="-242"/>
      <point x="369" y="-20"/>
      <point x="369" y="148" type="curve" smooth="yes"/>
      <point x="369" y="289"/>
      <point x="375" y="378"/>
      <point x="382" y="413" type="curve"/>
      <point x="312" y="423" type="line"/>
      <point x="284" y="450"/>
      <point x="244" y="474"/>
      <point x="196" y="474" type="curve" smooth="yes"/>
      <point x="123" y="474"/>
      <point x="27" y="312"/>
      <point x="27" y="147" type="curve" smooth="yes"/>
      <point x="27" y="37"/>
      <point x="83" y="-8"/>
      <point x="150" y="-8" type="curve" smooth="yes"/>
      <point x="195" y="-8"/>
      <point x="231" y="31"/>
      <point x="262" y="87" type="curve"/>
      <point x="262" y="-35"/>
      <point x="235" y="-134"/>
    </contour>
    <contour>
      <point x="265" y="265" type="line"/>
      <point x="246" y="150"/>
      <point x="190" y="84"/>
      <point x="174" y="84" type="curve" smooth="yes"/>
      <point x="159" y="84"/>
      <point x="145" y="103"/>
      <point x="145" y="147" type="curve" smooth="yes"/>
      <point x="145" y="259"/>
      <point x="189" y="372"/>
      <point x="221" y="372" type="curve" smooth="yes"/>
      <point x="238" y="372"/>
      <point x="252" y="357"/>
      <point x="267" y="341" type="curve"/>
    </contour>
    <contour>
      <point x="112" y="655" type="line" name="hr01"/>
      <point x="112" y="577"/>
      <point x="158" y="521"/>
      <point x="235" y="521" type="curve" smooth="yes"/>
      <point x="307" y="521"/>
      <point x="373" y="586"/>
      <point x="373" y="655" type="curve"/>
      <point x="298" y="661" type="line"/>
      <point x="298" y="624"/>
      <point x="268" y="593"/>
      <point x="235" y="593" type="curve" smooth="yes"/>
      <point x="205" y="593"/>
      <point x="187" y="618"/>
      <point x="187" y="649" type="curve"/>
    </contour>
  </outline>
</glyph>
<glyph name="hbar" format="1">
  <advance width="425"/>
  <unicode hex="0127"/>
  <outline>
    <contour>
      <point x="56" y="721" type="line"/>
      <point x="60" y="627" type="line"/>
      <point x="38" y="625"/>
      <point x="16" y="625"/>
      <point x="-5" y="625" type="curve"/>
      <point x="7" y="537" type="line"/>
      <point x="25" y="537"/>
      <point x="43" y="537"/>
      <point x="62" y="538" type="curve"/>
      <point x="62" y="499"/>
      <point x="63" y="458"/>
      <point x="63" y="417" type="curve" smooth="yes"/>
      <point x="63" y="267"/>
      <point x="59" y="115"/>
      <point x="50" y="-4" type="curve" name="hr01"/>
      <point x="167" y="-15" type="line"/>
      <point x="171" y="52"/>
      <point x="175" y="129"/>
      <point x="177" y="212" type="curve"/>
      <point x="197" y="288"/>
      <point x="223" y="352"/>
      <point x="246" y="352" type="curve" smooth="yes"/>
      <point x="273" y="352"/>
      <point x="273" y="318"/>
      <point x="273" y="299" type="curve" smooth="yes"/>
      <point x="273" y="227"/>
      <point x="271" y="115"/>
      <point x="266" y="10" type="curve"/>
      <point x="382" y="-1" type="line"/>
      <point x="390" y="114"/>
      <point x="393" y="226"/>
      <point x="393" y="302" type="curve" smooth="yes"/>
      <point x="393" y="357"/>
      <point x="363" y="464"/>
      <point x="275" y="464" type="curve" smooth="yes"/>
      <point x="241" y="464"/>
      <point x="209" y="442"/>
      <point x="181" y="407" type="curve"/>
      <point x="181" y="453"/>
      <point x="180" y="500"/>
      <point x="179" y="546" type="curve"/>
      <point x="189" y="546" type="line" smooth="yes"/>
      <point x="208" y="546"/>
      <point x="228" y="545"/>
      <point x="248" y="543" type="curve"/>
      <point x="244" y="631" type="line"/>
      <point x="227" y="633"/>
      <point x="209" y="634"/>
      <point x="189" y="634" type="curve" smooth="yes"/>
      <point x="176" y="634" type="line"/>
      <point x="173" y="710" type="line"/>
    </contour>
  </outline>
</glyph>
<glyph name="Idot" format="1">
  <advance width="289"/>
  <unicode hex="0130"/>
  <outline>
    <contour>
      <point x="98" y="704" type="line"/>
      <point x="92" y="581"/>
      <point x="89" y="476"/>
      <point x="89" y="368" type="curve" smooth="yes"/>
      <point x="89" y="249"/>
      <point x="93" y="128"/>
      <point x="102" y="-13" type="curve" name="hr01"/>
      <point x="237" y="-25" type="line"/>
      <point x="228" y="88"/>
      <point x="224" y="219"/>
      <point x="224" y="351" type="curve" smooth="yes"/>
      <point x="224" y="469"/>
      <point x="227" y="587"/>
      <point x="233" y="692" type="curve" name="hr02"/>
    </contour>
    <contour>
      <point x="117" y="910" type="line"/>
      <point x="118" y="892"/>
      <point x="118" y="876"/>
      <point x="118" y="856" type="curve" smooth="yes"/>
      <point x="118" y="833"/>
      <point x="113" y="812"/>
      <point x="109" y="790" type="curve"/>
      <point x="219" y="780" type="line"/>
      <point x="229" y="797"/>
      <point x="233" y="822"/>
      <point x="233" y="845" type="curve" smooth="yes"/>
      <point x="233" y="864"/>
      <point x="233" y="885"/>
      <point x="222" y="901" type="curve"/>
    </contour>
  </outline>
</glyph>
<glyph name="IJ" format="1">
  <advance width="679"/>
  <unicode hex="0132"/>
  <outline>
    <contour>
      <point x="98" y="704" type="line"/>
      <point x="92" y="581"/>
      <point x="89" y="476"/>
      <point x="89" y="368" type="curve" smooth="yes"/>
      <point x="89" y="249"/>
      <point x="93" y="128"/>
      <point x="102" y="-13" type="curve" name="hr01"/>
      <point x="237" y="-25" type="line"/>
      <point x="228" y="88"/>
      <point x="224" y="219"/>
      <point x="224" y="351" type="curve" smooth="yes"/>
      <point x="224" y="469"/>
      <point x="227" y="587"/>
      <point x="233" y="692" type="curve" name="hr02"/>
    </contour>
    <contour>
      <point x="279" y="241" type="line"/>
      <point x="274" y="218"/>
      <point x="271" y="196"/>
      <point x="271" y="174" type="curve" smooth="yes"/>
      <point x="271" y="62"/>
      <point x="342" y="-30"/>
      <point x="457" y="-30" type="curve" smooth="yes"/>
      <point x="590" y="-30"/>
      <point x="636" y="138"/>
      <point x="636" y="240" type="curve" smooth="yes"/>
      <point x="636" y="349"/>
      <point x="636" y="509"/>
      <point x="622" y="689" type="curve" name="hr03"/>
      <point x="481" y="701" type="line"/>
      <point x="495" y="521"/>
      <point x="499" y="349"/>
      <point x="499" y="240" type="curve" smooth="yes" name="hr04"/>
      <point x="499" y="184"/>
      <point x="487" y="92"/>
      <point x="442" y="92" type="curve" smooth="yes"/>
      <point x="413" y="92"/>
      <point x="393" y="133"/>
      <point x="393" y="186" type="curve" smooth="yes"/>
      <point x="393" y="199"/>
      <point x="394" y="214"/>
      <point x="397" y="229" type="curve"/>
    </contour>
  </outline>
</glyph>
<glyph name="ldot" format="1">
  <advance width="496"/>
  <unicode hex="0140"/>
  <outline>
    <contour>
      <point x="79" y="731" type="line"/>
      <point x="70" y="580"/>
      <point x="64" y="405"/>
      <point x="64" y="235" type="curve" smooth="yes" name="hr01"/>
      <point x="64" y="154"/>
      <point x="65" y="70"/>
      <point x="68" y="-8" type="curve"/>
      <point x="186" y="-19" type="line"/>
      <point x="181" y="63"/>
      <point x="181" y="150"/>
      <point x="181" y="235" type="curve" smooth="yes" name="hr02"/>
      <point x="181" y="405"/>
      <point x="187" y="570"/>
      <point x="196" y="722" type="curve"/>
    </contour>
    <contour>
      <point x="246" y="366" type="line"/>
      <point x="247" y="348"/>
      <point x="247" y="332"/>
      <point x="247" y="312" type="curve" smooth="yes" name="hr03"/>
      <point x="247" y="289"/>
      <point x="242" y="268"/>
      <point x="238" y="246" type="curve"/>
      <point x="348" y="236" type="line"/>
      <point x="358" y="253"/>
      <point x="362" y="278"/>
      <point x="362" y="301" type="curve" smooth="yes"/>
      <point x="362" y="320"/>
      <point x="362" y="341"/>
      <point x="351" y="357" type="curve"/>
    </contour>
  </outline>
</glyph>
<glyph name="Lslash" format="1">
  <advance width="397"/>
  <unicode hex="0141"/>
  <outline>
    <contour>
      <point x="191" y="-3" type="line" name="hr00"/>
      <point x="280" y="11"/>
      <point x="341" y="20"/>
      <point x="403" y="27" type="curve"/>
      <point x="383" y="143" type="line"/>
      <point x="326" y="137"/>
      <point x="262" y="131"/>
      <point x="206" y="123" type="curve"/>
      <point x="201" y="195"/>
      <point x="201" y="268"/>
      <point x="201" y="340" type="curve"/>
      <point x="258" y="382"/>
      <point x="321" y="423"/>
      <point x="382" y="455" type="curve"/>
      <point x="325" y="519" type="line"/>
      <point x="281" y="493"/>
      <point x="240" y="466"/>
      <point x="202" y="438" type="curve"/>
      <point x="204" y="518"/>
      <point x="209" y="600"/>
      <point x="216" y="683" type="curve"/>
      <point x="83" y="695" type="line"/>
      <point x="75" y="593"/>
      <point x="72" y="489"/>
      <point x="72" y="385" type="curve" smooth="yes"/>
      <point x="72" y="345" type="line"/>
      <point x="38" y="315"/>
      <point x="8" y="286"/>
      <point x="-17" y="261" type="curve"/>
      <point x="28" y="201" type="line"/>
      <point x="41" y="215"/>
      <point x="56" y="230"/>
      <point x="74" y="246" type="curve"/>
      <point x="76" y="167"/>
      <point x="80" y="86"/>
      <point x="85" y="6" type="curve"/>
    </contour>
  </outline>
</glyph>
<glyph name="oe" format="1">
  <advance width="559"/>
  <unicode hex="0153"/>
  <outline>
    <contour>
      <point x="201" y="473" type="curve" smooth="yes"/>
      <point x="70" y="473"/>
      <point x="24" y="297"/>
      <point x="24" y="189" type="curve" smooth="yes"/>
      <point x="24" y="17"/>
      <point x="105" y="-26"/>
      <point x="191" y="-26" type="curve" smooth="yes"/>
      <point x="228" y="-26"/>
      <point x="259" y="-10"/>
      <point x="284" y="15" type="curve"/>
      <point x="309" y="-8"/>
      <point x="341" y="-21"/>
      <point x="374" y="-21" type="curve" smooth="yes" name="hr01"/>
      <point x="466" y="-21"/>
      <point x="512" y="48"/>
      <point x="541" y="100" type="curve"/>
      <point x="465" y="145" type="line"/>
      <point x="446" y="113"/>
      <point x="418" y="72"/>
      <point x="384" y="72" type="curve" smooth="yes" name="hr02"/>
      <point x="365" y="72"/>
      <point x="348" y="105"/>
      <point x="344" y="160" type="curve"/>
      <point x="409" y="169"/>
      <point x="501" y="186"/>
      <point x="551" y="200" type="curve"/>
      <point x="550" y="276"/>
      <point x="552" y="477"/>
      <point x="406" y="477" type="curve" smooth="yes"/>
      <point x="362" y="477"/>
      <point x="328" y="459"/>
      <point x="302" y="431" type="curve"/>
      <point x="278" y="456"/>
      <point x="245" y="473"/>
    </contour>
    <contour>
      <point x="141" y="180" type="curve" smooth="yes"/>
      <point x="141" y="248"/>
      <point x="161" y="380"/>
      <point x="201" y="380" type="curve" smooth="yes"/>
      <point x="234" y="380"/>
      <point x="243" y="313"/>
      <point x="243" y="262" type="curve" smooth="yes"/>
      <point x="243" y="179"/>
      <point x="222" y="67"/>
      <point x="191" y="67" type="curve" smooth="yes"/>
      <point x="166" y="67"/>
      <point x="141" y="89"/>
    </contour>
    <contour>
      <point x="406" y="379" type="curve" smooth="yes"/>
      <point x="429" y="379"/>
      <point x="438" y="317"/>
      <point x="438" y="254" type="curve"/>
      <point x="408" y="246"/>
      <point x="376" y="239"/>
      <point x="346" y="233" type="curve"/>
      <point x="350" y="307"/>
      <point x="375" y="379"/>
    </contour>
  </outline>
</glyph>
<glyph name="Racute" format="1">
  <advance width="525"/>
  <unicode hex="0154"/>
  <outline>
    <contour>
      <point x="198" y="-24" type="line"/>
      <point x="202" y="71"/>
      <point x="205" y="172"/>
      <point x="207" y="265" type="curve"/>
      <point x="294" y="150"/>
      <point x="373" y="45"/>
      <point x="433" y="-45" type="curve"/>
      <point x="529" y="26" type="line"/>
      <point x="470" y="111"/>
      <point x="406" y="198"/>
      <point x="343" y="277" type="curve"/>
      <point x="432" y="335"/>
      <point x="510" y="414"/>
      <point x="510" y="504" type="curve" smooth="yes"/>
      <point x="510" y="646"/>
      <point x="413" y="718"/>
      <point x="303" y="718" type="curve" smooth="yes"/>
      <point x="230" y="718"/>
      <point x="146" y="700"/>
      <point x="74" y="666" type="curve"/>
      <point x="75" y="607"/>
      <point x="75" y="548"/>
      <point x="75" y="489" type="curve" smooth="yes" name="hr01"/>
      <point x="75" y="323"/>
      <point x="71" y="157"/>
      <point x="62" y="-9" type="curve" name="hr02"/>
    </contour>
    <contour>
      <point x="211" y="584" type="curve" name="hr03"/>
      <point x="245" y="596"/>
      <point x="275" y="601"/>
      <point x="303" y="601" type="curve" smooth="yes"/>
      <point x="347" y="601"/>
      <point x="388" y="574"/>
      <point x="388" y="509" type="curve" smooth="yes"/>
      <point x="388" y="459"/>
      <point x="310" y="380"/>
      <point x="210" y="333" type="curve"/>
      <point x="211" y="415"/>
      <point x="211" y="501"/>
    </contour>
    <contour>
      <point x="239" y="737" type="line"/>
      <point x="307" y="772"/>
      <point x="369" y="795"/>
      <point x="432" y="810" type="curve"/>
      <point x="378" y="899" type="line"/>
      <point x="309" y="869"/>
      <point x="252" y="832"/>
      <point x="194" y="794" type="curve"/>
    </contour>
  </outline>
</glyph>
<glyph name="Rcaron" format="1">
  <advance width="525"/>
  <unicode hex="0158"/>
  <outline>
    <contour>
      <point x="198" y="-24" type="line"/>
      <point x="202" y="71"/>
      <point x="205" y="172"/>
      <point x="207" y="265" type="curve"/>
      <point x="294" y="150"/>
      <point x="373" y="45"/>
      <point x="433" y="-45" type="curve"/>
      <point x="529" y="26" type="line"/>
      <point x="470" y="111"/>
      <point x="406" y="198"/>
      <point x="343" y="277" type="curve"/>
      <point x="432" y="335"/>
      <point x="510" y="414"/>
      <point x="510" y="504" type="curve" smooth="yes"/>
      <point x="510" y="646"/>
      <point x="413" y="718"/>
      <point x="303" y="718" type="curve" smooth="yes"/>
      <point x="230" y="718"/>
      <point x="146" y="700"/>
      <point x="74" y="666" type="curve"/>
      <point x="75" y="607"/>
      <point x="75" y="548"/>
      <point x="75" y="489" type="curve" smooth="yes" name="hr01"/>
      <point x="75" y="323"/>
      <point x="71" y="157"/>
      <point x="62" y="-9" type="curve" name="hr02"/>
    </contour>
    <contour>
      <point x="211" y="584" type="curve" name="hr03"/>
      <point x="245" y="596"/>
      <point x="275" y="601"/>
      <point x="303" y="601" type="curve" smooth="yes"/>
      <point x="347" y="601"/>
      <point x="388" y="574"/>
      <point x="388" y="509" type="curve" smooth="yes"/>
      <point x="388" y="459"/>
      <point x="310" y="380"/>
      <point x="210" y="333" type="curve"/>
      <point x="211" y="415"/>
      <point x="211" y="501"/>
    </contour>
    <contour>
      <point x="323" y="741" type="line"/>
      <point x="371" y="783"/>
      <point x="411" y="826"/>
      <point x="451" y="871" type="curve"/>
      <point x="393" y="914" type="line"/>
      <point x="359" y="884"/>
      <point x="326" y="858"/>
      <point x="293" y="835" type="curve"/>
      <point x="267" y="856"/>
      <point x="241" y="879"/>
      <point x="212" y="905" type="curve"/>
      <point x="154" y="861" type="line"/>
      <point x="187" y="821"/>
      <point x="217" y="783"/>
      <point x="255" y="746" type="curve"/>
    </contour>
  </outline>
</glyph>
<glyph name="rcaron" format="1">
  <advance width="301"/>
  <unicode hex="0159"/>
  <outline>
    <contour>
      <point x="305" y="442" type="line" name="hr00"/>
      <point x="288" y="462"/>
      <point x="262" y="478"/>
      <point x="233" y="478" type="curve" smooth="yes"/>
      <point x="200" y="478"/>
      <point x="164" y="437"/>
      <point x="134" y="373" type="curve"/>
      <point x="128" y="388"/>
      <point x="123" y="404"/>
      <point x="118" y="424" type="curve"/>
      <point x="43" y="432" type="line"/>
      <point x="57" y="356"/>
      <point x="61" y="255"/>
      <point x="61" y="149" type="curve" smooth="yes"/>
      <point x="61" y="84"/>
      <point x="59" y="36"/>
      <point x="58" y="-13" type="curve"/>
      <point x="174" y="-23" type="line"/>
      <point x="177" y="37"/>
      <point x="178" y="93"/>
      <point x="178" y="149" type="curve" smooth="yes"/>
      <point x="178" y="185"/>
      <point x="177" y="220"/>
      <point x="176" y="255" type="curve"/>
      <point x="188" y="317"/>
      <point x="208" y="361"/>
      <point x="239" y="361" type="curve" smooth="yes"/>
      <point x="255" y="361"/>
      <point x="269" y="357"/>
      <point x="279" y="350" type="curve"/>
    </contour>
    <contour>
      <point x="191" y="519" type="line"/>
      <point x="239" y="561"/>
      <point x="279" y="604"/>
      <point x="319" y="649" type="curve"/>
      <point x="261" y="692" type="line"/>
      <point x="227" y="662"/>
      <point x="194" y="636"/>
      <point x="161" y="613" type="curve"/>
      <point x="135" y="634"/>
      <point x="109" y="657"/>
      <point x="80" y="683" type="curve"/>
      <point x="22" y="639" type="line"/>
      <point x="55" y="599"/>
      <point x="85" y="561"/>
      <point x="123" y="524" type="curve"/>
    </contour>
  </outline>
</glyph>
<glyph name="scedilla" format="1">
  <advance width="347"/>
  <unicode hex="015F"/>
  <outline>
    <contour>
      <point x="234" y="277" type="curve"/>
      <point x="325" y="269" type="line"/>
      <point x="329" y="290"/>
      <point x="331" y="309"/>
      <point x="331" y="327" type="curve" smooth="yes"/>
      <point x="331" y="417"/>
      <point x="283" y="473"/>
      <point x="207" y="473" type="curve" smooth="yes"/>
      <point x="133" y="473"/>
      <point x="49" y="400"/>
      <point x="49" y="311" type="curve" smooth="yes"/>
      <point x="49" y="228"/>
      <point x="101" y="191"/>
      <point x="154" y="162" type="curve" smooth="yes"/>
      <point x="180" y="147"/>
      <point x="200" y="125"/>
      <point x="200" y="103" type="curve" smooth="yes"/>
      <point x="200" y="82"/>
      <point x="181" y="71"/>
      <point x="163" y="71" type="curve" smooth="yes"/>
      <point x="131" y="71"/>
      <point x="100" y="104"/>
      <point x="79" y="140" type="curve"/>
      <point x="25" y="79" type="line"/>
      <point x="51" y="35"/>
      <point x="95" y="-4"/>
      <point x="151" y="-17" type="curve"/>
      <point x="137" y="-51"/>
      <point x="131" y="-84"/>
      <point x="130" y="-129" type="curve"/>
      <point x="158" y="-132" type="line"/>
      <point x="168" y="-127"/>
      <point x="177" y="-125"/>
      <point x="186" y="-125" type="curve" smooth="yes"/>
      <point x="206" y="-125"/>
      <point x="221" y="-137"/>
      <point x="221" y="-153" type="curve" smooth="yes" name="hr01"/>
      <point x="221" y="-172"/>
      <point x="200" y="-181"/>
      <point x="179" y="-181" type="curve" smooth="yes"/>
      <point x="144" y="-181"/>
      <point x="94" y="-160"/>
      <point x="64" y="-144" type="curve"/>
      <point x="46" y="-189" type="line"/>
      <point x="83" y="-217"/>
      <point x="132" y="-232"/>
      <point x="181" y="-232" type="curve" smooth="yes"/>
      <point x="260" y="-232"/>
      <point x="307" y="-201"/>
      <point x="307" y="-139" type="curve" smooth="yes"/>
      <point x="307" y="-90"/>
      <point x="264" y="-62"/>
      <point x="222" y="-62" type="curve" smooth="yes"/>
      <point x="214" y="-62"/>
      <point x="207" y="-63"/>
      <point x="199" y="-65" type="curve"/>
      <point x="193" y="-47"/>
      <point x="191" y="-35"/>
      <point x="191" y="-21" type="curve"/>
      <point x="257" y="-19"/>
      <point x="327" y="24"/>
      <point x="327" y="110" type="curve" smooth="yes"/>
      <point x="327" y="182"/>
      <point x="257" y="223"/>
      <point x="216" y="246" type="curve"/>
      <point x="176" y="272"/>
      <point x="167" y="287"/>
      <point x="167" y="326" type="curve" smooth="yes"/>
      <point x="167" y="354"/>
      <point x="187" y="375"/>
      <point x="207" y="375" type="curve" smooth="yes"/>
      <point x="221" y="375"/>
      <point x="237" y="360"/>
      <point x="237" y="315" type="curve" smooth="yes" name="hr02"/>
      <point x="237" y="305"/>
      <point x="236" y="292"/>
    </contour>
  </outline>
</glyph>
<glyph name="scaron" format="1">
  <advance width="347"/>
  <unicode hex="0161"/>
  <outline>
    <contour>
      <point x="234" y="277" type="curve"/>
      <point x="325" y="269" type="line"/>
      <point x="329" y="290"/>
      <point x="331" y="309"/>
      <point x="331" y="327" type="curve" smooth="yes"/>
      <point x="331" y="417"/>
      <point x="283" y="473"/>
      <point x="207" y="473" type="curve" smooth="yes"/>
      <point x="133" y="473"/>
      <point x="49" y="400"/>
      <point x="49" y="311" type="curve" smooth="yes"/>
      <point x="49" y="228"/>
      <point x="101" y="191"/>
      <point x="154" y="162" type="curve" smooth="yes"/>
      <point x="180" y="147"/>
      <point x="200" y="125"/>
      <point x="200" y="103" type="curve" smooth="yes"/>
      <point x="200" y="82"/>
      <point x="181" y="71"/>
      <point x="163" y="71" type="curve" smooth="yes"/>
      <point x="131" y="71"/>
      <point x="100" y="104"/>
      <point x="79" y="140" type="curve"/>
      <point x="25" y="79" type="line"/>
      <point x="57" y="26"/>
      <point x="115" y="-21"/>
      <point x="187" y="-21" type="curve" smooth="yes"/>
      <point x="254" y="-21"/>
      <point x="327" y="23"/>
      <point x="327" y="110" type="curve" smooth="yes"/>
      <point x="327" y="182"/>
      <point x="257" y="223"/>
      <point x="216" y="246" type="curve"/>
      <point x="176" y="272"/>
      <point x="167" y="287"/>
      <point x="167" y="326" type="curve" smooth="yes"/>
      <point x="167" y="354"/>
      <point x="187" y="375"/>
      <point x="207" y="375" type="curve" smooth="yes"/>
      <point x="221" y="375"/>
      <point x="237" y="360"/>
      <point x="237" y="315" type="curve" smooth="yes" name="hr01"/>
      <point x="237" y="305"/>
      <point x="236" y="292"/>
    </contour>
    <contour>
      <point x="230" y="519" type="line"/>
      <point x="278" y="561"/>
      <point x="318" y="604"/>
      <point x="358" y="649" type="curve"/>
      <point x="300" y="692" type="line"/>
      <point x="266" y="662"/>
      <point x="233" y="636"/>
      <point x="200" y="613" type="curve" name="hr02"/>
      <point x="174" y="634"/>
      <point x="148" y="657"/>
      <point x="119" y="683" type="curve"/>
      <point x="61" y="639" type="line"/>
      <point x="94" y="599"/>
      <point x="124" y="561"/>
      <point x="162" y="524" type="curve"/>
    </contour>
  </outline>
</glyph>
<glyph name="Zcaron" format="1">
  <advance width="458"/>
  <unicode hex="017D"/>
  <outline>
    <contour>
      <point x="55" y="-15" type="line" name="hr00"/>
      <point x="145" y="0"/>
      <point x="200" y="7"/>
      <point x="232" y="7" type="curve" smooth="yes"/>
      <point x="294" y="7"/>
      <point x="363" y="0"/>
      <point x="423" y="-8" type="curve"/>
      <point x="440" y="111" type="line"/>
      <point x="387" y="119"/>
      <point x="327" y="125"/>
      <point x="266" y="125" type="curve" smooth="yes"/>
      <point x="242" y="125"/>
      <point x="217" y="124"/>
      <point x="193" y="122" type="curve"/>
      <point x="293" y="279"/>
      <point x="375" y="427"/>
      <point x="465" y="598" type="curve"/>
      <point x="448" y="685" type="line"/>
      <point x="279" y="683"/>
      <point x="131" y="672"/>
      <point x="55" y="656" type="curve"/>
      <point x="74" y="539" type="line"/>
      <point x="141" y="549"/>
      <point x="224" y="557"/>
      <point x="315" y="562" type="curve"/>
      <point x="228" y="392"/>
      <point x="148" y="264"/>
      <point x="39" y="90" type="curve"/>
    </contour>
    <contour>
      <point x="283" y="770" type="line"/>
      <point x="331" y="812"/>
      <point x="371" y="855"/>
      <point x="411" y="900" type="curve"/>
      <point x="353" y="943" type="line"/>
      <point x="319" y="913"/>
      <point x="286" y="887"/>
      <point x="253" y="864" type="curve"/>
      <point x="227" y="885"/>
      <point x="201" y="908"/>
      <point x="172" y="934" type="curve"/>
      <point x="114" y="890" type="line"/>
      <point x="147" y="850"/>
      <point x="177" y="812"/>
      <point x="215" y="775" type="curve"/>
    </contour>
  </outline>
</glyph>
<glyph name="zcaron" format="1">
  <advance width="344"/>
  <unicode hex="017E"/>
  <outline>
    <contour>
      <point x="62" y="-4" type="line"/>
      <point x="129" y="7"/>
      <point x="173" y="11"/>
      <point x="200" y="11" type="curve" smooth="yes" name="hr01"/>
      <point x="244" y="11"/>
      <point x="284" y="8"/>
      <point x="315" y="5" type="curve"/>
      <point x="328" y="97" type="line"/>
      <point x="292" y="101"/>
      <point x="246" y="104"/>
      <point x="200" y="104" type="curve" smooth="yes"/>
      <point x="152" y="104" type="line"/>
      <point x="199" y="189"/>
      <point x="260" y="290"/>
      <point x="326" y="382" type="curve"/>
      <point x="310" y="474" type="line"/>
      <point x="283" y="476"/>
      <point x="254" y="477"/>
      <point x="226" y="477" type="curve" smooth="yes"/>
      <point x="168" y="477"/>
      <point x="110" y="472"/>
      <point x="55" y="461" type="curve"/>
      <point x="74" y="362" type="line"/>
      <point x="116" y="372"/>
      <point x="161" y="377"/>
      <point x="211" y="381" type="curve" name="hr02"/>
      <point x="163" y="316"/>
      <point x="110" y="221"/>
      <point x="44" y="99" type="curve"/>
    </contour>
    <contour>
      <point x="218" y="519" type="line"/>
      <point x="266" y="561"/>
      <point x="306" y="604"/>
      <point x="346" y="649" type="curve"/>
      <point x="288" y="692" type="line"/>
      <point x="254" y="662"/>
      <point x="221" y="636"/>
      <point x="188" y="613" type="curve"/>
      <point x="162" y="634"/>
      <point x="136" y="657"/>
      <point x="107" y="683" type="curve"/>
      <point x="49" y="639" type="line"/>
      <point x="82" y="599"/>
      <point x="112" y="561"/>
      <point x="150" y="524" type="curve"/>
    </contour>
  </outline>
</glyph>
<glyph name="florin" format="1">
  <advance width="487"/>
  <unicode hex="0192"/>
  <outline>
    <contour>
      <point x="41" y="180" type="line" name="hr00"/>
      <point x="63" y="187"/>
      <point x="88" y="192"/>
      <point x="117" y="197" type="curve"/>
      <point x="110" y="126"/>
      <point x="106" y="63"/>
      <point x="98" y="-5" type="curve" smooth="yes"/>
      <point x="88" y="-91"/>
      <point x="72" y="-130"/>
      <point x="39" y="-130" type="curve" smooth="yes"/>
      <point x="25" y="-130"/>
      <point x="8" y="-122"/>
      <point x="-14" y="-108" type="curve"/>
      <point x="-59" y="-185" type="line"/>
      <point x="-29" y="-224"/>
      <point x="5" y="-245"/>
      <point x="52" y="-245" type="curve" smooth="yes"/>
      <point x="121" y="-245"/>
      <point x="195" y="-179"/>
      <point x="215" y="-37" type="curve" smooth="yes"/>
      <point x="227" y="49"/>
      <point x="234" y="131"/>
      <point x="241" y="213" type="curve"/>
      <point x="280" y="218"/>
      <point x="321" y="218"/>
      <point x="352" y="218" type="curve"/>
      <point x="362" y="311" type="line"/>
      <point x="330" y="311"/>
      <point x="290" y="310"/>
      <point x="250" y="307" type="curve"/>
      <point x="257" y="365" type="line" smooth="yes"/>
      <point x="270" y="474"/>
      <point x="305" y="535"/>
      <point x="323" y="535" type="curve" smooth="yes"/>
      <point x="337" y="535"/>
      <point x="345" y="508"/>
      <point x="345" y="476" type="curve" smooth="yes"/>
      <point x="345" y="459"/>
      <point x="343" y="440"/>
      <point x="338" y="423" type="curve"/>
      <point x="436" y="414" type="line"/>
      <point x="447" y="452"/>
      <point x="452" y="486"/>
      <point x="452" y="516" type="curve" smooth="yes"/>
      <point x="452" y="608"/>
      <point x="406" y="662"/>
      <point x="343" y="662" type="curve" smooth="yes"/>
      <point x="252" y="662"/>
      <point x="161" y="553"/>
      <point x="136" y="365" type="curve" smooth="yes"/>
      <point x="126" y="291" type="line"/>
      <point x="96" y="285"/>
      <point x="64" y="278"/>
      <point x="40" y="270" type="curve"/>
    </contour>
  </outline>
</glyph>
<glyph name="dotlessj" format="1">
  <advance width="252"/>
  <unicode hex="0237"/>
  <outline>
    <contour>
      <point x="86" y="468" type="line" name="hr00"/>
      <point x="91" y="326"/>
      <point x="91" y="73"/>
      <point x="91" y="-15" type="curve" smooth="yes"/>
      <point x="91" y="-91"/>
      <point x="66" y="-128"/>
      <point x="42" y="-128" type="curve" smooth="yes"/>
      <point x="32" y="-128"/>
      <point x="9" y="-117"/>
      <point x="-16" y="-98" type="curve"/>
      <point x="-51" y="-175" type="line"/>
      <point x="-14" y="-221"/>
      <point x="41" y="-245"/>
      <point x="70" y="-245" type="curve" smooth="yes"/>
      <point x="137" y="-245"/>
      <point x="203" y="-167"/>
      <point x="203" y="-5" type="curve" smooth="yes"/>
      <point x="203" y="77"/>
      <point x="202" y="323"/>
      <point x="194" y="457" type="curve"/>
    </contour>
  </outline>
</glyph>
<glyph name="caron" format="1">
  <advance width="500"/>
  <unicode hex="02C7"/>
  <outline>
    <contour>
      <point x="276" y="519" type="line" name="hr00"/>
      <point x="324" y="561"/>
      <point x="364" y="604"/>
      <point x="404" y="649" type="curve"/>
      <point x="346" y="692" type="line"/>
      <point x="312" y="662"/>
      <point x="279" y="636"/>
      <point x="246" y="613" type="curve"/>
      <point x="220" y="634"/>
      <point x="194" y="657"/>
      <point x="165" y="683" type="curve"/>
      <point x="107" y="639" type="line"/>
      <point x="140" y="599"/>
      <point x="170" y="561"/>
      <point x="208" y="524" type="curve"/>
    </contour>
  </outline>
</glyph>
<glyph name="ring" format="1">
  <advance width="500"/>
  <unicode hex="02DA"/>
  <outline>
    <contour>
      <point x="243" y="566" type="curve" smooth="yes" name="hr00"/>
      <point x="221" y="566"/>
      <point x="204" y="581"/>
      <point x="204" y="609" type="curve" smooth="yes"/>
      <point x="204" y="638"/>
      <point x="223" y="671"/>
      <point x="257" y="671" type="curve" smooth="yes"/>
      <point x="279" y="671"/>
      <point x="296" y="657"/>
      <point x="296" y="629" type="curve" smooth="yes"/>
      <point x="296" y="600"/>
      <point x="277" y="566"/>
    </contour>
    <contour>
      <point x="241" y="511" type="curve" smooth="yes"/>
      <point x="319" y="511"/>
      <point x="366" y="574"/>
      <point x="366" y="631" type="curve" smooth="yes"/>
      <point x="366" y="688"/>
      <point x="320" y="726"/>
      <point x="259" y="726" type="curve" smooth="yes"/>
      <point x="182" y="726"/>
      <point x="134" y="664"/>
      <point x="134" y="606" type="curve" smooth="yes"/>
      <point x="134" y="550"/>
      <point x="180" y="511"/>
    </contour>
  </outline>
</glyph>
<glyph name="tilde" format="1">
  <advance width="500"/>
  <unicode hex="02DC"/>
  <outline>
    <contour>
      <point x="345" y="651" type="line"/>
      <point x="333" y="635"/>
      <point x="316" y="619"/>
      <point x="293" y="619" type="curve" smooth="yes"/>
      <point x="262" y="619"/>
      <point x="237" y="647"/>
      <point x="198" y="647" type="curve" smooth="yes" name="hr01"/>
      <point x="152" y="647"/>
      <point x="123" y="600"/>
      <point x="105" y="562" type="curve"/>
      <point x="165" y="530" type="line"/>
      <point x="177" y="542"/>
      <point x="193" y="553"/>
      <point x="215" y="553" type="curve" smooth="yes"/>
      <point x="246" y="553"/>
      <point x="264" y="535"/>
      <point x="310" y="535" type="curve" smooth="yes" name="hr02"/>
      <point x="357" y="535"/>
      <point x="401" y="594"/>
      <point x="405" y="646" type="curve"/>
    </contour>
  </outline>
</glyph>
